%TF.GenerationSoftware,KiCad,Pcbnew,(6.0.4)*%
%TF.CreationDate,2022-07-08T23:35:13-04:00*%
%TF.ProjectId,Avionics_Board,4176696f-6e69-4637-935f-426f6172642e,rev?*%
%TF.SameCoordinates,Original*%
%TF.FileFunction,Paste,Top*%
%TF.FilePolarity,Positive*%
%FSLAX46Y46*%
G04 Gerber Fmt 4.6, Leading zero omitted, Abs format (unit mm)*
G04 Created by KiCad (PCBNEW (6.0.4)) date 2022-07-08 23:35:13*
%MOMM*%
%LPD*%
G01*
G04 APERTURE LIST*
G04 Aperture macros list*
%AMRoundRect*
0 Rectangle with rounded corners*
0 $1 Rounding radius*
0 $2 $3 $4 $5 $6 $7 $8 $9 X,Y pos of 4 corners*
0 Add a 4 corners polygon primitive as box body*
4,1,4,$2,$3,$4,$5,$6,$7,$8,$9,$2,$3,0*
0 Add four circle primitives for the rounded corners*
1,1,$1+$1,$2,$3*
1,1,$1+$1,$4,$5*
1,1,$1+$1,$6,$7*
1,1,$1+$1,$8,$9*
0 Add four rect primitives between the rounded corners*
20,1,$1+$1,$2,$3,$4,$5,0*
20,1,$1+$1,$4,$5,$6,$7,0*
20,1,$1+$1,$6,$7,$8,$9,0*
20,1,$1+$1,$8,$9,$2,$3,0*%
G04 Aperture macros list end*
%ADD10RoundRect,0.200000X0.200000X0.275000X-0.200000X0.275000X-0.200000X-0.275000X0.200000X-0.275000X0*%
%ADD11RoundRect,0.225000X-0.250000X0.225000X-0.250000X-0.225000X0.250000X-0.225000X0.250000X0.225000X0*%
%ADD12RoundRect,0.150000X-0.512500X-0.150000X0.512500X-0.150000X0.512500X0.150000X-0.512500X0.150000X0*%
%ADD13R,0.650000X0.400000*%
%ADD14R,1.800000X1.000000*%
%ADD15RoundRect,0.200000X0.275000X-0.200000X0.275000X0.200000X-0.275000X0.200000X-0.275000X-0.200000X0*%
%ADD16RoundRect,0.075000X-0.662500X-0.075000X0.662500X-0.075000X0.662500X0.075000X-0.662500X0.075000X0*%
%ADD17RoundRect,0.075000X-0.075000X-0.662500X0.075000X-0.662500X0.075000X0.662500X-0.075000X0.662500X0*%
%ADD18RoundRect,0.150000X-0.825000X-0.150000X0.825000X-0.150000X0.825000X0.150000X-0.825000X0.150000X0*%
%ADD19RoundRect,0.225000X0.250000X-0.225000X0.250000X0.225000X-0.250000X0.225000X-0.250000X-0.225000X0*%
%ADD20RoundRect,0.225000X0.225000X0.250000X-0.225000X0.250000X-0.225000X-0.250000X0.225000X-0.250000X0*%
%ADD21RoundRect,0.218750X0.218750X0.256250X-0.218750X0.256250X-0.218750X-0.256250X0.218750X-0.256250X0*%
%ADD22RoundRect,0.150000X-0.650000X-0.150000X0.650000X-0.150000X0.650000X0.150000X-0.650000X0.150000X0*%
%ADD23RoundRect,0.225000X-0.225000X-0.250000X0.225000X-0.250000X0.225000X0.250000X-0.225000X0.250000X0*%
%ADD24RoundRect,0.250000X0.325000X0.650000X-0.325000X0.650000X-0.325000X-0.650000X0.325000X-0.650000X0*%
%ADD25R,2.000000X1.500000*%
%ADD26R,2.000000X3.800000*%
%ADD27RoundRect,0.200000X-0.275000X0.200000X-0.275000X-0.200000X0.275000X-0.200000X0.275000X0.200000X0*%
%ADD28RoundRect,0.200000X-0.200000X-0.275000X0.200000X-0.275000X0.200000X0.275000X-0.200000X0.275000X0*%
%ADD29R,1.350000X0.400000*%
%ADD30R,1.900000X1.500000*%
%ADD31RoundRect,0.243750X-0.243750X-0.456250X0.243750X-0.456250X0.243750X0.456250X-0.243750X0.456250X0*%
%ADD32RoundRect,0.100000X0.100000X-0.637500X0.100000X0.637500X-0.100000X0.637500X-0.100000X-0.637500X0*%
%ADD33RoundRect,0.250000X-0.325000X-0.650000X0.325000X-0.650000X0.325000X0.650000X-0.325000X0.650000X0*%
%ADD34R,2.400000X0.740000*%
%ADD35RoundRect,0.249999X2.450001X-0.737501X2.450001X0.737501X-2.450001X0.737501X-2.450001X-0.737501X0*%
%ADD36RoundRect,0.150000X0.150000X-0.512500X0.150000X0.512500X-0.150000X0.512500X-0.150000X-0.512500X0*%
%ADD37RoundRect,0.218750X-0.218750X-0.256250X0.218750X-0.256250X0.218750X0.256250X-0.218750X0.256250X0*%
%ADD38RoundRect,0.249999X0.737501X2.450001X-0.737501X2.450001X-0.737501X-2.450001X0.737501X-2.450001X0*%
G04 APERTURE END LIST*
D10*
%TO.C,R14*%
X95821000Y-84460000D03*
X94171000Y-84460000D03*
%TD*%
D11*
%TO.C,C18*%
X128270000Y-131051000D03*
X128270000Y-132601000D03*
%TD*%
D12*
%TO.C,U24*%
X92080500Y-116784000D03*
X92080500Y-117734000D03*
X92080500Y-118684000D03*
X94355500Y-118684000D03*
X94355500Y-116784000D03*
%TD*%
D13*
%TO.C,U13*%
X83378000Y-113782000D03*
X83378000Y-114432000D03*
X83378000Y-115082000D03*
X85278000Y-115082000D03*
X85278000Y-113782000D03*
%TD*%
D10*
%TO.C,R7*%
X103187000Y-132212000D03*
X101537000Y-132212000D03*
%TD*%
%TO.C,R11*%
X137731000Y-145288000D03*
X136081000Y-145288000D03*
%TD*%
D14*
%TO.C,Y1*%
X123952000Y-141630000D03*
X123952000Y-144130000D03*
%TD*%
D15*
%TO.C,R23*%
X129540000Y-116141000D03*
X129540000Y-114491000D03*
%TD*%
D12*
%TO.C,U7*%
X83698500Y-81732000D03*
X83698500Y-82682000D03*
X83698500Y-83632000D03*
X85973500Y-83632000D03*
X85973500Y-81732000D03*
%TD*%
D13*
%TO.C,U21*%
X92268000Y-104638000D03*
X92268000Y-105288000D03*
X92268000Y-105938000D03*
X94168000Y-105938000D03*
X94168000Y-104638000D03*
%TD*%
D16*
%TO.C,U9*%
X124869500Y-121588000D03*
X124869500Y-122088000D03*
X124869500Y-122588000D03*
X124869500Y-123088000D03*
X124869500Y-123588000D03*
X124869500Y-124088000D03*
X124869500Y-124588000D03*
X124869500Y-125088000D03*
X124869500Y-125588000D03*
X124869500Y-126088000D03*
X124869500Y-126588000D03*
X124869500Y-127088000D03*
D17*
X126282000Y-128500500D03*
X126782000Y-128500500D03*
X127282000Y-128500500D03*
X127782000Y-128500500D03*
X128282000Y-128500500D03*
X128782000Y-128500500D03*
X129282000Y-128500500D03*
X129782000Y-128500500D03*
X130282000Y-128500500D03*
X130782000Y-128500500D03*
X131282000Y-128500500D03*
X131782000Y-128500500D03*
D16*
X133194500Y-127088000D03*
X133194500Y-126588000D03*
X133194500Y-126088000D03*
X133194500Y-125588000D03*
X133194500Y-125088000D03*
X133194500Y-124588000D03*
X133194500Y-124088000D03*
X133194500Y-123588000D03*
X133194500Y-123088000D03*
X133194500Y-122588000D03*
X133194500Y-122088000D03*
X133194500Y-121588000D03*
D17*
X131782000Y-120175500D03*
X131282000Y-120175500D03*
X130782000Y-120175500D03*
X130282000Y-120175500D03*
X129782000Y-120175500D03*
X129282000Y-120175500D03*
X128782000Y-120175500D03*
X128282000Y-120175500D03*
X127782000Y-120175500D03*
X127282000Y-120175500D03*
X126782000Y-120175500D03*
X126282000Y-120175500D03*
%TD*%
D10*
%TO.C,R18*%
X76200000Y-141610000D03*
X74550000Y-141610000D03*
%TD*%
D18*
%TO.C,U3*%
X128016000Y-142499000D03*
X128016000Y-143769000D03*
X128016000Y-145039000D03*
X128016000Y-146309000D03*
X132966000Y-146309000D03*
X132966000Y-145039000D03*
X132966000Y-143769000D03*
X132966000Y-142499000D03*
%TD*%
D13*
%TO.C,U19*%
X92268000Y-95494000D03*
X92268000Y-96144000D03*
X92268000Y-96794000D03*
X94168000Y-96794000D03*
X94168000Y-95494000D03*
%TD*%
D10*
%TO.C,R15*%
X95821000Y-80650000D03*
X94171000Y-80650000D03*
%TD*%
D19*
%TO.C,C21*%
X137922000Y-122065000D03*
X137922000Y-120515000D03*
%TD*%
D20*
%TO.C,C31*%
X97295000Y-113670000D03*
X95745000Y-113670000D03*
%TD*%
D10*
%TO.C,R4*%
X120459000Y-126492000D03*
X118809000Y-126492000D03*
%TD*%
D21*
%TO.C,L1*%
X109499500Y-80650000D03*
X107924500Y-80650000D03*
%TD*%
D10*
%TO.C,R5*%
X103187000Y-129164000D03*
X101537000Y-129164000D03*
%TD*%
D11*
%TO.C,C25*%
X132080000Y-99941000D03*
X132080000Y-101491000D03*
%TD*%
D10*
%TO.C,R27*%
X119189000Y-89794000D03*
X117539000Y-89794000D03*
%TD*%
D22*
%TO.C,U1*%
X105112000Y-129291000D03*
X105112000Y-130561000D03*
X105112000Y-131831000D03*
X105112000Y-133101000D03*
X112312000Y-133101000D03*
X112312000Y-131831000D03*
X112312000Y-130561000D03*
X112312000Y-129291000D03*
%TD*%
D15*
%TO.C,R2*%
X124968000Y-116141000D03*
X124968000Y-114491000D03*
%TD*%
D18*
%TO.C,U12*%
X121223000Y-97414000D03*
X121223000Y-98684000D03*
X121223000Y-99954000D03*
X121223000Y-101224000D03*
X121223000Y-102494000D03*
X121223000Y-103764000D03*
X121223000Y-105034000D03*
X126173000Y-105034000D03*
X126173000Y-103764000D03*
X126173000Y-102494000D03*
X126173000Y-101224000D03*
X126173000Y-99954000D03*
X126173000Y-98684000D03*
X126173000Y-97414000D03*
%TD*%
D11*
%TO.C,C7*%
X91440000Y-86720000D03*
X91440000Y-88270000D03*
%TD*%
D23*
%TO.C,C1*%
X110985000Y-127508000D03*
X112535000Y-127508000D03*
%TD*%
D24*
%TO.C,C14*%
X103075000Y-88270000D03*
X100125000Y-88270000D03*
%TD*%
D11*
%TO.C,C8*%
X89662000Y-86733000D03*
X89662000Y-88283000D03*
%TD*%
D25*
%TO.C,U8*%
X73050000Y-83806000D03*
D26*
X79350000Y-86106000D03*
D25*
X73050000Y-86106000D03*
X73050000Y-88406000D03*
%TD*%
D10*
%TO.C,R17*%
X76200000Y-146690000D03*
X74550000Y-146690000D03*
%TD*%
D27*
%TO.C,R19*%
X66040000Y-102685000D03*
X66040000Y-104335000D03*
%TD*%
D28*
%TO.C,R22*%
X74550000Y-126370000D03*
X76200000Y-126370000D03*
%TD*%
D10*
%TO.C,R13*%
X95821000Y-82428000D03*
X94171000Y-82428000D03*
%TD*%
D12*
%TO.C,U18*%
X83190500Y-107640000D03*
X83190500Y-108590000D03*
X83190500Y-109540000D03*
X85465500Y-109540000D03*
X85465500Y-107640000D03*
%TD*%
D18*
%TO.C,U11*%
X121223000Y-87254000D03*
X121223000Y-88524000D03*
X121223000Y-89794000D03*
X121223000Y-91064000D03*
X121223000Y-92334000D03*
X121223000Y-93604000D03*
X121223000Y-94874000D03*
X126173000Y-94874000D03*
X126173000Y-93604000D03*
X126173000Y-92334000D03*
X126173000Y-91064000D03*
X126173000Y-89794000D03*
X126173000Y-88524000D03*
X126173000Y-87254000D03*
%TD*%
D29*
%TO.C,J2*%
X66479400Y-94590000D03*
X66479400Y-95240000D03*
X66479400Y-95890000D03*
X66479400Y-96540000D03*
X66479400Y-97190000D03*
D30*
X63779400Y-96890000D03*
X63779400Y-94890000D03*
%TD*%
D11*
%TO.C,C10*%
X67564000Y-102730000D03*
X67564000Y-104280000D03*
%TD*%
%TO.C,C9*%
X86106000Y-86733000D03*
X86106000Y-88283000D03*
%TD*%
D23*
%TO.C,C23*%
X128257000Y-97414000D03*
X129807000Y-97414000D03*
%TD*%
D20*
%TO.C,C30*%
X97295000Y-104526000D03*
X95745000Y-104526000D03*
%TD*%
D31*
%TO.C,F1*%
X70182500Y-93350000D03*
X72057500Y-93350000D03*
%TD*%
D23*
%TO.C,C22*%
X128257000Y-87254000D03*
X129807000Y-87254000D03*
%TD*%
D10*
%TO.C,R9*%
X106997000Y-136276000D03*
X105347000Y-136276000D03*
%TD*%
D13*
%TO.C,U15*%
X83378000Y-95494000D03*
X83378000Y-96144000D03*
X83378000Y-96794000D03*
X85278000Y-96794000D03*
X85278000Y-95494000D03*
%TD*%
D19*
%TO.C,C19*%
X135382000Y-121425000D03*
X135382000Y-119875000D03*
%TD*%
D27*
%TO.C,R16*%
X88138000Y-86683000D03*
X88138000Y-88333000D03*
%TD*%
D32*
%TO.C,U10*%
X138725000Y-129994500D03*
X139375000Y-129994500D03*
X140025000Y-129994500D03*
X140675000Y-129994500D03*
X140675000Y-124269500D03*
X140025000Y-124269500D03*
X139375000Y-124269500D03*
X138725000Y-124269500D03*
%TD*%
D33*
%TO.C,C16*%
X117397000Y-120904000D03*
X120347000Y-120904000D03*
%TD*%
D15*
%TO.C,R1*%
X126492000Y-116141000D03*
X126492000Y-114491000D03*
%TD*%
D27*
%TO.C,R26*%
X139446000Y-120465000D03*
X139446000Y-122115000D03*
%TD*%
D20*
%TO.C,C26*%
X88405000Y-113670000D03*
X86855000Y-113670000D03*
%TD*%
D23*
%TO.C,C5*%
X111493000Y-80650000D03*
X113043000Y-80650000D03*
%TD*%
D20*
%TO.C,C15*%
X120409000Y-122936000D03*
X118859000Y-122936000D03*
%TD*%
D34*
%TO.C,J5*%
X143420000Y-98430000D03*
X147320000Y-98430000D03*
X143420000Y-99700000D03*
X147320000Y-99700000D03*
X143420000Y-100970000D03*
X147320000Y-100970000D03*
X143420000Y-102240000D03*
X147320000Y-102240000D03*
X143420000Y-103510000D03*
X147320000Y-103510000D03*
%TD*%
D12*
%TO.C,U20*%
X92080500Y-98496000D03*
X92080500Y-99446000D03*
X92080500Y-100396000D03*
X94355500Y-100396000D03*
X94355500Y-98496000D03*
%TD*%
D10*
%TO.C,R10*%
X137731000Y-146812000D03*
X136081000Y-146812000D03*
%TD*%
%TO.C,R6*%
X103187000Y-130688000D03*
X101537000Y-130688000D03*
%TD*%
D13*
%TO.C,U17*%
X83378000Y-104638000D03*
X83378000Y-105288000D03*
X83378000Y-105938000D03*
X85278000Y-105938000D03*
X85278000Y-104638000D03*
%TD*%
D33*
%TO.C,C20*%
X119429000Y-115062000D03*
X122379000Y-115062000D03*
%TD*%
D35*
%TO.C,C12*%
X67818000Y-80869500D03*
X67818000Y-75594500D03*
%TD*%
D11*
%TO.C,C4*%
X137668000Y-107429000D03*
X137668000Y-108979000D03*
%TD*%
D36*
%TO.C,U5*%
X135636000Y-113284000D03*
X136586000Y-113284000D03*
X137536000Y-113284000D03*
X137536000Y-111009000D03*
X136586000Y-111009000D03*
X135636000Y-111009000D03*
%TD*%
D10*
%TO.C,R21*%
X76200000Y-131450000D03*
X74550000Y-131450000D03*
%TD*%
D11*
%TO.C,C24*%
X132080000Y-89781000D03*
X132080000Y-91331000D03*
%TD*%
D20*
%TO.C,C28*%
X88405000Y-104526000D03*
X86855000Y-104526000D03*
%TD*%
D35*
%TO.C,C11*%
X67818000Y-88743500D03*
X67818000Y-83468500D03*
%TD*%
D10*
%TO.C,R8*%
X103949000Y-136276000D03*
X102299000Y-136276000D03*
%TD*%
D12*
%TO.C,U22*%
X92080500Y-107640000D03*
X92080500Y-108590000D03*
X92080500Y-109540000D03*
X94355500Y-109540000D03*
X94355500Y-107640000D03*
%TD*%
D20*
%TO.C,C2*%
X137681000Y-142240000D03*
X136131000Y-142240000D03*
%TD*%
D27*
%TO.C,R25*%
X138684000Y-100013000D03*
X138684000Y-101663000D03*
%TD*%
D12*
%TO.C,U14*%
X83190500Y-116784000D03*
X83190500Y-117734000D03*
X83190500Y-118684000D03*
X85465500Y-118684000D03*
X85465500Y-116784000D03*
%TD*%
%TO.C,U16*%
X83190500Y-98496000D03*
X83190500Y-99446000D03*
X83190500Y-100396000D03*
X85465500Y-100396000D03*
X85465500Y-98496000D03*
%TD*%
D27*
%TO.C,R24*%
X131064000Y-114491000D03*
X131064000Y-116141000D03*
%TD*%
D20*
%TO.C,C27*%
X88405000Y-95382000D03*
X86855000Y-95382000D03*
%TD*%
D10*
%TO.C,R29*%
X129857000Y-89794000D03*
X128207000Y-89794000D03*
%TD*%
D15*
%TO.C,R3*%
X134112000Y-116141000D03*
X134112000Y-114491000D03*
%TD*%
D10*
%TO.C,R20*%
X76263000Y-136530000D03*
X74613000Y-136530000D03*
%TD*%
D13*
%TO.C,U23*%
X92268000Y-113782000D03*
X92268000Y-114432000D03*
X92268000Y-115082000D03*
X94168000Y-115082000D03*
X94168000Y-113782000D03*
%TD*%
D10*
%TO.C,R28*%
X119189000Y-99954000D03*
X117539000Y-99954000D03*
%TD*%
D13*
%TO.C,U6*%
X94046000Y-86858000D03*
X94046000Y-87508000D03*
X94046000Y-88158000D03*
X95946000Y-88158000D03*
X95946000Y-86858000D03*
%TD*%
D20*
%TO.C,C29*%
X97295000Y-95382000D03*
X95745000Y-95382000D03*
%TD*%
D19*
%TO.C,C13*%
X132588000Y-116091000D03*
X132588000Y-114541000D03*
%TD*%
D10*
%TO.C,R30*%
X129857000Y-99954000D03*
X128207000Y-99954000D03*
%TD*%
D19*
%TO.C,C17*%
X128016000Y-116091000D03*
X128016000Y-114541000D03*
%TD*%
D37*
%TO.C,L2*%
X118846500Y-124714000D03*
X120421500Y-124714000D03*
%TD*%
D38*
%TO.C,C6*%
X105507500Y-83190000D03*
X100232500Y-83190000D03*
%TD*%
D24*
%TO.C,C3*%
X139143000Y-140208000D03*
X136193000Y-140208000D03*
%TD*%
D10*
%TO.C,R12*%
X137731000Y-143764000D03*
X136081000Y-143764000D03*
%TD*%
M02*
