%TF.GenerationSoftware,KiCad,Pcbnew,(6.0.4)*%
%TF.CreationDate,2022-07-08T23:35:13-04:00*%
%TF.ProjectId,Avionics_Board,4176696f-6e69-4637-935f-426f6172642e,rev?*%
%TF.SameCoordinates,Original*%
%TF.FileFunction,Copper,L1,Top*%
%TF.FilePolarity,Positive*%
%FSLAX46Y46*%
G04 Gerber Fmt 4.6, Leading zero omitted, Abs format (unit mm)*
G04 Created by KiCad (PCBNEW (6.0.4)) date 2022-07-08 23:35:13*
%MOMM*%
%LPD*%
G01*
G04 APERTURE LIST*
G04 Aperture macros list*
%AMRoundRect*
0 Rectangle with rounded corners*
0 $1 Rounding radius*
0 $2 $3 $4 $5 $6 $7 $8 $9 X,Y pos of 4 corners*
0 Add a 4 corners polygon primitive as box body*
4,1,4,$2,$3,$4,$5,$6,$7,$8,$9,$2,$3,0*
0 Add four circle primitives for the rounded corners*
1,1,$1+$1,$2,$3*
1,1,$1+$1,$4,$5*
1,1,$1+$1,$6,$7*
1,1,$1+$1,$8,$9*
0 Add four rect primitives between the rounded corners*
20,1,$1+$1,$2,$3,$4,$5,0*
20,1,$1+$1,$4,$5,$6,$7,0*
20,1,$1+$1,$6,$7,$8,$9,0*
20,1,$1+$1,$8,$9,$2,$3,0*%
%AMFreePoly0*
4,1,22,0.500000,-0.750000,0.000000,-0.750000,0.000000,-0.745033,-0.079941,-0.743568,-0.215256,-0.701293,-0.333266,-0.622738,-0.424486,-0.514219,-0.481581,-0.384460,-0.499164,-0.250000,-0.500000,-0.250000,-0.500000,0.250000,-0.499164,0.250000,-0.499963,0.256109,-0.478152,0.396186,-0.417904,0.524511,-0.324060,0.630769,-0.204165,0.706417,-0.067858,0.745374,0.000000,0.744959,0.000000,0.750000,
0.500000,0.750000,0.500000,-0.750000,0.500000,-0.750000,$1*%
%AMFreePoly1*
4,1,20,0.000000,0.744959,0.073905,0.744508,0.209726,0.703889,0.328688,0.626782,0.421226,0.519385,0.479903,0.390333,0.500000,0.250000,0.500000,-0.250000,0.499851,-0.262216,0.476331,-0.402017,0.414519,-0.529596,0.319384,-0.634700,0.198574,-0.708877,0.061801,-0.746166,0.000000,-0.745033,0.000000,-0.750000,-0.500000,-0.750000,-0.500000,0.750000,0.000000,0.750000,0.000000,0.744959,
0.000000,0.744959,$1*%
G04 Aperture macros list end*
%TA.AperFunction,SMDPad,CuDef*%
%ADD10FreePoly0,90.000000*%
%TD*%
%TA.AperFunction,SMDPad,CuDef*%
%ADD11FreePoly1,90.000000*%
%TD*%
%TA.AperFunction,ComponentPad*%
%ADD12C,6.400000*%
%TD*%
%TA.AperFunction,SMDPad,CuDef*%
%ADD13RoundRect,0.200000X0.200000X0.275000X-0.200000X0.275000X-0.200000X-0.275000X0.200000X-0.275000X0*%
%TD*%
%TA.AperFunction,SMDPad,CuDef*%
%ADD14RoundRect,0.225000X-0.250000X0.225000X-0.250000X-0.225000X0.250000X-0.225000X0.250000X0.225000X0*%
%TD*%
%TA.AperFunction,SMDPad,CuDef*%
%ADD15RoundRect,0.150000X-0.512500X-0.150000X0.512500X-0.150000X0.512500X0.150000X-0.512500X0.150000X0*%
%TD*%
%TA.AperFunction,ComponentPad*%
%ADD16R,1.700000X1.700000*%
%TD*%
%TA.AperFunction,ComponentPad*%
%ADD17O,1.700000X1.700000*%
%TD*%
%TA.AperFunction,SMDPad,CuDef*%
%ADD18R,0.650000X0.400000*%
%TD*%
%TA.AperFunction,ComponentPad*%
%ADD19R,1.800000X1.800000*%
%TD*%
%TA.AperFunction,ComponentPad*%
%ADD20C,1.800000*%
%TD*%
%TA.AperFunction,SMDPad,CuDef*%
%ADD21R,1.800000X1.000000*%
%TD*%
%TA.AperFunction,SMDPad,CuDef*%
%ADD22RoundRect,0.200000X0.275000X-0.200000X0.275000X0.200000X-0.275000X0.200000X-0.275000X-0.200000X0*%
%TD*%
%TA.AperFunction,SMDPad,CuDef*%
%ADD23R,2.000000X2.000000*%
%TD*%
%TA.AperFunction,SMDPad,CuDef*%
%ADD24RoundRect,0.075000X-0.662500X-0.075000X0.662500X-0.075000X0.662500X0.075000X-0.662500X0.075000X0*%
%TD*%
%TA.AperFunction,SMDPad,CuDef*%
%ADD25RoundRect,0.075000X-0.075000X-0.662500X0.075000X-0.662500X0.075000X0.662500X-0.075000X0.662500X0*%
%TD*%
%TA.AperFunction,SMDPad,CuDef*%
%ADD26RoundRect,0.150000X-0.825000X-0.150000X0.825000X-0.150000X0.825000X0.150000X-0.825000X0.150000X0*%
%TD*%
%TA.AperFunction,SMDPad,CuDef*%
%ADD27RoundRect,0.225000X0.250000X-0.225000X0.250000X0.225000X-0.250000X0.225000X-0.250000X-0.225000X0*%
%TD*%
%TA.AperFunction,SMDPad,CuDef*%
%ADD28RoundRect,0.225000X0.225000X0.250000X-0.225000X0.250000X-0.225000X-0.250000X0.225000X-0.250000X0*%
%TD*%
%TA.AperFunction,SMDPad,CuDef*%
%ADD29RoundRect,0.218750X0.218750X0.256250X-0.218750X0.256250X-0.218750X-0.256250X0.218750X-0.256250X0*%
%TD*%
%TA.AperFunction,SMDPad,CuDef*%
%ADD30RoundRect,0.150000X-0.650000X-0.150000X0.650000X-0.150000X0.650000X0.150000X-0.650000X0.150000X0*%
%TD*%
%TA.AperFunction,SMDPad,CuDef*%
%ADD31RoundRect,0.225000X-0.225000X-0.250000X0.225000X-0.250000X0.225000X0.250000X-0.225000X0.250000X0*%
%TD*%
%TA.AperFunction,SMDPad,CuDef*%
%ADD32RoundRect,0.250000X0.325000X0.650000X-0.325000X0.650000X-0.325000X-0.650000X0.325000X-0.650000X0*%
%TD*%
%TA.AperFunction,SMDPad,CuDef*%
%ADD33R,2.000000X1.500000*%
%TD*%
%TA.AperFunction,SMDPad,CuDef*%
%ADD34R,2.000000X3.800000*%
%TD*%
%TA.AperFunction,SMDPad,CuDef*%
%ADD35RoundRect,0.200000X-0.275000X0.200000X-0.275000X-0.200000X0.275000X-0.200000X0.275000X0.200000X0*%
%TD*%
%TA.AperFunction,SMDPad,CuDef*%
%ADD36RoundRect,0.200000X-0.200000X-0.275000X0.200000X-0.275000X0.200000X0.275000X-0.200000X0.275000X0*%
%TD*%
%TA.AperFunction,SMDPad,CuDef*%
%ADD37R,1.350000X0.400000*%
%TD*%
%TA.AperFunction,SMDPad,CuDef*%
%ADD38R,1.900000X1.200000*%
%TD*%
%TA.AperFunction,SMDPad,CuDef*%
%ADD39R,1.900000X1.500000*%
%TD*%
%TA.AperFunction,ComponentPad*%
%ADD40C,1.450000*%
%TD*%
%TA.AperFunction,ComponentPad*%
%ADD41O,1.900000X1.200000*%
%TD*%
%TA.AperFunction,SMDPad,CuDef*%
%ADD42RoundRect,0.243750X-0.243750X-0.456250X0.243750X-0.456250X0.243750X0.456250X-0.243750X0.456250X0*%
%TD*%
%TA.AperFunction,SMDPad,CuDef*%
%ADD43RoundRect,0.100000X0.100000X-0.637500X0.100000X0.637500X-0.100000X0.637500X-0.100000X-0.637500X0*%
%TD*%
%TA.AperFunction,SMDPad,CuDef*%
%ADD44RoundRect,0.250000X-0.325000X-0.650000X0.325000X-0.650000X0.325000X0.650000X-0.325000X0.650000X0*%
%TD*%
%TA.AperFunction,SMDPad,CuDef*%
%ADD45R,2.400000X0.740000*%
%TD*%
%TA.AperFunction,SMDPad,CuDef*%
%ADD46RoundRect,0.249999X2.450001X-0.737501X2.450001X0.737501X-2.450001X0.737501X-2.450001X-0.737501X0*%
%TD*%
%TA.AperFunction,SMDPad,CuDef*%
%ADD47RoundRect,0.150000X0.150000X-0.512500X0.150000X0.512500X-0.150000X0.512500X-0.150000X-0.512500X0*%
%TD*%
%TA.AperFunction,ComponentPad*%
%ADD48C,5.300000*%
%TD*%
%TA.AperFunction,ComponentPad*%
%ADD49R,1.600000X1.600000*%
%TD*%
%TA.AperFunction,ComponentPad*%
%ADD50O,1.600000X1.600000*%
%TD*%
%TA.AperFunction,ComponentPad*%
%ADD51C,1.700000*%
%TD*%
%TA.AperFunction,ComponentPad*%
%ADD52C,3.810000*%
%TD*%
%TA.AperFunction,SMDPad,CuDef*%
%ADD53FreePoly0,270.000000*%
%TD*%
%TA.AperFunction,SMDPad,CuDef*%
%ADD54FreePoly1,270.000000*%
%TD*%
%TA.AperFunction,SMDPad,CuDef*%
%ADD55RoundRect,0.218750X-0.218750X-0.256250X0.218750X-0.256250X0.218750X0.256250X-0.218750X0.256250X0*%
%TD*%
%TA.AperFunction,SMDPad,CuDef*%
%ADD56RoundRect,0.249999X0.737501X2.450001X-0.737501X2.450001X-0.737501X-2.450001X0.737501X-2.450001X0*%
%TD*%
%TA.AperFunction,ViaPad*%
%ADD57C,0.508000*%
%TD*%
%TA.AperFunction,Conductor*%
%ADD58C,0.254000*%
%TD*%
%TA.AperFunction,Conductor*%
%ADD59C,0.508000*%
%TD*%
G04 APERTURE END LIST*
D10*
%TO.P,JP2,1,A*%
%TO.N,/SDA_EXT*%
X119380000Y-81300000D03*
D11*
%TO.P,JP2,2,B*%
%TO.N,/Radio_SDA*%
X119380000Y-80000000D03*
%TD*%
D12*
%TO.P,H5,*%
%TO.N,GND*%
X147320000Y-154310000D03*
%TD*%
D13*
%TO.P,R14,1*%
%TO.N,/eFuse/3V3_IN_FILT*%
X95821000Y-84460000D03*
%TO.P,R14,2*%
%TO.N,Net-(R14-Pad2)*%
X94171000Y-84460000D03*
%TD*%
D14*
%TO.P,C18,1*%
%TO.N,+3V3*%
X128270000Y-131051000D03*
%TO.P,C18,2*%
%TO.N,GND*%
X128270000Y-132601000D03*
%TD*%
D15*
%TO.P,U24,1,NC*%
%TO.N,unconnected-(U24-Pad1)*%
X92080500Y-116784000D03*
%TO.P,U24,2,A*%
%TO.N,/STATES_C_Int*%
X92080500Y-117734000D03*
%TO.P,U24,3,GND*%
%TO.N,GND*%
X92080500Y-118684000D03*
%TO.P,U24,4,y*%
%TO.N,/STATES_C*%
X94355500Y-118684000D03*
%TO.P,U24,5,Vcc*%
%TO.N,+3V3*%
X94355500Y-116784000D03*
%TD*%
D16*
%TO.P,H1,1,Pin_1*%
%TO.N,unconnected-(H1-Pad1)*%
X76200000Y-76200000D03*
D17*
%TO.P,H1,2,Pin_2*%
%TO.N,unconnected-(H1-Pad2)*%
X76200000Y-73660000D03*
%TO.P,H1,3,Pin_3*%
%TO.N,GND*%
X78740000Y-76200000D03*
%TO.P,H1,4,Pin_4*%
%TO.N,unconnected-(H1-Pad4)*%
X78740000Y-73650000D03*
%TO.P,H1,5,Pin_5*%
%TO.N,/PAYLOAD_RXD+*%
X81280000Y-76200000D03*
%TO.P,H1,6,Pin_6*%
%TO.N,/PAYLOAD_TXD+*%
X81280000Y-73650000D03*
%TO.P,H1,7,Pin_7*%
%TO.N,/PAYLOAD_RXD-*%
X83820000Y-76200000D03*
%TO.P,H1,8,Pin_8*%
%TO.N,/PAYLOAD_TXD-*%
X83820000Y-73650000D03*
%TO.P,H1,9,Pin_9*%
%TO.N,/RADIO_RXD+*%
X86360000Y-76200000D03*
%TO.P,H1,10,Pin_10*%
%TO.N,/RADIO_TXD+*%
X86360000Y-73650000D03*
%TO.P,H1,11,Pin_11*%
%TO.N,/RADIO_RXD-*%
X88900000Y-76200000D03*
%TO.P,H1,12,Pin_12*%
%TO.N,/RADIO_TXD-*%
X88900000Y-73650000D03*
%TO.P,H1,13,Pin_13*%
%TO.N,GND*%
X91440000Y-76200000D03*
%TO.P,H1,14,Pin_14*%
%TO.N,unconnected-(H1-Pad14)*%
X91440000Y-73650000D03*
%TO.P,H1,15,Pin_15*%
%TO.N,unconnected-(H1-Pad15)*%
X93980000Y-76200000D03*
%TO.P,H1,16,Pin_16*%
%TO.N,unconnected-(H1-Pad16)*%
X93980000Y-73650000D03*
%TO.P,H1,17,Pin_17*%
%TO.N,unconnected-(H1-Pad17)*%
X96520000Y-76200000D03*
%TO.P,H1,18,Pin_18*%
%TO.N,unconnected-(H1-Pad18)*%
X96520000Y-73650000D03*
%TO.P,H1,19,Pin_19*%
%TO.N,unconnected-(H1-Pad19)*%
X99060000Y-76200000D03*
%TO.P,H1,20,Pin_20*%
%TO.N,unconnected-(H1-Pad20)*%
X99060000Y-73650000D03*
%TO.P,H1,21,Pin_21*%
%TO.N,unconnected-(H1-Pad21)*%
X101600000Y-76200000D03*
%TO.P,H1,22,Pin_22*%
%TO.N,unconnected-(H1-Pad22)*%
X101600000Y-73650000D03*
%TO.P,H1,23,Pin_23*%
%TO.N,unconnected-(H1-Pad23)*%
X104140000Y-76200000D03*
%TO.P,H1,24,Pin_24*%
%TO.N,unconnected-(H1-Pad24)*%
X104140000Y-73650000D03*
%TO.P,H1,25,Pin_25*%
%TO.N,unconnected-(H1-Pad25)*%
X106680000Y-76200000D03*
%TO.P,H1,26,Pin_26*%
%TO.N,unconnected-(H1-Pad26)*%
X106680000Y-73650000D03*
%TO.P,H1,27,Pin_27*%
%TO.N,unconnected-(H1-Pad27)*%
X109220000Y-76200000D03*
%TO.P,H1,28,Pin_28*%
%TO.N,/EPS_RESET*%
X109220000Y-73650000D03*
%TO.P,H1,29,Pin_29*%
%TO.N,unconnected-(H1-Pad29)*%
X111760000Y-76200000D03*
%TO.P,H1,30,Pin_30*%
%TO.N,/V_RTC*%
X111760000Y-73650000D03*
%TO.P,H1,31,Pin_31*%
%TO.N,unconnected-(H1-Pad31)*%
X114300000Y-76200000D03*
%TO.P,H1,32,Pin_32*%
%TO.N,/EPS_5V_USB*%
X114300000Y-73650000D03*
%TO.P,H1,33,Pin_33*%
%TO.N,unconnected-(H1-Pad33)*%
X116840000Y-76200000D03*
%TO.P,H1,34,Pin_34*%
%TO.N,unconnected-(H1-Pad34)*%
X116840000Y-73650000D03*
%TO.P,H1,35,Pin_35*%
%TO.N,unconnected-(H1-Pad35)*%
X119380000Y-76200000D03*
%TO.P,H1,36,Pin_36*%
%TO.N,unconnected-(H1-Pad36)*%
X119380000Y-73650000D03*
%TO.P,H1,37,Pin_37*%
%TO.N,/Radio_SDA*%
X121920000Y-76200000D03*
%TO.P,H1,38,Pin_38*%
%TO.N,GND*%
X121920000Y-73650000D03*
%TO.P,H1,39,Pin_39*%
%TO.N,/Radio_SCLK*%
X124460000Y-76200000D03*
%TO.P,H1,40,Pin_40*%
%TO.N,unconnected-(H1-Pad40)*%
X124460000Y-73650000D03*
%TO.P,H1,41,Pin_41*%
%TO.N,/Power_SDA*%
X127000000Y-76200000D03*
%TO.P,H1,42,Pin_42*%
%TO.N,GND*%
X127000000Y-73650000D03*
%TO.P,H1,43,Pin_43*%
%TO.N,/Power_SCLK*%
X129540000Y-76200000D03*
%TO.P,H1,44,Pin_44*%
%TO.N,unconnected-(H1-Pad44)*%
X129540000Y-73650000D03*
%TO.P,H1,45,Pin_45*%
%TO.N,/PLD_SDA*%
X132080000Y-76200000D03*
%TO.P,H1,46,Pin_46*%
%TO.N,GND*%
X132080000Y-73650000D03*
%TO.P,H1,47,Pin_47*%
%TO.N,/PLD_SCLK*%
X134620000Y-76200000D03*
%TO.P,H1,48,Pin_48*%
%TO.N,unconnected-(H1-Pad48)*%
X134620000Y-73650000D03*
%TO.P,H1,49,Pin_49*%
%TO.N,unconnected-(H1-Pad49)*%
X137160000Y-76200000D03*
%TO.P,H1,50,Pin_50*%
%TO.N,GND*%
X137160000Y-73650000D03*
%TO.P,H1,51,Pin_51*%
%TO.N,unconnected-(H1-Pad51)*%
X139700000Y-76200000D03*
%TO.P,H1,52,Pin_52*%
%TO.N,unconnected-(H1-Pad52)*%
X139700000Y-73650000D03*
%TD*%
D18*
%TO.P,U13,1,NC*%
%TO.N,unconnected-(U13-Pad1)*%
X83378000Y-113782000D03*
%TO.P,U13,2,A*%
%TO.N,/STATES_B_Int*%
X83378000Y-114432000D03*
%TO.P,U13,3,GND*%
%TO.N,GND*%
X83378000Y-115082000D03*
%TO.P,U13,4,y*%
%TO.N,/STATES_B*%
X85278000Y-115082000D03*
%TO.P,U13,5,Vcc*%
%TO.N,+3V3*%
X85278000Y-113782000D03*
%TD*%
D13*
%TO.P,R7,1*%
%TO.N,Net-(R7-Pad1)*%
X103187000Y-132212000D03*
%TO.P,R7,2*%
%TO.N,GND*%
X101537000Y-132212000D03*
%TD*%
D19*
%TO.P,D1,1,K*%
%TO.N,/PAYLOAD_RXD*%
X71120000Y-144150000D03*
D20*
%TO.P,D1,2,A*%
%TO.N,Net-(D1-Pad2)*%
X71120000Y-146690000D03*
%TD*%
D13*
%TO.P,R11,1*%
%TO.N,+3V3*%
X137731000Y-145288000D03*
%TO.P,R11,2*%
%TO.N,/SCL_CRIT*%
X136081000Y-145288000D03*
%TD*%
D21*
%TO.P,Y1,1,1*%
%TO.N,Net-(U3-Pad1)*%
X123952000Y-141630000D03*
%TO.P,Y1,2,2*%
%TO.N,Net-(U3-Pad2)*%
X123952000Y-144130000D03*
%TD*%
D22*
%TO.P,R23,1*%
%TO.N,Net-(C13-Pad1)*%
X129540000Y-116141000D03*
%TO.P,R23,2*%
%TO.N,/~{RESET}*%
X129540000Y-114491000D03*
%TD*%
D23*
%TO.P,TP6,1,1*%
%TO.N,/GPIO13*%
X81026000Y-156850000D03*
%TD*%
D15*
%TO.P,U7,1,EN*%
%TO.N,Net-(R14-Pad2)*%
X83698500Y-81732000D03*
%TO.P,U7,2,GND*%
%TO.N,GND*%
X83698500Y-82682000D03*
%TO.P,U7,3,IN2*%
%TO.N,/3V3_USB*%
X83698500Y-83632000D03*
%TO.P,U7,4,OUT*%
%TO.N,+3V3*%
X85973500Y-83632000D03*
%TO.P,U7,5,IN1*%
%TO.N,Net-(C7-Pad1)*%
X85973500Y-81732000D03*
%TD*%
D18*
%TO.P,U21,1,NC*%
%TO.N,unconnected-(U21-Pad1)*%
X92268000Y-104638000D03*
%TO.P,U21,2,A*%
%TO.N,/STATES_A_Int*%
X92268000Y-105288000D03*
%TO.P,U21,3,GND*%
%TO.N,GND*%
X92268000Y-105938000D03*
%TO.P,U21,4,y*%
%TO.N,/STATES_A*%
X94168000Y-105938000D03*
%TO.P,U21,5,Vcc*%
%TO.N,+3V3*%
X94168000Y-104638000D03*
%TD*%
D24*
%TO.P,U9,1,PA00*%
%TO.N,/Microcontroller/X1*%
X124869500Y-121588000D03*
%TO.P,U9,2,PA01*%
%TO.N,/Microcontroller/X2*%
X124869500Y-122088000D03*
%TO.P,U9,3,PA02*%
%TO.N,/GPIO_A*%
X124869500Y-122588000D03*
%TO.P,U9,4,PA03*%
%TO.N,/Microcontroller/AREF*%
X124869500Y-123088000D03*
%TO.P,U9,5,GNDANA*%
%TO.N,GND*%
X124869500Y-123588000D03*
%TO.P,U9,6,VDDANA*%
%TO.N,Net-(C15-Pad1)*%
X124869500Y-124088000D03*
%TO.P,U9,7,PB08*%
%TO.N,/GPIO13*%
X124869500Y-124588000D03*
%TO.P,U9,8,PB09*%
%TO.N,/GPIO12*%
X124869500Y-125088000D03*
%TO.P,U9,9,PA04*%
%TO.N,/PLD_ON_A_Int*%
X124869500Y-125588000D03*
%TO.P,U9,10,PA05*%
%TO.N,/PLD_ON_B_Int*%
X124869500Y-126088000D03*
%TO.P,U9,11,PA06*%
%TO.N,/PLD_ON_C_Int*%
X124869500Y-126588000D03*
%TO.P,U9,12,PA07*%
%TO.N,/STATES_A_Int*%
X124869500Y-127088000D03*
D25*
%TO.P,U9,13,PA08*%
%TO.N,/SDA_NON_CRIT*%
X126282000Y-128500500D03*
%TO.P,U9,14,PA09*%
%TO.N,/SCL_NON_CRIT*%
X126782000Y-128500500D03*
%TO.P,U9,15,PA10*%
%TO.N,/PAYLOAD_TXD*%
X127282000Y-128500500D03*
%TO.P,U9,16,PA11*%
%TO.N,/PAYLOAD_RXD*%
X127782000Y-128500500D03*
%TO.P,U9,17,VDDIO*%
%TO.N,+3V3*%
X128282000Y-128500500D03*
%TO.P,U9,18,GND*%
%TO.N,GND*%
X128782000Y-128500500D03*
%TO.P,U9,19,PB10*%
%TO.N,/MOSI*%
X129282000Y-128500500D03*
%TO.P,U9,20,PB11*%
%TO.N,/SCK*%
X129782000Y-128500500D03*
%TO.P,U9,21,PA12*%
%TO.N,/MISO*%
X130282000Y-128500500D03*
%TO.P,U9,22,PA13*%
%TO.N,/EN_PAYLOAD_SERIAL*%
X130782000Y-128500500D03*
%TO.P,U9,23,PA14*%
%TO.N,/STATES_B_Int*%
X131282000Y-128500500D03*
%TO.P,U9,24,PA15*%
%TO.N,/STATES_C_Int*%
X131782000Y-128500500D03*
D24*
%TO.P,U9,25,PA16*%
%TO.N,/RADIO_TXD*%
X133194500Y-127088000D03*
%TO.P,U9,26,PA17*%
%TO.N,/RADIO_RXD*%
X133194500Y-126588000D03*
%TO.P,U9,27,PA18*%
%TO.N,/EN_RADIO_SERIAL*%
X133194500Y-126088000D03*
%TO.P,U9,28,PA19*%
%TO.N,/EN_EXT_I2C*%
X133194500Y-125588000D03*
%TO.P,U9,29,PA20*%
%TO.N,/TXD2*%
X133194500Y-125088000D03*
%TO.P,U9,30,PA21*%
%TO.N,/RXD2*%
X133194500Y-124588000D03*
%TO.P,U9,31,PA22*%
%TO.N,/SDA_CRIT*%
X133194500Y-124088000D03*
%TO.P,U9,32,PA23*%
%TO.N,/SCL_CRIT*%
X133194500Y-123588000D03*
%TO.P,U9,33,PA24*%
%TO.N,/Microcontroller/USB_D-*%
X133194500Y-123088000D03*
%TO.P,U9,34,PA25*%
%TO.N,/Microcontroller/USB_D+*%
X133194500Y-122588000D03*
%TO.P,U9,35,GND*%
%TO.N,GND*%
X133194500Y-122088000D03*
%TO.P,U9,36,VDDIO*%
%TO.N,+3V3*%
X133194500Y-121588000D03*
D25*
%TO.P,U9,37,PB22*%
%TO.N,/SHUTDOWN_C*%
X131782000Y-120175500D03*
%TO.P,U9,38,PB23*%
%TO.N,/WDTICK*%
X131282000Y-120175500D03*
%TO.P,U9,39,PA27*%
%TO.N,/Microcontroller/TXLED*%
X130782000Y-120175500D03*
%TO.P,U9,40,~{RESET}*%
%TO.N,Net-(C13-Pad1)*%
X130282000Y-120175500D03*
%TO.P,U9,41,PA28*%
%TO.N,/Microcontroller/USB_HOST_EN*%
X129782000Y-120175500D03*
%TO.P,U9,42,GND*%
%TO.N,GND*%
X129282000Y-120175500D03*
%TO.P,U9,43,VDDCORE*%
%TO.N,Net-(C14-Pad1)*%
X128782000Y-120175500D03*
%TO.P,U9,44,VDDIN*%
%TO.N,+3V3*%
X128282000Y-120175500D03*
%TO.P,U9,45,PA30*%
%TO.N,/Microcontroller/SWCLK*%
X127782000Y-120175500D03*
%TO.P,U9,46,PA31*%
%TO.N,/Microcontroller/RX_LED_SWDIO*%
X127282000Y-120175500D03*
%TO.P,U9,47,PB02*%
%TO.N,/SHUTDOWN_A*%
X126782000Y-120175500D03*
%TO.P,U9,48,PB03*%
%TO.N,/SHUTDOWN_B*%
X126282000Y-120175500D03*
%TD*%
D23*
%TO.P,TP12,1,1*%
%TO.N,+3V3*%
X83820000Y-136398000D03*
%TD*%
D13*
%TO.P,R18,1*%
%TO.N,+3V3*%
X76200000Y-141610000D03*
%TO.P,R18,2*%
%TO.N,Net-(D2-Pad2)*%
X74550000Y-141610000D03*
%TD*%
D26*
%TO.P,U3,1,X1*%
%TO.N,Net-(U3-Pad1)*%
X128016000Y-142499000D03*
%TO.P,U3,2,X2*%
%TO.N,Net-(U3-Pad2)*%
X128016000Y-143769000D03*
%TO.P,U3,3,VBAT*%
%TO.N,Net-(U3-Pad3)*%
X128016000Y-145039000D03*
%TO.P,U3,4,GND*%
%TO.N,GND*%
X128016000Y-146309000D03*
%TO.P,U3,5,SDA*%
%TO.N,/SDA_CRIT*%
X132966000Y-146309000D03*
%TO.P,U3,6,SCL*%
%TO.N,/SCL_CRIT*%
X132966000Y-145039000D03*
%TO.P,U3,7,SQW/OUT*%
%TO.N,Net-(R12-Pad2)*%
X132966000Y-143769000D03*
%TO.P,U3,8,VCC*%
%TO.N,+3V3*%
X132966000Y-142499000D03*
%TD*%
D18*
%TO.P,U19,1,NC*%
%TO.N,unconnected-(U19-Pad1)*%
X92268000Y-95494000D03*
%TO.P,U19,2,A*%
%TO.N,/PLD_ON_B_Int*%
X92268000Y-96144000D03*
%TO.P,U19,3,GND*%
%TO.N,GND*%
X92268000Y-96794000D03*
%TO.P,U19,4,y*%
%TO.N,/PAYLOAD_ON_B*%
X94168000Y-96794000D03*
%TO.P,U19,5,Vcc*%
%TO.N,+3V3*%
X94168000Y-95494000D03*
%TD*%
D13*
%TO.P,R15,1*%
%TO.N,/eFuse/3V3_IN_FILT*%
X95821000Y-80650000D03*
%TO.P,R15,2*%
%TO.N,Net-(R15-Pad2)*%
X94171000Y-80650000D03*
%TD*%
D23*
%TO.P,TP14,1,1*%
%TO.N,/Microcontroller/X2*%
X102616000Y-121666000D03*
%TD*%
D12*
%TO.P,H3,*%
%TO.N,GND*%
X71120000Y-68580000D03*
%TD*%
D27*
%TO.P,C21,1*%
%TO.N,+3V3*%
X137922000Y-122065000D03*
%TO.P,C21,2*%
%TO.N,GND*%
X137922000Y-120515000D03*
%TD*%
D23*
%TO.P,TP5,1,1*%
%TO.N,/RXD2*%
X81026000Y-153548000D03*
%TD*%
D28*
%TO.P,C31,1*%
%TO.N,GND*%
X97295000Y-113670000D03*
%TO.P,C31,2*%
%TO.N,+3V3*%
X95745000Y-113670000D03*
%TD*%
D16*
%TO.P,J1,1,Pin_1*%
%TO.N,+3V3*%
X147320000Y-108590000D03*
D17*
%TO.P,J1,2,Pin_2*%
%TO.N,/SDA_NON_CRIT*%
X147320000Y-111130000D03*
%TO.P,J1,3,Pin_3*%
%TO.N,/SCL_NON_CRIT*%
X147320000Y-113670000D03*
%TO.P,J1,4,Pin_4*%
%TO.N,/PLD_ON_A_Int*%
X147320000Y-116210000D03*
%TO.P,J1,5,Pin_5*%
%TO.N,/STATES_A_Int*%
X147320000Y-118750000D03*
%TO.P,J1,6,Pin_6*%
%TO.N,/SHUTDOWN_A*%
X147320000Y-121290000D03*
%TO.P,J1,7,Pin_7*%
%TO.N,/GPIO_A*%
X147320000Y-123830000D03*
%TO.P,J1,8,Pin_8*%
%TO.N,GND*%
X147320000Y-126370000D03*
%TD*%
D13*
%TO.P,R4,1*%
%TO.N,/GPIO12*%
X120459000Y-126492000D03*
%TO.P,R4,2*%
%TO.N,+3V3*%
X118809000Y-126492000D03*
%TD*%
D23*
%TO.P,TP15,1,1*%
%TO.N,/Microcontroller/AREF*%
X111760000Y-122682000D03*
%TD*%
D29*
%TO.P,L1,1,1*%
%TO.N,/3V3_IN*%
X109499500Y-80650000D03*
%TO.P,L1,2,2*%
%TO.N,/eFuse/3V3_IN_FILT*%
X107924500Y-80650000D03*
%TD*%
D23*
%TO.P,TP8,1,1*%
%TO.N,/V_RTC*%
X87884000Y-143642000D03*
%TD*%
D13*
%TO.P,R5,1*%
%TO.N,Net-(R5-Pad1)*%
X103187000Y-129164000D03*
%TO.P,R5,2*%
%TO.N,GND*%
X101537000Y-129164000D03*
%TD*%
D14*
%TO.P,C25,1*%
%TO.N,Net-(C25-Pad1)*%
X132080000Y-99941000D03*
%TO.P,C25,2*%
%TO.N,/RADIO_RXD-*%
X132080000Y-101491000D03*
%TD*%
D13*
%TO.P,R27,1*%
%TO.N,Net-(R27-Pad1)*%
X119189000Y-89794000D03*
%TO.P,R27,2*%
%TO.N,GND*%
X117539000Y-89794000D03*
%TD*%
D12*
%TO.P,H6,*%
%TO.N,GND*%
X67310000Y-154305000D03*
%TD*%
D30*
%TO.P,U1,1,A0*%
%TO.N,Net-(R5-Pad1)*%
X105112000Y-129291000D03*
%TO.P,U1,2,A1*%
%TO.N,Net-(R6-Pad1)*%
X105112000Y-130561000D03*
%TO.P,U1,3,A2*%
%TO.N,Net-(R7-Pad1)*%
X105112000Y-131831000D03*
%TO.P,U1,4,Vss*%
%TO.N,GND*%
X105112000Y-133101000D03*
%TO.P,U1,5,SDA*%
%TO.N,/SDA_NON_CRIT*%
X112312000Y-133101000D03*
%TO.P,U1,6,SCL*%
%TO.N,/SCL_NON_CRIT*%
X112312000Y-131831000D03*
%TO.P,U1,7,WP*%
%TO.N,GND*%
X112312000Y-130561000D03*
%TO.P,U1,8,Vdd*%
%TO.N,+3V3*%
X112312000Y-129291000D03*
%TD*%
D22*
%TO.P,R2,1*%
%TO.N,/SHUTDOWN_B*%
X124968000Y-116141000D03*
%TO.P,R2,2*%
%TO.N,+3V3*%
X124968000Y-114491000D03*
%TD*%
D26*
%TO.P,U12,1,NC*%
%TO.N,unconnected-(U12-Pad1)*%
X121223000Y-97414000D03*
%TO.P,U12,2,R*%
%TO.N,/RADIO_RXD*%
X121223000Y-98684000D03*
%TO.P,U12,3,RE*%
%TO.N,Net-(R28-Pad1)*%
X121223000Y-99954000D03*
%TO.P,U12,4,DE*%
%TO.N,/EN_RADIO_SERIAL*%
X121223000Y-101224000D03*
%TO.P,U12,5,D*%
%TO.N,/RADIO_TXD*%
X121223000Y-102494000D03*
%TO.P,U12,6,GND*%
%TO.N,GND*%
X121223000Y-103764000D03*
%TO.P,U12,7,GND*%
X121223000Y-105034000D03*
%TO.P,U12,8,NC*%
%TO.N,unconnected-(U12-Pad8)*%
X126173000Y-105034000D03*
%TO.P,U12,9,Y*%
%TO.N,/RADIO_TXD+*%
X126173000Y-103764000D03*
%TO.P,U12,10,Z*%
%TO.N,/RADIO_TXD-*%
X126173000Y-102494000D03*
%TO.P,U12,11,B*%
%TO.N,/RADIO_RXD-*%
X126173000Y-101224000D03*
%TO.P,U12,12,A*%
%TO.N,/RADIO_RXD+*%
X126173000Y-99954000D03*
%TO.P,U12,13,Vcc*%
%TO.N,+3V3*%
X126173000Y-98684000D03*
%TO.P,U12,14,Vcc*%
X126173000Y-97414000D03*
%TD*%
D23*
%TO.P,TP2,1,1*%
%TO.N,/MISO*%
X81026000Y-143642000D03*
%TD*%
%TO.P,TP3,1,1*%
%TO.N,/SCK*%
X81026000Y-146944000D03*
%TD*%
D14*
%TO.P,C7,1*%
%TO.N,Net-(C7-Pad1)*%
X91440000Y-86720000D03*
%TO.P,C7,2*%
%TO.N,GND*%
X91440000Y-88270000D03*
%TD*%
D19*
%TO.P,D4,1,K*%
%TO.N,/RADIO_TXD*%
X71120000Y-128910000D03*
D20*
%TO.P,D4,2,A*%
%TO.N,Net-(D4-Pad2)*%
X71120000Y-131450000D03*
%TD*%
D31*
%TO.P,C1,1*%
%TO.N,GND*%
X110985000Y-127508000D03*
%TO.P,C1,2*%
%TO.N,+3V3*%
X112535000Y-127508000D03*
%TD*%
D32*
%TO.P,C14,1*%
%TO.N,Net-(C14-Pad1)*%
X103075000Y-88270000D03*
%TO.P,C14,2*%
%TO.N,GND*%
X100125000Y-88270000D03*
%TD*%
D14*
%TO.P,C8,1*%
%TO.N,Net-(C7-Pad1)*%
X89662000Y-86733000D03*
%TO.P,C8,2*%
%TO.N,GND*%
X89662000Y-88283000D03*
%TD*%
D33*
%TO.P,U8,1,GND*%
%TO.N,GND*%
X73050000Y-83806000D03*
D34*
%TO.P,U8,2,VO*%
%TO.N,/3V3_USB*%
X79350000Y-86106000D03*
D33*
X73050000Y-86106000D03*
%TO.P,U8,3,VI*%
%TO.N,+5V*%
X73050000Y-88406000D03*
%TD*%
D13*
%TO.P,R17,1*%
%TO.N,+3V3*%
X76200000Y-146690000D03*
%TO.P,R17,2*%
%TO.N,Net-(D1-Pad2)*%
X74550000Y-146690000D03*
%TD*%
D35*
%TO.P,R19,1*%
%TO.N,Net-(C10-Pad1)*%
X66040000Y-102685000D03*
%TO.P,R19,2*%
%TO.N,GND*%
X66040000Y-104335000D03*
%TD*%
D36*
%TO.P,R22,1*%
%TO.N,Net-(D5-Pad2)*%
X74550000Y-126370000D03*
%TO.P,R22,2*%
%TO.N,/Microcontroller/TXLED*%
X76200000Y-126370000D03*
%TD*%
D13*
%TO.P,R13,1*%
%TO.N,/eFuse/3V3_IN_FILT*%
X95821000Y-82428000D03*
%TO.P,R13,2*%
%TO.N,/eFuse/~SHUTDOWN*%
X94171000Y-82428000D03*
%TD*%
D15*
%TO.P,U18,1,NC*%
%TO.N,/PLD_ON_C_Int*%
X83190500Y-107640000D03*
%TO.P,U18,2,A*%
%TO.N,unconnected-(U18-Pad2)*%
X83190500Y-108590000D03*
%TO.P,U18,3,GND*%
%TO.N,GND*%
X83190500Y-109540000D03*
%TO.P,U18,4,y*%
%TO.N,/PAYLOAD_ON_C*%
X85465500Y-109540000D03*
%TO.P,U18,5,Vcc*%
%TO.N,+3V3*%
X85465500Y-107640000D03*
%TD*%
D26*
%TO.P,U11,1,NC*%
%TO.N,unconnected-(U11-Pad1)*%
X121223000Y-87254000D03*
%TO.P,U11,2,R*%
%TO.N,/PAYLOAD_RXD*%
X121223000Y-88524000D03*
%TO.P,U11,3,RE*%
%TO.N,Net-(R27-Pad1)*%
X121223000Y-89794000D03*
%TO.P,U11,4,DE*%
%TO.N,/EN_PAYLOAD_SERIAL*%
X121223000Y-91064000D03*
%TO.P,U11,5,D*%
%TO.N,/PAYLOAD_TXD*%
X121223000Y-92334000D03*
%TO.P,U11,6,GND*%
%TO.N,GND*%
X121223000Y-93604000D03*
%TO.P,U11,7,GND*%
X121223000Y-94874000D03*
%TO.P,U11,8,NC*%
%TO.N,unconnected-(U11-Pad8)*%
X126173000Y-94874000D03*
%TO.P,U11,9,Y*%
%TO.N,/PAYLOAD_TXD+*%
X126173000Y-93604000D03*
%TO.P,U11,10,Z*%
%TO.N,/PAYLOAD_TXD-*%
X126173000Y-92334000D03*
%TO.P,U11,11,B*%
%TO.N,/PAYLOAD_RXD-*%
X126173000Y-91064000D03*
%TO.P,U11,12,A*%
%TO.N,/PAYLOAD_RXD+*%
X126173000Y-89794000D03*
%TO.P,U11,13,Vcc*%
%TO.N,+3V3*%
X126173000Y-88524000D03*
%TO.P,U11,14,Vcc*%
X126173000Y-87254000D03*
%TD*%
D37*
%TO.P,J2,1,VBUS*%
%TO.N,Net-(F1-Pad1)*%
X66479400Y-94590000D03*
%TO.P,J2,2,D-*%
%TO.N,/Microcontroller/USB_D-*%
X66479400Y-95240000D03*
%TO.P,J2,3,D+*%
%TO.N,/Microcontroller/USB_D+*%
X66479400Y-95890000D03*
%TO.P,J2,4,ID*%
%TO.N,/Microcontroller/USB_HOST_EN*%
X66479400Y-96540000D03*
%TO.P,J2,5,GND*%
%TO.N,GND*%
X66479400Y-97190000D03*
D38*
%TO.P,J2,6,Shield*%
%TO.N,Net-(C10-Pad1)*%
X63779400Y-92990000D03*
X63779400Y-98790000D03*
D39*
X63779400Y-96890000D03*
D40*
X66479400Y-93390000D03*
X66479400Y-98390000D03*
D41*
X63779400Y-92390000D03*
X63779400Y-99390000D03*
D39*
X63779400Y-94890000D03*
%TD*%
D14*
%TO.P,C10,1*%
%TO.N,Net-(C10-Pad1)*%
X67564000Y-102730000D03*
%TO.P,C10,2*%
%TO.N,GND*%
X67564000Y-104280000D03*
%TD*%
%TO.P,C9,1*%
%TO.N,+3V3*%
X86106000Y-86733000D03*
%TO.P,C9,2*%
%TO.N,GND*%
X86106000Y-88283000D03*
%TD*%
D31*
%TO.P,C23,1*%
%TO.N,+3V3*%
X128257000Y-97414000D03*
%TO.P,C23,2*%
%TO.N,GND*%
X129807000Y-97414000D03*
%TD*%
D23*
%TO.P,TP13,1,1*%
%TO.N,/Microcontroller/X1*%
X122682000Y-109982000D03*
%TD*%
D19*
%TO.P,D2,1,K*%
%TO.N,/RADIO_RXD*%
X71120000Y-139070000D03*
D20*
%TO.P,D2,2,A*%
%TO.N,Net-(D2-Pad2)*%
X71120000Y-141610000D03*
%TD*%
D28*
%TO.P,C30,1*%
%TO.N,GND*%
X97295000Y-104526000D03*
%TO.P,C30,2*%
%TO.N,+3V3*%
X95745000Y-104526000D03*
%TD*%
D42*
%TO.P,F1,1*%
%TO.N,Net-(F1-Pad1)*%
X70182500Y-93350000D03*
%TO.P,F1,2*%
%TO.N,+5V*%
X72057500Y-93350000D03*
%TD*%
D31*
%TO.P,C22,1*%
%TO.N,+3V3*%
X128257000Y-87254000D03*
%TO.P,C22,2*%
%TO.N,GND*%
X129807000Y-87254000D03*
%TD*%
D23*
%TO.P,TP1,1,1*%
%TO.N,/MOSI*%
X81026000Y-140340000D03*
%TD*%
D13*
%TO.P,R9,1*%
%TO.N,/SCL_NON_CRIT*%
X106997000Y-136276000D03*
%TO.P,R9,2*%
%TO.N,+3V3*%
X105347000Y-136276000D03*
%TD*%
D18*
%TO.P,U15,1,NC*%
%TO.N,unconnected-(U15-Pad1)*%
X83378000Y-95494000D03*
%TO.P,U15,2,A*%
%TO.N,/PLD_ON_A_Int*%
X83378000Y-96144000D03*
%TO.P,U15,3,GND*%
%TO.N,GND*%
X83378000Y-96794000D03*
%TO.P,U15,4,y*%
%TO.N,/PAYLOAD_ON_A*%
X85278000Y-96794000D03*
%TO.P,U15,5,Vcc*%
%TO.N,+3V3*%
X85278000Y-95494000D03*
%TD*%
D27*
%TO.P,C19,1*%
%TO.N,+3V3*%
X135382000Y-121425000D03*
%TO.P,C19,2*%
%TO.N,GND*%
X135382000Y-119875000D03*
%TD*%
D35*
%TO.P,R16,1*%
%TO.N,Net-(C7-Pad1)*%
X88138000Y-86683000D03*
%TO.P,R16,2*%
%TO.N,GND*%
X88138000Y-88333000D03*
%TD*%
D43*
%TO.P,U10,1,1OE*%
%TO.N,/EN_EXT_I2C*%
X138725000Y-129994500D03*
%TO.P,U10,2,1A*%
%TO.N,/SDA_NON_CRIT*%
X139375000Y-129994500D03*
%TO.P,U10,3,1B*%
%TO.N,/SDA_EXT*%
X140025000Y-129994500D03*
%TO.P,U10,4,GND*%
%TO.N,GND*%
X140675000Y-129994500D03*
%TO.P,U10,5,2A*%
%TO.N,/SCL_NON_CRIT*%
X140675000Y-124269500D03*
%TO.P,U10,6,2B*%
%TO.N,/SCL_EXT*%
X140025000Y-124269500D03*
%TO.P,U10,7,2OE*%
%TO.N,/EN_EXT_I2C*%
X139375000Y-124269500D03*
%TO.P,U10,8,Vcc*%
%TO.N,+3V3*%
X138725000Y-124269500D03*
%TD*%
D44*
%TO.P,C16,1*%
%TO.N,GND*%
X117397000Y-120904000D03*
%TO.P,C16,2*%
%TO.N,Net-(C15-Pad1)*%
X120347000Y-120904000D03*
%TD*%
D22*
%TO.P,R1,1*%
%TO.N,/SHUTDOWN_A*%
X126492000Y-116141000D03*
%TO.P,R1,2*%
%TO.N,+3V3*%
X126492000Y-114491000D03*
%TD*%
D35*
%TO.P,R26,1*%
%TO.N,+3V3*%
X139446000Y-120465000D03*
%TO.P,R26,2*%
%TO.N,/EN_EXT_I2C*%
X139446000Y-122115000D03*
%TD*%
D28*
%TO.P,C26,1*%
%TO.N,GND*%
X88405000Y-113670000D03*
%TO.P,C26,2*%
%TO.N,+3V3*%
X86855000Y-113670000D03*
%TD*%
D31*
%TO.P,C5,1*%
%TO.N,/3V3_IN*%
X111493000Y-80650000D03*
%TO.P,C5,2*%
%TO.N,GND*%
X113043000Y-80650000D03*
%TD*%
D28*
%TO.P,C15,1*%
%TO.N,Net-(C15-Pad1)*%
X120409000Y-122936000D03*
%TO.P,C15,2*%
%TO.N,GND*%
X118859000Y-122936000D03*
%TD*%
D45*
%TO.P,J5,1,Pin_1*%
%TO.N,+3V3*%
X143420000Y-98430000D03*
%TO.P,J5,2,Pin_2*%
%TO.N,/Microcontroller/RX_LED_SWDIO*%
X147320000Y-98430000D03*
%TO.P,J5,3,Pin_3*%
%TO.N,GND*%
X143420000Y-99700000D03*
%TO.P,J5,4,Pin_4*%
%TO.N,/Microcontroller/SWCLK*%
X147320000Y-99700000D03*
%TO.P,J5,5,Pin_5*%
%TO.N,GND*%
X143420000Y-100970000D03*
%TO.P,J5,6,Pin_6*%
%TO.N,unconnected-(J5-Pad6)*%
X147320000Y-100970000D03*
%TO.P,J5,7,Pin_7*%
%TO.N,unconnected-(J5-Pad7)*%
X143420000Y-102240000D03*
%TO.P,J5,8,Pin_8*%
%TO.N,unconnected-(J5-Pad8)*%
X147320000Y-102240000D03*
%TO.P,J5,9,Pin_9*%
%TO.N,unconnected-(J5-Pad9)*%
X143420000Y-103510000D03*
%TO.P,J5,10,Pin_10*%
%TO.N,/~{RESET}*%
X147320000Y-103510000D03*
%TD*%
D15*
%TO.P,U20,1,NC*%
%TO.N,/PLD_ON_B_Int*%
X92080500Y-98496000D03*
%TO.P,U20,2,A*%
%TO.N,unconnected-(U20-Pad2)*%
X92080500Y-99446000D03*
%TO.P,U20,3,GND*%
%TO.N,GND*%
X92080500Y-100396000D03*
%TO.P,U20,4,y*%
%TO.N,/PAYLOAD_ON_B*%
X94355500Y-100396000D03*
%TO.P,U20,5,Vcc*%
%TO.N,+3V3*%
X94355500Y-98496000D03*
%TD*%
D23*
%TO.P,TP7,1,1*%
%TO.N,/EPS_RESET*%
X87884000Y-140340000D03*
%TD*%
%TO.P,TP9,1,1*%
%TO.N,/EPS_5V_USB*%
X87884000Y-146944000D03*
%TD*%
D13*
%TO.P,R10,1*%
%TO.N,+3V3*%
X137731000Y-146812000D03*
%TO.P,R10,2*%
%TO.N,/SDA_CRIT*%
X136081000Y-146812000D03*
%TD*%
%TO.P,R6,1*%
%TO.N,Net-(R6-Pad1)*%
X103187000Y-130688000D03*
%TO.P,R6,2*%
%TO.N,GND*%
X101537000Y-130688000D03*
%TD*%
D18*
%TO.P,U17,1,NC*%
%TO.N,unconnected-(U17-Pad1)*%
X83378000Y-104638000D03*
%TO.P,U17,2,A*%
%TO.N,/PLD_ON_C_Int*%
X83378000Y-105288000D03*
%TO.P,U17,3,GND*%
%TO.N,GND*%
X83378000Y-105938000D03*
%TO.P,U17,4,y*%
%TO.N,/PAYLOAD_ON_C*%
X85278000Y-105938000D03*
%TO.P,U17,5,Vcc*%
%TO.N,+3V3*%
X85278000Y-104638000D03*
%TD*%
D44*
%TO.P,C20,1*%
%TO.N,GND*%
X119429000Y-115062000D03*
%TO.P,C20,2*%
%TO.N,+3V3*%
X122379000Y-115062000D03*
%TD*%
D10*
%TO.P,JP5,1,A*%
%TO.N,/SCL_EXT*%
X129540000Y-81300000D03*
D11*
%TO.P,JP5,2,B*%
%TO.N,/Power_SCLK*%
X129540000Y-80000000D03*
%TD*%
D46*
%TO.P,C12,1*%
%TO.N,/3V3_USB*%
X67818000Y-80869500D03*
%TO.P,C12,2*%
%TO.N,GND*%
X67818000Y-75594500D03*
%TD*%
D19*
%TO.P,D3,1,K*%
%TO.N,/PAYLOAD_TXD*%
X71120000Y-133990000D03*
D20*
%TO.P,D3,2,A*%
%TO.N,Net-(D3-Pad2)*%
X71120000Y-136530000D03*
%TD*%
D14*
%TO.P,C4,1*%
%TO.N,GND*%
X137668000Y-107429000D03*
%TO.P,C4,2*%
%TO.N,+3V3*%
X137668000Y-108979000D03*
%TD*%
D47*
%TO.P,U5,1,WDI*%
%TO.N,/WDTICK*%
X135636000Y-113284000D03*
%TO.P,U5,2,GND*%
%TO.N,GND*%
X136586000Y-113284000D03*
%TO.P,U5,3,WDT*%
%TO.N,+3V3*%
X137536000Y-113284000D03*
%TO.P,U5,4,Vdd*%
X137536000Y-111009000D03*
%TO.P,U5,5,WDR*%
X136586000Y-111009000D03*
%TO.P,U5,6,RESET*%
%TO.N,/Watchdog Timer/~{RESET}*%
X135636000Y-111009000D03*
%TD*%
D13*
%TO.P,R21,1*%
%TO.N,+3V3*%
X76200000Y-131450000D03*
%TO.P,R21,2*%
%TO.N,Net-(D4-Pad2)*%
X74550000Y-131450000D03*
%TD*%
D16*
%TO.P,J3,1,Pin_1*%
%TO.N,GND*%
X147320000Y-131450000D03*
D17*
%TO.P,J3,2,Pin_2*%
%TO.N,/~{RESET}*%
X147320000Y-133990000D03*
%TD*%
D10*
%TO.P,JP7,1,A*%
%TO.N,/SCL_EXT*%
X134620000Y-81300000D03*
D11*
%TO.P,JP7,2,B*%
%TO.N,/PLD_SCLK*%
X134620000Y-80000000D03*
%TD*%
D14*
%TO.P,C24,1*%
%TO.N,Net-(C24-Pad1)*%
X132080000Y-89781000D03*
%TO.P,C24,2*%
%TO.N,/PAYLOAD_RXD-*%
X132080000Y-91331000D03*
%TD*%
D28*
%TO.P,C28,1*%
%TO.N,GND*%
X88405000Y-104526000D03*
%TO.P,C28,2*%
%TO.N,+3V3*%
X86855000Y-104526000D03*
%TD*%
D46*
%TO.P,C11,1*%
%TO.N,+5V*%
X67818000Y-88743500D03*
%TO.P,C11,2*%
%TO.N,GND*%
X67818000Y-83468500D03*
%TD*%
D10*
%TO.P,JP3,1,A*%
%TO.N,/SCL_EXT*%
X121920000Y-81300000D03*
D11*
%TO.P,JP3,2,B*%
%TO.N,/Radio_SCLK*%
X121920000Y-80000000D03*
%TD*%
D13*
%TO.P,R8,1*%
%TO.N,/SDA_NON_CRIT*%
X103949000Y-136276000D03*
%TO.P,R8,2*%
%TO.N,+3V3*%
X102299000Y-136276000D03*
%TD*%
D15*
%TO.P,U22,1,NC*%
%TO.N,unconnected-(U22-Pad1)*%
X92080500Y-107640000D03*
%TO.P,U22,2,A*%
%TO.N,/STATES_A_Int*%
X92080500Y-108590000D03*
%TO.P,U22,3,GND*%
%TO.N,GND*%
X92080500Y-109540000D03*
%TO.P,U22,4,y*%
%TO.N,/STATES_A*%
X94355500Y-109540000D03*
%TO.P,U22,5,Vcc*%
%TO.N,+3V3*%
X94355500Y-107640000D03*
%TD*%
D28*
%TO.P,C2,1*%
%TO.N,GND*%
X137681000Y-142240000D03*
%TO.P,C2,2*%
%TO.N,+3V3*%
X136131000Y-142240000D03*
%TD*%
D35*
%TO.P,R25,1*%
%TO.N,+3V3*%
X138684000Y-100013000D03*
%TO.P,R25,2*%
%TO.N,/Microcontroller/SWCLK*%
X138684000Y-101663000D03*
%TD*%
D23*
%TO.P,TP10,1,1*%
%TO.N,Net-(R12-Pad2)*%
X123952000Y-151892000D03*
%TD*%
D48*
%TO.P,H4,*%
%TO.N,GND*%
X144780000Y-68580000D03*
%TD*%
D15*
%TO.P,U14,1,NC*%
%TO.N,unconnected-(U14-Pad1)*%
X83190500Y-116784000D03*
%TO.P,U14,2,A*%
%TO.N,/STATES_B_Int*%
X83190500Y-117734000D03*
%TO.P,U14,3,GND*%
%TO.N,GND*%
X83190500Y-118684000D03*
%TO.P,U14,4,y*%
%TO.N,/STATES_B*%
X85465500Y-118684000D03*
%TO.P,U14,5,Vcc*%
%TO.N,+3V3*%
X85465500Y-116784000D03*
%TD*%
%TO.P,U16,1,NC*%
%TO.N,unconnected-(U16-Pad1)*%
X83190500Y-98496000D03*
%TO.P,U16,2,A*%
%TO.N,/PLD_ON_A_Int*%
X83190500Y-99446000D03*
%TO.P,U16,3,GND*%
%TO.N,GND*%
X83190500Y-100396000D03*
%TO.P,U16,4,y*%
%TO.N,/PAYLOAD_ON_A*%
X85465500Y-100396000D03*
%TO.P,U16,5,Vcc*%
%TO.N,+3V3*%
X85465500Y-98496000D03*
%TD*%
D10*
%TO.P,JP6,1,A*%
%TO.N,/SDA_EXT*%
X132080000Y-81300000D03*
D11*
%TO.P,JP6,2,B*%
%TO.N,/PLD_SDA*%
X132080000Y-80000000D03*
%TD*%
D35*
%TO.P,R24,1*%
%TO.N,+3V3*%
X131064000Y-114491000D03*
%TO.P,R24,2*%
%TO.N,Net-(C13-Pad1)*%
X131064000Y-116141000D03*
%TD*%
D28*
%TO.P,C27,1*%
%TO.N,GND*%
X88405000Y-95382000D03*
%TO.P,C27,2*%
%TO.N,+3V3*%
X86855000Y-95382000D03*
%TD*%
D13*
%TO.P,R29,1*%
%TO.N,Net-(C24-Pad1)*%
X129857000Y-89794000D03*
%TO.P,R29,2*%
%TO.N,/PAYLOAD_RXD+*%
X128207000Y-89794000D03*
%TD*%
D22*
%TO.P,R3,1*%
%TO.N,/SHUTDOWN_C*%
X134112000Y-116141000D03*
%TO.P,R3,2*%
%TO.N,+3V3*%
X134112000Y-114491000D03*
%TD*%
D23*
%TO.P,TP11,1,1*%
%TO.N,Net-(C7-Pad1)*%
X87884000Y-153548000D03*
%TD*%
D13*
%TO.P,R20,1*%
%TO.N,+3V3*%
X76263000Y-136530000D03*
%TO.P,R20,2*%
%TO.N,Net-(D3-Pad2)*%
X74613000Y-136530000D03*
%TD*%
D18*
%TO.P,U23,1,NC*%
%TO.N,unconnected-(U23-Pad1)*%
X92268000Y-113782000D03*
%TO.P,U23,2,A*%
%TO.N,/STATES_C_Int*%
X92268000Y-114432000D03*
%TO.P,U23,3,GND*%
%TO.N,GND*%
X92268000Y-115082000D03*
%TO.P,U23,4,y*%
%TO.N,/STATES_C*%
X94168000Y-115082000D03*
%TO.P,U23,5,Vcc*%
%TO.N,+3V3*%
X94168000Y-113782000D03*
%TD*%
D13*
%TO.P,R28,1*%
%TO.N,Net-(R28-Pad1)*%
X119189000Y-99954000D03*
%TO.P,R28,2*%
%TO.N,GND*%
X117539000Y-99954000D03*
%TD*%
D49*
%TO.P,U4,1,X1*%
%TO.N,Net-(U3-Pad1)*%
X127518000Y-157094000D03*
D50*
%TO.P,U4,2,X2*%
%TO.N,Net-(U3-Pad2)*%
X130058000Y-157094000D03*
%TO.P,U4,3,VBAT*%
%TO.N,Net-(U3-Pad3)*%
X132598000Y-157094000D03*
%TO.P,U4,4,GND*%
%TO.N,GND*%
X135138000Y-157094000D03*
%TO.P,U4,5,SDA*%
%TO.N,/SDA_CRIT*%
X135138000Y-149474000D03*
%TO.P,U4,6,SCL*%
%TO.N,/SCL_CRIT*%
X132598000Y-149474000D03*
%TO.P,U4,7,SQW/OUT*%
%TO.N,Net-(R12-Pad2)*%
X130058000Y-149474000D03*
%TO.P,U4,8,VCC*%
%TO.N,+3V3*%
X127518000Y-149474000D03*
%TD*%
D18*
%TO.P,U6,1,VOUT*%
%TO.N,Net-(C7-Pad1)*%
X94046000Y-86858000D03*
%TO.P,U6,2,GND*%
%TO.N,GND*%
X94046000Y-87508000D03*
%TO.P,U6,3,FLAGB*%
%TO.N,Net-(R15-Pad2)*%
X94046000Y-88158000D03*
%TO.P,U6,4,ON*%
%TO.N,/eFuse/~SHUTDOWN*%
X95946000Y-88158000D03*
%TO.P,U6,5,VIN*%
%TO.N,/eFuse/3V3_IN_FILT*%
X95946000Y-86858000D03*
%TD*%
D51*
%TO.P,U2,1,VIN*%
%TO.N,+3V3*%
X114141000Y-139673000D03*
%TO.P,U2,2,3Vo*%
%TO.N,unconnected-(U2-Pad2)*%
X111601000Y-139673000D03*
%TO.P,U2,3,GND*%
%TO.N,GND*%
X109061000Y-139673000D03*
%TO.P,U2,4,SCL*%
%TO.N,/SCL_NON_CRIT*%
X106521000Y-139673000D03*
%TO.P,U2,5,SDA*%
%TO.N,/SDA_NON_CRIT*%
X103981000Y-139673000D03*
%TO.P,U2,6,INT*%
%TO.N,unconnected-(U2-Pad6)*%
X101441000Y-139673000D03*
%TO.P,U2,7,NC*%
%TO.N,unconnected-(U2-Pad7)*%
X101441000Y-152373000D03*
%TO.P,U2,8,NC*%
%TO.N,unconnected-(U2-Pad8)*%
X103981000Y-152373000D03*
%TO.P,U2,9,NC*%
%TO.N,unconnected-(U2-Pad9)*%
X106521000Y-152373000D03*
%TO.P,U2,10,NC*%
%TO.N,unconnected-(U2-Pad10)*%
X109061000Y-152373000D03*
%TO.P,U2,11,NC*%
%TO.N,unconnected-(U2-Pad11)*%
X111601000Y-152373000D03*
%TO.P,U2,12,GND*%
%TO.N,GND*%
X114141000Y-152373000D03*
D52*
%TO.P,U2,GND*%
%TO.N,N/C*%
X97631000Y-139673000D03*
X117951000Y-139673000D03*
X117951000Y-152373000D03*
X97631000Y-152373000D03*
%TD*%
D28*
%TO.P,C29,1*%
%TO.N,GND*%
X97295000Y-95382000D03*
%TO.P,C29,2*%
%TO.N,+3V3*%
X95745000Y-95382000D03*
%TD*%
D27*
%TO.P,C13,1*%
%TO.N,Net-(C13-Pad1)*%
X132588000Y-116091000D03*
%TO.P,C13,2*%
%TO.N,GND*%
X132588000Y-114541000D03*
%TD*%
D16*
%TO.P,J4,1,Pin_1*%
%TO.N,/MISO*%
X144780000Y-139070000D03*
D17*
%TO.P,J4,2,Pin_2*%
%TO.N,+5V*%
X147320000Y-139070000D03*
%TO.P,J4,3,Pin_3*%
%TO.N,/SCK*%
X144780000Y-141610000D03*
%TO.P,J4,4,Pin_4*%
%TO.N,/MOSI*%
X147320000Y-141610000D03*
%TO.P,J4,5,Pin_5*%
%TO.N,/~{RESET}*%
X144780000Y-144150000D03*
%TO.P,J4,6,Pin_6*%
%TO.N,GND*%
X147320000Y-144150000D03*
%TD*%
D13*
%TO.P,R30,1*%
%TO.N,Net-(C25-Pad1)*%
X129857000Y-99954000D03*
%TO.P,R30,2*%
%TO.N,/RADIO_RXD+*%
X128207000Y-99954000D03*
%TD*%
D53*
%TO.P,JP1,1,A*%
%TO.N,/Watchdog Timer/~{RESET}*%
X129540000Y-108824000D03*
D54*
%TO.P,JP1,2,B*%
%TO.N,/~{RESET}*%
X129540000Y-110124000D03*
%TD*%
D19*
%TO.P,D5,1,K*%
%TO.N,GND*%
X71120000Y-123830000D03*
D20*
%TO.P,D5,2,A*%
%TO.N,Net-(D5-Pad2)*%
X71120000Y-126370000D03*
%TD*%
D27*
%TO.P,C17,1*%
%TO.N,+3V3*%
X128016000Y-116091000D03*
%TO.P,C17,2*%
%TO.N,GND*%
X128016000Y-114541000D03*
%TD*%
D55*
%TO.P,L2,1*%
%TO.N,+3V3*%
X118846500Y-124714000D03*
%TO.P,L2,2*%
%TO.N,Net-(C15-Pad1)*%
X120421500Y-124714000D03*
%TD*%
D56*
%TO.P,C6,1*%
%TO.N,/eFuse/3V3_IN_FILT*%
X105507500Y-83190000D03*
%TO.P,C6,2*%
%TO.N,GND*%
X100232500Y-83190000D03*
%TD*%
D10*
%TO.P,JP4,1,A*%
%TO.N,/SDA_EXT*%
X127000000Y-81300000D03*
D11*
%TO.P,JP4,2,B*%
%TO.N,/Power_SDA*%
X127000000Y-80000000D03*
%TD*%
D16*
%TO.P,H2,1,Pin_1*%
%TO.N,unconnected-(H2-Pad1)*%
X76200000Y-71120000D03*
D17*
%TO.P,H2,2,Pin_2*%
%TO.N,unconnected-(H2-Pad2)*%
X76200000Y-68580000D03*
%TO.P,H2,3,Pin_3*%
%TO.N,unconnected-(H2-Pad3)*%
X78740000Y-71120000D03*
%TO.P,H2,4,Pin_4*%
%TO.N,unconnected-(H2-Pad4)*%
X78740000Y-68570000D03*
%TO.P,H2,5,Pin_5*%
%TO.N,unconnected-(H2-Pad5)*%
X81280000Y-71120000D03*
%TO.P,H2,6,Pin_6*%
%TO.N,unconnected-(H2-Pad6)*%
X81280000Y-68570000D03*
%TO.P,H2,7,Pin_7*%
%TO.N,unconnected-(H2-Pad7)*%
X83820000Y-71120000D03*
%TO.P,H2,8,Pin_8*%
%TO.N,unconnected-(H2-Pad8)*%
X83820000Y-68570000D03*
%TO.P,H2,9,Pin_9*%
%TO.N,/SHUTDOWN_A*%
X86360000Y-71120000D03*
%TO.P,H2,10,Pin_10*%
%TO.N,/STATES_A*%
X86360000Y-68570000D03*
%TO.P,H2,11,Pin_11*%
%TO.N,/SHUTDOWN_B*%
X88900000Y-71120000D03*
%TO.P,H2,12,Pin_12*%
%TO.N,/STATES_B*%
X88900000Y-68570000D03*
%TO.P,H2,13,Pin_13*%
%TO.N,/SHUTDOWN_C*%
X91440000Y-71120000D03*
%TO.P,H2,14,Pin_14*%
%TO.N,/STATES_C*%
X91440000Y-68570000D03*
%TO.P,H2,15,Pin_15*%
%TO.N,GND*%
X93980000Y-71120000D03*
%TO.P,H2,16,Pin_16*%
%TO.N,/PAYLOAD_ON_A*%
X93980000Y-68570000D03*
%TO.P,H2,17,Pin_17*%
%TO.N,/GPIO12*%
X96520000Y-71120000D03*
%TO.P,H2,18,Pin_18*%
%TO.N,/PAYLOAD_ON_B*%
X96520000Y-68570000D03*
%TO.P,H2,19,Pin_19*%
%TO.N,unconnected-(H2-Pad19)*%
X99060000Y-71120000D03*
%TO.P,H2,20,Pin_20*%
%TO.N,/PAYLOAD_ON_C*%
X99060000Y-68570000D03*
%TO.P,H2,21,Pin_21*%
%TO.N,unconnected-(H2-Pad21)*%
X101600000Y-71120000D03*
%TO.P,H2,22,Pin_22*%
%TO.N,unconnected-(H2-Pad22)*%
X101600000Y-68570000D03*
%TO.P,H2,23,Pin_23*%
%TO.N,unconnected-(H2-Pad23)*%
X104140000Y-71120000D03*
%TO.P,H2,24,Pin_24*%
%TO.N,unconnected-(H2-Pad24)*%
X104140000Y-68570000D03*
%TO.P,H2,25,Pin_25*%
%TO.N,unconnected-(H2-Pad25)*%
X106680000Y-71120000D03*
%TO.P,H2,26,Pin_26*%
%TO.N,unconnected-(H2-Pad26)*%
X106680000Y-68570000D03*
%TO.P,H2,27,Pin_27*%
%TO.N,/3V3_IN*%
X109220000Y-71120000D03*
%TO.P,H2,28,Pin_28*%
X109220000Y-68570000D03*
%TO.P,H2,29,Pin_29*%
%TO.N,GND*%
X111760000Y-71120000D03*
%TO.P,H2,30,Pin_30*%
X111760000Y-68570000D03*
%TO.P,H2,31,Pin_31*%
X114300000Y-71120000D03*
%TO.P,H2,32,Pin_32*%
X114300000Y-68570000D03*
%TO.P,H2,33,Pin_33*%
%TO.N,unconnected-(H2-Pad33)*%
X116840000Y-71120000D03*
%TO.P,H2,34,Pin_34*%
%TO.N,unconnected-(H2-Pad34)*%
X116840000Y-68570000D03*
%TO.P,H2,35,Pin_35*%
%TO.N,unconnected-(H2-Pad35)*%
X119380000Y-71120000D03*
%TO.P,H2,36,Pin_36*%
%TO.N,unconnected-(H2-Pad36)*%
X119380000Y-68570000D03*
%TO.P,H2,37,Pin_37*%
%TO.N,unconnected-(H2-Pad37)*%
X121920000Y-71120000D03*
%TO.P,H2,38,Pin_38*%
%TO.N,unconnected-(H2-Pad38)*%
X121920000Y-68570000D03*
%TO.P,H2,39,Pin_39*%
%TO.N,unconnected-(H2-Pad39)*%
X124460000Y-71120000D03*
%TO.P,H2,40,Pin_40*%
%TO.N,unconnected-(H2-Pad40)*%
X124460000Y-68570000D03*
%TO.P,H2,41,Pin_41*%
%TO.N,unconnected-(H2-Pad41)*%
X127000000Y-71120000D03*
%TO.P,H2,42,Pin_42*%
%TO.N,unconnected-(H2-Pad42)*%
X127000000Y-68570000D03*
%TO.P,H2,43,Pin_43*%
%TO.N,unconnected-(H2-Pad43)*%
X129540000Y-71120000D03*
%TO.P,H2,44,Pin_44*%
%TO.N,unconnected-(H2-Pad44)*%
X129540000Y-68570000D03*
%TO.P,H2,45,Pin_45*%
%TO.N,unconnected-(H2-Pad45)*%
X132080000Y-71120000D03*
%TO.P,H2,46,Pin_46*%
%TO.N,unconnected-(H2-Pad46)*%
X132080000Y-68570000D03*
%TO.P,H2,47,Pin_47*%
%TO.N,unconnected-(H2-Pad47)*%
X134620000Y-71120000D03*
%TO.P,H2,48,Pin_48*%
%TO.N,unconnected-(H2-Pad48)*%
X134620000Y-68570000D03*
%TO.P,H2,49,Pin_49*%
%TO.N,unconnected-(H2-Pad49)*%
X137160000Y-71120000D03*
%TO.P,H2,50,Pin_50*%
%TO.N,unconnected-(H2-Pad50)*%
X137160000Y-68570000D03*
%TO.P,H2,51,Pin_51*%
%TO.N,unconnected-(H2-Pad51)*%
X139700000Y-71120000D03*
%TO.P,H2,52,Pin_52*%
%TO.N,unconnected-(H2-Pad52)*%
X139700000Y-68570000D03*
%TD*%
D32*
%TO.P,C3,1*%
%TO.N,GND*%
X139143000Y-140208000D03*
%TO.P,C3,2*%
%TO.N,+3V3*%
X136193000Y-140208000D03*
%TD*%
D23*
%TO.P,TP4,1,1*%
%TO.N,/TXD2*%
X81026000Y-150246000D03*
%TD*%
D13*
%TO.P,R12,1*%
%TO.N,+3V3*%
X137731000Y-143764000D03*
%TO.P,R12,2*%
%TO.N,Net-(R12-Pad2)*%
X136081000Y-143764000D03*
%TD*%
D57*
%TO.N,/SHUTDOWN_C*%
X134674226Y-117638681D03*
%TO.N,+3V3*%
X134112000Y-120142000D03*
%TO.N,GND*%
X114046000Y-130556000D03*
X114422000Y-80650000D03*
X98298000Y-113670000D03*
X67818000Y-97160000D03*
X91186000Y-96906000D03*
X131064000Y-97155000D03*
X119634000Y-94774000D03*
X132588000Y-113284000D03*
X119534000Y-105034000D03*
X82296000Y-115194000D03*
X136586000Y-114488000D03*
X119380000Y-93504000D03*
X87630000Y-90170000D03*
X89662000Y-89408000D03*
X98298000Y-104526000D03*
X89408000Y-95382000D03*
X116586000Y-89662000D03*
X136398000Y-107442000D03*
X143837500Y-129994500D03*
X67818000Y-73914000D03*
X91186000Y-115194000D03*
X128270000Y-133604000D03*
X90678000Y-109606000D03*
X141478000Y-99822000D03*
X81788000Y-109606000D03*
X139192000Y-141732000D03*
X119380000Y-103918000D03*
X101537000Y-133287000D03*
X109728000Y-127508000D03*
X82296000Y-106050000D03*
X129032000Y-121412000D03*
X135128000Y-155702000D03*
X91186000Y-106050000D03*
X90678000Y-118750000D03*
X73152000Y-82042000D03*
X82296000Y-96906000D03*
X118110000Y-115062000D03*
X128016000Y-113284000D03*
X136652000Y-119888000D03*
X130937000Y-87249000D03*
X129545000Y-146309000D03*
X103378000Y-133350000D03*
X117856000Y-123952000D03*
X89408000Y-113670000D03*
X82296000Y-82682000D03*
X98298000Y-95382000D03*
X91440000Y-89408000D03*
X81788000Y-100462000D03*
X116332000Y-120904000D03*
X90678000Y-100462000D03*
X81788000Y-118750000D03*
X64359500Y-83468500D03*
X92964000Y-87508000D03*
X131994000Y-122088000D03*
X89408000Y-104526000D03*
X141478000Y-101092000D03*
X128778000Y-127254000D03*
X149474000Y-144150000D03*
X116464000Y-99954000D03*
X68834000Y-107066000D03*
X86106000Y-89408000D03*
X126094000Y-123588000D03*
X98806000Y-88270000D03*
%TO.N,+3V3*%
X136144000Y-115824000D03*
X137922000Y-114554000D03*
X139446000Y-119380000D03*
X128270000Y-98552000D03*
X105410000Y-135260000D03*
X102362000Y-135260000D03*
X113538000Y-127508000D03*
X128270000Y-88392000D03*
X134874000Y-141224000D03*
X95745000Y-103365000D03*
X78994000Y-144272000D03*
X86360000Y-136398000D03*
X141610000Y-98430000D03*
X127508000Y-133604000D03*
X139446000Y-98806000D03*
X87376000Y-102616000D03*
X131064000Y-113284000D03*
X134112000Y-147352000D03*
X86868000Y-94234000D03*
X78994000Y-141224000D03*
X85979000Y-112776000D03*
X95758000Y-94234000D03*
X95758000Y-112649000D03*
X78994000Y-136398000D03*
X136652000Y-108966000D03*
X78994000Y-131064000D03*
X86987000Y-86733000D03*
X122428000Y-113284000D03*
X118809000Y-125539000D03*
%TO.N,Net-(C7-Pad1)*%
X88011000Y-82931000D03*
X88265000Y-97663000D03*
X84709000Y-102235000D03*
X89662000Y-153548000D03*
%TO.N,Net-(C14-Pad1)*%
X129032000Y-117094000D03*
X128778000Y-113284000D03*
X116332000Y-112522000D03*
X103632000Y-101600000D03*
X116332000Y-101600000D03*
X103886000Y-90170000D03*
%TO.N,/PAYLOAD_RXD*%
X127762000Y-130048000D03*
X120904000Y-141986000D03*
X118872000Y-88392000D03*
%TO.N,/RADIO_RXD*%
X131318000Y-125730000D03*
X133350000Y-96266000D03*
X136652000Y-126746000D03*
X135890000Y-135636000D03*
%TO.N,/PAYLOAD_TXD*%
X126746000Y-113182400D03*
X127508000Y-127000000D03*
X126238000Y-134112000D03*
X125222000Y-120142000D03*
X127000000Y-130302000D03*
X123888500Y-92900500D03*
%TO.N,/RADIO_TXD*%
X135890000Y-127254000D03*
X93472000Y-122936000D03*
X136906000Y-105664000D03*
X100838000Y-102616000D03*
%TO.N,+5V*%
X76302000Y-90576000D03*
%TO.N,/SDA_NON_CRIT*%
X103886000Y-135260000D03*
X126282000Y-130004000D03*
X143002000Y-132334000D03*
X143764000Y-111506000D03*
X135890000Y-130556000D03*
X125730000Y-133604000D03*
X113792000Y-133228000D03*
%TO.N,/SCL_NON_CRIT*%
X126746000Y-127254000D03*
X144272000Y-116332000D03*
X140716000Y-123190000D03*
X137668000Y-134620000D03*
X124714000Y-131826000D03*
X114300000Y-131958000D03*
X143764000Y-124206000D03*
X106934000Y-135260000D03*
%TO.N,/PLD_ON_A_Int*%
X90932000Y-130556000D03*
X132842000Y-120396000D03*
X100330000Y-130688000D03*
X131064000Y-124714000D03*
X81280000Y-97414000D03*
X116586000Y-127254000D03*
X121539480Y-126364520D03*
X121158000Y-128270000D03*
%TO.N,/STATES_A_Int*%
X141986000Y-122936000D03*
X134874000Y-138938000D03*
X141986000Y-133096000D03*
X124206000Y-137922000D03*
X100330000Y-128656000D03*
X92933020Y-106842980D03*
X135382000Y-133350000D03*
X92456000Y-128524000D03*
X117602000Y-125222000D03*
X123698000Y-129032000D03*
X103886000Y-125222000D03*
X117602000Y-128778000D03*
%TO.N,/SHUTDOWN_A*%
X132080000Y-111506000D03*
X141732000Y-112268000D03*
X131064000Y-107442000D03*
X112395000Y-79248000D03*
X126782000Y-117820000D03*
X125730000Y-107442000D03*
X145542000Y-119634000D03*
X113538000Y-99568000D03*
X141732000Y-119634000D03*
%TO.N,/GPIO_A*%
X132080000Y-122936000D03*
X133604000Y-128016000D03*
X144018000Y-124968000D03*
X143764000Y-127762000D03*
%TO.N,/Microcontroller/USB_D-*%
X69596000Y-94996000D03*
X136642232Y-123654476D03*
%TO.N,/Microcontroller/USB_D+*%
X69596000Y-96139000D03*
X136642232Y-122694476D03*
%TO.N,/Microcontroller/USB_HOST_EN*%
X121666000Y-120650000D03*
X83312000Y-126492000D03*
X68326000Y-96652000D03*
X121666000Y-122174000D03*
%TO.N,/MISO*%
X130302000Y-130048000D03*
X82804000Y-143642000D03*
X129794000Y-136906000D03*
%TO.N,/SCK*%
X130556000Y-132842000D03*
X130556000Y-137668000D03*
X82804000Y-146944000D03*
%TO.N,/MOSI*%
X146050000Y-136906000D03*
X82804000Y-140340000D03*
X129286000Y-133350000D03*
X129032000Y-136144000D03*
%TO.N,/~{RESET}*%
X134112000Y-108204000D03*
X129540000Y-111252000D03*
X133858000Y-110109000D03*
X142494000Y-144018000D03*
X144780000Y-133985000D03*
X129540000Y-113284000D03*
X144780000Y-108204000D03*
%TO.N,/Microcontroller/RX_LED_SWDIO*%
X128778000Y-104902000D03*
X127254000Y-121412000D03*
X128016000Y-108966000D03*
X124460000Y-118364000D03*
X123952000Y-116840000D03*
X124460000Y-108966000D03*
%TO.N,/Microcontroller/SWCLK*%
X141732000Y-101854000D03*
X142240000Y-97536000D03*
X141478000Y-104140000D03*
X127508000Y-117602000D03*
X129540000Y-103886000D03*
%TO.N,Net-(R15-Pad2)*%
X92710000Y-81534000D03*
X92456000Y-88170000D03*
%TO.N,/Microcontroller/TXLED*%
X115316000Y-117094000D03*
X109474000Y-122936000D03*
X130810000Y-117856000D03*
X123190000Y-117094000D03*
%TO.N,Net-(U3-Pad1)*%
X127524320Y-155441970D03*
X126492000Y-142494000D03*
%TO.N,Net-(U3-Pad2)*%
X126492000Y-144780000D03*
X129794000Y-155448000D03*
%TO.N,Net-(U3-Pad3)*%
X131064000Y-145542000D03*
%TO.N,/SDA_CRIT*%
X134874000Y-123698000D03*
%TO.N,/SCL_CRIT*%
X131826000Y-123952000D03*
X131191000Y-143891000D03*
%TO.N,Net-(R12-Pad2)*%
X135128000Y-143764000D03*
X136398000Y-150876000D03*
%TO.N,/Microcontroller/X1*%
X122555000Y-111506000D03*
X123190000Y-121412000D03*
%TO.N,/Microcontroller/X2*%
X122428000Y-118872000D03*
X122936000Y-122174000D03*
%TO.N,/Microcontroller/AREF*%
X114808000Y-119634000D03*
X114300000Y-123190000D03*
X123952000Y-119634000D03*
X123292000Y-123088000D03*
%TO.N,/GPIO13*%
X123190000Y-134874000D03*
X132842000Y-135128000D03*
X122936000Y-124714000D03*
X82804000Y-156850000D03*
%TO.N,/GPIO12*%
X125984000Y-124968000D03*
X119634000Y-82550000D03*
X107950000Y-82550000D03*
X105410000Y-69850000D03*
X121666000Y-124968000D03*
%TO.N,/PLD_ON_B_Int*%
X91694000Y-129540000D03*
X100330000Y-129672000D03*
X116332000Y-125984000D03*
X90424000Y-97414000D03*
%TO.N,/PLD_ON_C_Int*%
X83893011Y-106738989D03*
X90424000Y-131572000D03*
X100330000Y-131704000D03*
X122174000Y-129794000D03*
X122174000Y-128270000D03*
X116586000Y-131318000D03*
%TO.N,/EN_PAYLOAD_SERIAL*%
X129540000Y-118618000D03*
X122682000Y-91440000D03*
X130302000Y-94488000D03*
X129667000Y-117221000D03*
X123698000Y-94234000D03*
X130782000Y-127282000D03*
%TO.N,/STATES_B_Int*%
X124968000Y-130302000D03*
X131318000Y-129794000D03*
X84043020Y-115986980D03*
X116586000Y-132080000D03*
X100330000Y-132720000D03*
X89408000Y-132588000D03*
%TO.N,/STATES_C_Int*%
X92933020Y-115732980D03*
X124460000Y-128270000D03*
X93472000Y-127254000D03*
X100838000Y-127254000D03*
%TO.N,/EN_RADIO_SERIAL*%
X135382000Y-102870000D03*
X135382000Y-126238000D03*
%TO.N,/EN_EXT_I2C*%
X138725000Y-126025000D03*
X138725000Y-128711600D03*
%TO.N,/TXD2*%
X131318000Y-132080000D03*
X137160000Y-131826000D03*
X136993779Y-125285448D03*
X82804000Y-150246000D03*
%TO.N,/RXD2*%
X132080000Y-132588000D03*
X137668000Y-132334000D03*
X82804000Y-153548000D03*
X137668000Y-124714000D03*
%TO.N,/SHUTDOWN_C*%
X113626091Y-93787663D03*
X133858000Y-112522000D03*
X117856000Y-112014000D03*
X100639096Y-93828769D03*
%TO.N,/WDTICK*%
X134452803Y-113306149D03*
X132334000Y-118872000D03*
%TO.N,/SHUTDOWN_B*%
X125857000Y-117983000D03*
X105370511Y-77303511D03*
X106426000Y-96774000D03*
X124968000Y-98044000D03*
%TO.N,/STATES_B*%
X86176406Y-115163361D03*
X87376000Y-118618000D03*
X81026000Y-119380000D03*
%TO.N,/PAYLOAD_ON_A*%
X86868000Y-100330000D03*
X90170000Y-75438000D03*
X86106000Y-96774000D03*
%TO.N,/PAYLOAD_ON_C*%
X87376000Y-105918000D03*
X86106000Y-105918000D03*
X89662000Y-105918000D03*
X95758000Y-78232000D03*
X101600000Y-77978000D03*
%TO.N,/PAYLOAD_ON_B*%
X94996000Y-96774000D03*
X96774000Y-80264000D03*
X95504000Y-100330000D03*
%TO.N,/STATES_A*%
X95504000Y-109474000D03*
X81026000Y-110744000D03*
X94976000Y-105938000D03*
%TO.N,/STATES_C*%
X95504000Y-118618000D03*
X94996000Y-115062000D03*
X82042000Y-112268000D03*
%TO.N,/PAYLOAD_RXD-*%
X102870000Y-81280000D03*
%TO.N,/RADIO_RXD-*%
X82042000Y-89408000D03*
%TO.N,/PAYLOAD_RXD+*%
X103632000Y-82042000D03*
%TO.N,/PAYLOAD_TXD+*%
X104902000Y-88138000D03*
X102108000Y-83058000D03*
X101854000Y-78994000D03*
X103124000Y-90170000D03*
%TO.N,/PAYLOAD_TXD-*%
X89154000Y-85344000D03*
X105664000Y-87630000D03*
X87630000Y-76581000D03*
%TO.N,/RADIO_RXD+*%
X82804000Y-89408000D03*
%TO.N,/RADIO_TXD+*%
X117348000Y-91694000D03*
X121666000Y-96520000D03*
X123830000Y-103764000D03*
X98806000Y-91694000D03*
X117348000Y-96520000D03*
%TO.N,/EPS_RESET*%
X102616000Y-92710000D03*
X98806000Y-137414000D03*
X110490000Y-92710000D03*
%TO.N,/V_RTC*%
X101600000Y-103378000D03*
X91694000Y-143642000D03*
X111760000Y-102870000D03*
X111760000Y-77978000D03*
%TO.N,/EPS_5V_USB*%
X91186000Y-133477000D03*
X99822000Y-119888000D03*
X90932000Y-146944000D03*
X111252000Y-119888000D03*
X99822000Y-133477000D03*
%TO.N,/SDA_EXT*%
X122428000Y-83312000D03*
X121412000Y-83312000D03*
X141478000Y-128524000D03*
X140970000Y-105410000D03*
X137922000Y-105410000D03*
X129032000Y-83312000D03*
X130048000Y-83312000D03*
%TO.N,/SCL_EXT*%
X139954000Y-84582000D03*
X140462000Y-122428000D03*
%TO.N,/RADIO_TXD-*%
X124430636Y-102616000D03*
X98806000Y-90932000D03*
X118364000Y-91186000D03*
X118364000Y-95758000D03*
X122174000Y-95758000D03*
%TD*%
D58*
%TO.N,GND*%
X100125000Y-88270000D02*
X100125000Y-83297500D01*
X139192000Y-140257000D02*
X139143000Y-140208000D01*
X143420000Y-100970000D02*
X141600000Y-100970000D01*
X118859000Y-122949000D02*
X117856000Y-123952000D01*
X117407000Y-89662000D02*
X116586000Y-89662000D01*
X82408000Y-96794000D02*
X82296000Y-96906000D01*
X130932000Y-87254000D02*
X130937000Y-87249000D01*
X124869500Y-123588000D02*
X126094000Y-123588000D01*
X87884000Y-89916000D02*
X87630000Y-90170000D01*
X121223000Y-93604000D02*
X119480000Y-93604000D01*
X121223000Y-105034000D02*
X119534000Y-105034000D01*
X92964000Y-87508000D02*
X94046000Y-87508000D01*
X82296000Y-106050000D02*
X83266000Y-106050000D01*
X119734000Y-94874000D02*
X119634000Y-94774000D01*
X92080500Y-109540000D02*
X90744000Y-109540000D01*
X121223000Y-94874000D02*
X119734000Y-94874000D01*
X83378000Y-115082000D02*
X82408000Y-115082000D01*
X97295000Y-95382000D02*
X98298000Y-95382000D01*
X121223000Y-103764000D02*
X119534000Y-103764000D01*
X117539000Y-89794000D02*
X117407000Y-89662000D01*
X91440000Y-89154000D02*
X91440000Y-89408000D01*
X83190500Y-109540000D02*
X81854000Y-109540000D01*
X98806000Y-88270000D02*
X100125000Y-88270000D01*
X90744000Y-100396000D02*
X90678000Y-100462000D01*
X101537000Y-130688000D02*
X101537000Y-132212000D01*
X68834000Y-105747000D02*
X68834000Y-107066000D01*
X119480000Y-93604000D02*
X119380000Y-93504000D01*
X117397000Y-120904000D02*
X116332000Y-120904000D01*
X139192000Y-141732000D02*
X139192000Y-140257000D01*
X90678000Y-118750000D02*
X92014500Y-118750000D01*
X135138000Y-157094000D02*
X135138000Y-155712000D01*
X128016000Y-146309000D02*
X129545000Y-146309000D01*
X129282000Y-120175500D02*
X129282000Y-121162000D01*
X135382000Y-119875000D02*
X136652000Y-119888000D01*
X88138000Y-88333000D02*
X88138000Y-89662000D01*
X100125000Y-83297500D02*
X100232500Y-83190000D01*
X136411000Y-107429000D02*
X136398000Y-107442000D01*
X92156000Y-96906000D02*
X92268000Y-96794000D01*
X128270000Y-132601000D02*
X128270000Y-133604000D01*
X81854000Y-100396000D02*
X81788000Y-100462000D01*
X67788000Y-97190000D02*
X67818000Y-97160000D01*
X112312000Y-130561000D02*
X114046000Y-130556000D01*
X130805000Y-97414000D02*
X131064000Y-97155000D01*
X129807000Y-97414000D02*
X130805000Y-97414000D01*
X86106000Y-88283000D02*
X86106000Y-89408000D01*
X91440000Y-88270000D02*
X91440000Y-89154000D01*
X91186000Y-96906000D02*
X92156000Y-96906000D01*
X101537000Y-129164000D02*
X101537000Y-130688000D01*
X133194500Y-122088000D02*
X131994000Y-122088000D01*
X141600000Y-99700000D02*
X141478000Y-99822000D01*
X66479400Y-97190000D02*
X67788000Y-97190000D01*
X143420000Y-99700000D02*
X141600000Y-99700000D01*
X92014500Y-118750000D02*
X92080500Y-118684000D01*
X83266000Y-106050000D02*
X83378000Y-105938000D01*
X129282000Y-121162000D02*
X129032000Y-121412000D01*
X66040000Y-104335000D02*
X67422000Y-104335000D01*
D59*
X67818000Y-83468500D02*
X64359500Y-83468500D01*
D58*
X88405000Y-95382000D02*
X89408000Y-95382000D01*
X137282000Y-119875000D02*
X137922000Y-120515000D01*
D59*
X67818000Y-75594500D02*
X67818000Y-73914000D01*
X73050000Y-82144000D02*
X73152000Y-82042000D01*
D58*
X88138000Y-89662000D02*
X87884000Y-89916000D01*
X129807000Y-87254000D02*
X130932000Y-87254000D01*
X128782000Y-127258000D02*
X128778000Y-127254000D01*
X89408000Y-104526000D02*
X88405000Y-104526000D01*
X138684000Y-142240000D02*
X139192000Y-141732000D01*
X81854000Y-109540000D02*
X81788000Y-109606000D01*
X90744000Y-109540000D02*
X90678000Y-109606000D01*
X140675000Y-129994500D02*
X143837500Y-129994500D01*
X83190500Y-118684000D02*
X81854000Y-118684000D01*
X81854000Y-118684000D02*
X81788000Y-118750000D01*
X119429000Y-115062000D02*
X118110000Y-115062000D01*
D59*
X73050000Y-83806000D02*
X73050000Y-82144000D01*
D58*
X92156000Y-106050000D02*
X92268000Y-105938000D01*
X92156000Y-115194000D02*
X92268000Y-115082000D01*
X83190500Y-100396000D02*
X81854000Y-100396000D01*
X103627000Y-133101000D02*
X103378000Y-133350000D01*
X136586000Y-113284000D02*
X136586000Y-114488000D01*
X137681000Y-142240000D02*
X138684000Y-142240000D01*
X88405000Y-113670000D02*
X89408000Y-113670000D01*
X119534000Y-103764000D02*
X119380000Y-103918000D01*
X101537000Y-132212000D02*
X101537000Y-133287000D01*
X128782000Y-128500500D02*
X128782000Y-127258000D01*
X117539000Y-99954000D02*
X116464000Y-99954000D01*
X83378000Y-96794000D02*
X82408000Y-96794000D01*
X141600000Y-100970000D02*
X141478000Y-101092000D01*
X92080500Y-100396000D02*
X90744000Y-100396000D01*
X82408000Y-115082000D02*
X82296000Y-115194000D01*
X97295000Y-104526000D02*
X98298000Y-104526000D01*
X113043000Y-80650000D02*
X114422000Y-80650000D01*
X110985000Y-127508000D02*
X109728000Y-127508000D01*
X147320000Y-144150000D02*
X149474000Y-144150000D01*
X118859000Y-122936000D02*
X118859000Y-122949000D01*
X89662000Y-88283000D02*
X89662000Y-89408000D01*
X82296000Y-82682000D02*
X83698500Y-82682000D01*
X91186000Y-106050000D02*
X92156000Y-106050000D01*
X135138000Y-155712000D02*
X135128000Y-155702000D01*
X97295000Y-113670000D02*
X98298000Y-113670000D01*
X91186000Y-115194000D02*
X92156000Y-115194000D01*
X132588000Y-114541000D02*
X132588000Y-113284000D01*
X137668000Y-107429000D02*
X136411000Y-107429000D01*
X136652000Y-119888000D02*
X137282000Y-119875000D01*
X105112000Y-133101000D02*
X103627000Y-133101000D01*
X67422000Y-104335000D02*
X68834000Y-105747000D01*
X128016000Y-114541000D02*
X128016000Y-113284000D01*
%TO.N,+3V3*%
X95745000Y-107201000D02*
X95745000Y-104526000D01*
X86855000Y-113652000D02*
X85979000Y-112776000D01*
X127567500Y-87943500D02*
X128016000Y-88392000D01*
X128016000Y-116091000D02*
X128016000Y-116015000D01*
X86743000Y-113782000D02*
X86855000Y-113670000D01*
X86855000Y-115394500D02*
X85465500Y-116784000D01*
X95745000Y-115394500D02*
X95745000Y-113670000D01*
X76586000Y-141224000D02*
X76200000Y-141610000D01*
X137668000Y-108979000D02*
X137655000Y-108966000D01*
X105347000Y-136276000D02*
X105347000Y-135323000D01*
X105347000Y-135323000D02*
X105410000Y-135260000D01*
X135382000Y-121425000D02*
X134112000Y-120142000D01*
X138684000Y-100013000D02*
X138684000Y-99568000D01*
X137636000Y-147606000D02*
X134366000Y-147606000D01*
X126173000Y-97414000D02*
X128257000Y-97414000D01*
X128282000Y-128500500D02*
X128282000Y-131039000D01*
X128282000Y-116357000D02*
X128016000Y-116091000D01*
X126987000Y-98684000D02*
X126173000Y-98684000D01*
X128016000Y-98552000D02*
X128270000Y-98552000D01*
X86416000Y-98496000D02*
X86855000Y-98057000D01*
X137731000Y-143764000D02*
X137655000Y-143764000D01*
X126173000Y-87254000D02*
X128257000Y-87254000D01*
X95745000Y-95382000D02*
X95745000Y-94247000D01*
X128016000Y-88392000D02*
X128270000Y-88392000D01*
X86106000Y-86733000D02*
X86987000Y-86733000D01*
X102299000Y-136276000D02*
X102299000Y-135323000D01*
X127567500Y-98103500D02*
X126987000Y-98684000D01*
X137536000Y-113284000D02*
X137536000Y-114168000D01*
X135219000Y-121588000D02*
X135382000Y-121425000D01*
X134366000Y-147606000D02*
X134112000Y-147352000D01*
X137922000Y-121989000D02*
X139446000Y-120465000D01*
X136131000Y-141465000D02*
X135115000Y-141465000D01*
X137668000Y-147574000D02*
X137636000Y-147606000D01*
X95745000Y-104526000D02*
X95745000Y-103365000D01*
X95745000Y-98057000D02*
X95745000Y-95382000D01*
X76200000Y-146690000D02*
X76576000Y-146690000D01*
X95633000Y-104638000D02*
X95745000Y-104526000D01*
X127254000Y-132334000D02*
X127254000Y-133350000D01*
X136131000Y-140270000D02*
X136193000Y-140208000D01*
X135115000Y-141465000D02*
X134874000Y-141224000D01*
X126987000Y-88524000D02*
X127567500Y-87943500D01*
X118809000Y-126492000D02*
X118809000Y-125539000D01*
X122379000Y-115062000D02*
X123190000Y-115062000D01*
X78994000Y-141224000D02*
X76586000Y-141224000D01*
X137655000Y-108966000D02*
X136652000Y-108966000D01*
X143420000Y-98430000D02*
X141610000Y-98430000D01*
X131064000Y-114491000D02*
X131064000Y-113284000D01*
X76576000Y-146690000D02*
X78994000Y-144272000D01*
X78994000Y-131064000D02*
X76586000Y-131064000D01*
X85465500Y-107640000D02*
X86416000Y-107640000D01*
X122379000Y-115062000D02*
X122379000Y-113333000D01*
X86855000Y-95382000D02*
X86868000Y-95369000D01*
X136586000Y-111009000D02*
X137536000Y-111009000D01*
X137922000Y-122065000D02*
X137922000Y-121989000D01*
X95306000Y-107640000D02*
X95745000Y-107201000D01*
X85465500Y-98496000D02*
X86416000Y-98496000D01*
X95745000Y-113670000D02*
X95745000Y-112662000D01*
X86743000Y-104638000D02*
X86855000Y-104526000D01*
X85278000Y-104638000D02*
X86743000Y-104638000D01*
X76395000Y-136398000D02*
X76263000Y-136530000D01*
X85278000Y-113782000D02*
X86743000Y-113782000D01*
X94355500Y-98496000D02*
X95306000Y-98496000D01*
X137536000Y-111009000D02*
X137536000Y-109111000D01*
X86855000Y-113670000D02*
X86855000Y-113652000D01*
X127254000Y-132067000D02*
X127254000Y-132334000D01*
X135115000Y-142240000D02*
X136131000Y-142240000D01*
X86855000Y-98057000D02*
X86855000Y-95382000D01*
X136131000Y-142240000D02*
X136131000Y-141465000D01*
X76586000Y-131064000D02*
X76200000Y-131450000D01*
X118809000Y-125539000D02*
X118809000Y-124751500D01*
X95745000Y-94247000D02*
X95758000Y-94234000D01*
X86855000Y-104526000D02*
X86855000Y-103137000D01*
X85973500Y-86600500D02*
X86106000Y-86733000D01*
X112535000Y-127508000D02*
X112535000Y-129068000D01*
X128282000Y-131039000D02*
X128270000Y-131051000D01*
X94168000Y-104638000D02*
X95633000Y-104638000D01*
X126173000Y-88524000D02*
X126987000Y-88524000D01*
X95745000Y-112662000D02*
X95758000Y-112649000D01*
X94168000Y-113782000D02*
X95633000Y-113782000D01*
X112535000Y-127508000D02*
X113538000Y-127508000D01*
X128282000Y-120175500D02*
X128282000Y-116357000D01*
X134856000Y-142499000D02*
X135115000Y-142240000D01*
X124968000Y-114491000D02*
X126492000Y-114491000D01*
X94355500Y-107640000D02*
X95306000Y-107640000D01*
X127567500Y-98103500D02*
X128016000Y-98552000D01*
X137536000Y-114168000D02*
X137922000Y-114554000D01*
X86743000Y-95494000D02*
X86855000Y-95382000D01*
X128257000Y-97414000D02*
X127567500Y-98103500D01*
X137922000Y-123466500D02*
X138725000Y-124269500D01*
X86855000Y-107201000D02*
X86855000Y-104526000D01*
X102299000Y-135323000D02*
X102362000Y-135260000D01*
X118809000Y-124751500D02*
X118846500Y-124714000D01*
X134112000Y-114491000D02*
X134811000Y-114491000D01*
X137731000Y-146812000D02*
X137731000Y-145288000D01*
X128270000Y-131051000D02*
X127254000Y-132067000D01*
X112535000Y-129068000D02*
X112312000Y-129291000D01*
X132966000Y-142499000D02*
X134856000Y-142499000D01*
X86868000Y-95369000D02*
X86868000Y-94488000D01*
X137668000Y-146875000D02*
X137668000Y-147574000D01*
X133194500Y-121588000D02*
X135219000Y-121588000D01*
X86855000Y-103137000D02*
X87376000Y-102616000D01*
X86416000Y-107640000D02*
X86855000Y-107201000D01*
X124968000Y-114491000D02*
X123761000Y-114491000D01*
X127254000Y-133350000D02*
X127508000Y-133604000D01*
X85973500Y-83632000D02*
X85973500Y-85089500D01*
X86868000Y-94488000D02*
X86868000Y-94234000D01*
X95306000Y-98496000D02*
X95745000Y-98057000D01*
X95633000Y-113782000D02*
X95745000Y-113670000D01*
X122379000Y-113333000D02*
X122428000Y-113284000D01*
X137655000Y-143764000D02*
X136131000Y-142240000D01*
X137922000Y-122065000D02*
X137922000Y-123068000D01*
X127567500Y-87943500D02*
X128257000Y-87254000D01*
X134811000Y-114491000D02*
X136144000Y-115824000D01*
X128016000Y-116015000D02*
X126492000Y-114491000D01*
X136131000Y-141465000D02*
X136131000Y-140270000D01*
X94168000Y-95494000D02*
X95633000Y-95494000D01*
X83820000Y-136398000D02*
X86360000Y-136398000D01*
X85278000Y-95494000D02*
X86743000Y-95494000D01*
X85973500Y-85089500D02*
X85973500Y-86600500D01*
X123190000Y-115062000D02*
X123761000Y-114491000D01*
X137731000Y-146812000D02*
X137668000Y-146875000D01*
X138684000Y-99568000D02*
X139446000Y-98806000D01*
X139446000Y-120465000D02*
X139446000Y-119380000D01*
X137922000Y-123068000D02*
X137922000Y-123466500D01*
X78994000Y-136398000D02*
X76395000Y-136398000D01*
X86855000Y-113670000D02*
X86855000Y-115394500D01*
X94355500Y-116784000D02*
X95745000Y-115394500D01*
X137536000Y-109111000D02*
X137668000Y-108979000D01*
%TO.N,/3V3_IN*%
X109220000Y-71120000D02*
X109220000Y-68570000D01*
X109499500Y-80650000D02*
X107950000Y-79100500D01*
X107950000Y-72390000D02*
X109220000Y-71120000D01*
X111493000Y-80650000D02*
X109499500Y-80650000D01*
X107950000Y-79100500D02*
X107950000Y-72390000D01*
%TO.N,/eFuse/3V3_IN_FILT*%
X95821000Y-82428000D02*
X95821000Y-84460000D01*
X101951500Y-79634000D02*
X98298000Y-79634000D01*
X107924500Y-80773000D02*
X105507500Y-83190000D01*
X105507500Y-83190000D02*
X101951500Y-79634000D01*
X95946000Y-84585000D02*
X95946000Y-86858000D01*
X96070000Y-80899000D02*
X95821000Y-80650000D01*
X98298000Y-79634000D02*
X97033000Y-80899000D01*
X97033000Y-80899000D02*
X96070000Y-80899000D01*
X107924500Y-80650000D02*
X107924500Y-80773000D01*
X95821000Y-80650000D02*
X95821000Y-82428000D01*
X95821000Y-84460000D02*
X95946000Y-84585000D01*
%TO.N,Net-(C7-Pad1)*%
X91578000Y-86858000D02*
X91440000Y-86720000D01*
X88265000Y-100838000D02*
X88265000Y-97663000D01*
X88138000Y-86683000D02*
X88138000Y-83896500D01*
X89675000Y-86720000D02*
X89662000Y-86733000D01*
X87503000Y-82931000D02*
X87337750Y-83096250D01*
X88188000Y-86733000D02*
X88138000Y-86683000D01*
X85725000Y-101219000D02*
X87884000Y-101219000D01*
X87884000Y-101219000D02*
X88265000Y-100838000D01*
X88011000Y-82931000D02*
X87503000Y-82931000D01*
X87884000Y-153548000D02*
X89662000Y-153548000D01*
X94046000Y-86858000D02*
X91578000Y-86858000D01*
X84709000Y-102235000D02*
X85725000Y-101219000D01*
X91440000Y-86720000D02*
X89675000Y-86720000D01*
X89662000Y-86733000D02*
X88188000Y-86733000D01*
X88138000Y-83896500D02*
X87337750Y-83096250D01*
X87337750Y-83096250D02*
X85973500Y-81732000D01*
%TO.N,Net-(C14-Pad1)*%
X103886000Y-90170000D02*
X103886000Y-89081000D01*
X128016000Y-112522000D02*
X128778000Y-113284000D01*
X128782000Y-120175500D02*
X128782000Y-117860000D01*
X116332000Y-101600000D02*
X103632000Y-101600000D01*
X129032000Y-117602000D02*
X128778000Y-117856000D01*
X103886000Y-89081000D02*
X103075000Y-88270000D01*
X127508000Y-112522000D02*
X116332000Y-112522000D01*
X127508000Y-112522000D02*
X128016000Y-112522000D01*
X128782000Y-117860000D02*
X128778000Y-117856000D01*
X129032000Y-117094000D02*
X129032000Y-117602000D01*
%TO.N,Net-(C15-Pad1)*%
X120421500Y-124714000D02*
X120421500Y-123723500D01*
X122428000Y-122936000D02*
X122428000Y-123444000D01*
X120421500Y-123723500D02*
X120447000Y-123698000D01*
X124869500Y-124088000D02*
X122546000Y-124088000D01*
X122428000Y-122174000D02*
X122428000Y-122936000D01*
X122546000Y-124088000D02*
X122428000Y-123970000D01*
X122428000Y-123444000D02*
X122428000Y-123698000D01*
X121158000Y-120904000D02*
X122428000Y-122174000D01*
X120447000Y-123698000D02*
X122428000Y-123698000D01*
X120421500Y-123723500D02*
X120421500Y-122948500D01*
X120347000Y-120904000D02*
X121158000Y-120904000D01*
X122428000Y-123698000D02*
X122428000Y-123970000D01*
%TO.N,/PAYLOAD_RXD*%
X120904000Y-141986000D02*
X79248000Y-141986000D01*
X119766000Y-88524000D02*
X119507000Y-88265000D01*
X78189989Y-142451989D02*
X72818011Y-142451989D01*
X78740000Y-142494000D02*
X78232000Y-142494000D01*
X118999000Y-88265000D02*
X118872000Y-88392000D01*
X121223000Y-88524000D02*
X119766000Y-88524000D01*
X119507000Y-88265000D02*
X118999000Y-88265000D01*
X79248000Y-141986000D02*
X78740000Y-142494000D01*
X72818011Y-142451989D02*
X71120000Y-144150000D01*
X127782000Y-128500500D02*
X127762000Y-130048000D01*
X78232000Y-142494000D02*
X78189989Y-142451989D01*
%TO.N,Net-(D1-Pad2)*%
X74296000Y-146690000D02*
X74550000Y-146944000D01*
X71120000Y-146690000D02*
X74296000Y-146690000D01*
%TO.N,/RADIO_RXD*%
X135762520Y-135763480D02*
X129413480Y-135763480D01*
X95250000Y-134620000D02*
X90800000Y-139070000D01*
X134620000Y-126746000D02*
X136652000Y-126746000D01*
X132176000Y-126588000D02*
X133194500Y-126588000D01*
X116840000Y-134620000D02*
X95250000Y-134620000D01*
X90800000Y-139070000D02*
X71120000Y-139070000D01*
X131318000Y-125730000D02*
X132176000Y-126588000D01*
X135890000Y-135636000D02*
X135762520Y-135763480D01*
X128524000Y-135890000D02*
X118110000Y-135890000D01*
X130048000Y-96012000D02*
X124968000Y-96012000D01*
X124968000Y-96012000D02*
X122296000Y-98684000D01*
X129413480Y-135763480D02*
X129158520Y-135508520D01*
X129158520Y-135508520D02*
X128905480Y-135508520D01*
X130048000Y-96012000D02*
X133096000Y-96012000D01*
X118110000Y-135890000D02*
X116840000Y-134620000D01*
X122296000Y-98684000D02*
X121223000Y-98684000D01*
X133194500Y-126588000D02*
X134462000Y-126588000D01*
X134462000Y-126588000D02*
X134620000Y-126746000D01*
X133096000Y-96012000D02*
X133350000Y-96266000D01*
X128905480Y-135508520D02*
X128524000Y-135890000D01*
%TO.N,Net-(D2-Pad2)*%
X71120000Y-141610000D02*
X74550000Y-141610000D01*
%TO.N,/PAYLOAD_TXD*%
X71120000Y-133990000D02*
X71369480Y-134239480D01*
X127282000Y-129766000D02*
X127000000Y-130048000D01*
X127508000Y-127000000D02*
X127282000Y-127226000D01*
X127282000Y-127226000D02*
X127282000Y-128500500D01*
X121223000Y-92334000D02*
X123322000Y-92334000D01*
X127000000Y-130048000D02*
X127000000Y-130302000D01*
X123322000Y-92334000D02*
X123888500Y-92900500D01*
X71369480Y-134239480D02*
X122808520Y-134239480D01*
X126110520Y-134239480D02*
X126238000Y-134112000D01*
X122808520Y-134239480D02*
X126110520Y-134239480D01*
X127282000Y-129766000D02*
X127282000Y-128500500D01*
%TO.N,Net-(D3-Pad2)*%
X71120000Y-136530000D02*
X74613000Y-136530000D01*
%TO.N,/RADIO_TXD*%
X131572000Y-105918000D02*
X131826000Y-105664000D01*
X74930000Y-122936000D02*
X93472000Y-122936000D01*
X134366000Y-127254000D02*
X135890000Y-127254000D01*
X69982000Y-128910000D02*
X68580000Y-127508000D01*
X100838000Y-102616000D02*
X103347864Y-102616000D01*
X131826000Y-105664000D02*
X136906000Y-105664000D01*
X69850000Y-122174000D02*
X74168000Y-122174000D01*
X103855864Y-102108000D02*
X115570000Y-102108000D01*
X121223000Y-102494000D02*
X121798000Y-102494000D01*
X123444000Y-105918000D02*
X131572000Y-105918000D01*
X74168000Y-122174000D02*
X74930000Y-122936000D01*
X133194500Y-127088000D02*
X134200000Y-127088000D01*
X68580000Y-127508000D02*
X68580000Y-123444000D01*
X122936000Y-105410000D02*
X123444000Y-105918000D01*
X122936000Y-103632000D02*
X122936000Y-105410000D01*
X71120000Y-128910000D02*
X69982000Y-128910000D01*
X121798000Y-102494000D02*
X122936000Y-103632000D01*
X68580000Y-123444000D02*
X69850000Y-122174000D01*
X115570000Y-102108000D02*
X115956000Y-102494000D01*
X103347864Y-102616000D02*
X103855864Y-102108000D01*
X134200000Y-127088000D02*
X134366000Y-127254000D01*
X115956000Y-102494000D02*
X121223000Y-102494000D01*
%TO.N,Net-(D4-Pad2)*%
X71120000Y-131450000D02*
X74550000Y-131450000D01*
%TO.N,Net-(D5-Pad2)*%
X71120000Y-126370000D02*
X74550000Y-126370000D01*
%TO.N,Net-(F1-Pad1)*%
X68942500Y-94590000D02*
X66479400Y-94590000D01*
X70182500Y-93350000D02*
X68942500Y-94590000D01*
D59*
%TO.N,+5V*%
X73050000Y-90576000D02*
X76302000Y-90576000D01*
X73050000Y-92357500D02*
X73050000Y-90576000D01*
X72057500Y-93350000D02*
X73050000Y-92357500D01*
X67818000Y-88743500D02*
X68155500Y-88406000D01*
X68155500Y-88406000D02*
X73050000Y-88406000D01*
X73050000Y-90576000D02*
X73050000Y-88406000D01*
D58*
%TO.N,/SDA_NON_CRIT*%
X144140000Y-111130000D02*
X143764000Y-111506000D01*
X136581000Y-131247000D02*
X135890000Y-130556000D01*
X139375000Y-131247000D02*
X140462000Y-132334000D01*
X114686000Y-133228000D02*
X113792000Y-133228000D01*
X139375000Y-129994500D02*
X139375000Y-131247000D01*
X103949000Y-136276000D02*
X103949000Y-135323000D01*
X112439000Y-133228000D02*
X112312000Y-133101000D01*
X139375000Y-131247000D02*
X136581000Y-131247000D01*
X113792000Y-133228000D02*
X112439000Y-133228000D01*
X103949000Y-135323000D02*
X103886000Y-135260000D01*
X103981000Y-136308000D02*
X103949000Y-136276000D01*
X147320000Y-111130000D02*
X144140000Y-111130000D01*
X140462000Y-132334000D02*
X143002000Y-132334000D01*
X115062000Y-133604000D02*
X114686000Y-133228000D01*
X125730000Y-133604000D02*
X115062000Y-133604000D01*
X126282000Y-128500500D02*
X126282000Y-130004000D01*
X103981000Y-139673000D02*
X103981000Y-136308000D01*
%TO.N,/SCL_NON_CRIT*%
X137668000Y-134620000D02*
X133604000Y-134620000D01*
X133604000Y-134620000D02*
X133350000Y-134366000D01*
X114300000Y-131958000D02*
X112439000Y-131958000D01*
X143764000Y-124206000D02*
X140738500Y-124206000D01*
X106997000Y-136276000D02*
X106997000Y-135323000D01*
X147320000Y-113670000D02*
X144658000Y-116332000D01*
X140716000Y-123190000D02*
X140716000Y-124228500D01*
X114940000Y-131958000D02*
X116078000Y-133096000D01*
X106521000Y-139673000D02*
X106521000Y-136752000D01*
X144658000Y-116332000D02*
X144272000Y-116332000D01*
X112439000Y-131958000D02*
X112312000Y-131831000D01*
X126782000Y-127290000D02*
X126746000Y-127254000D01*
X127254000Y-134366000D02*
X124714000Y-131826000D01*
X106521000Y-136752000D02*
X106997000Y-136276000D01*
X133350000Y-134366000D02*
X127254000Y-134366000D01*
X123444000Y-133096000D02*
X124714000Y-131826000D01*
X106997000Y-135323000D02*
X106934000Y-135260000D01*
X126782000Y-128500500D02*
X126782000Y-127290000D01*
X116078000Y-133096000D02*
X123444000Y-133096000D01*
X114300000Y-131958000D02*
X114940000Y-131958000D01*
%TO.N,/PLD_ON_A_Int*%
X146558523Y-116840523D02*
X146689477Y-116840523D01*
X90932000Y-130556000D02*
X94610000Y-130556000D01*
X121539480Y-126364520D02*
X122316000Y-125588000D01*
X134746520Y-118745480D02*
X144653566Y-118745480D01*
X81280000Y-97414000D02*
X81280000Y-97818663D01*
X124869500Y-125588000D02*
X130190000Y-125588000D01*
X144653566Y-118745480D02*
X146558523Y-116840523D01*
X117474520Y-128142520D02*
X119506520Y-128142520D01*
X130190000Y-125588000D02*
X131064000Y-124714000D01*
X81920000Y-99446000D02*
X83190500Y-99446000D01*
X132842000Y-120396000D02*
X133096000Y-120396000D01*
X116586000Y-127254000D02*
X117474520Y-128142520D01*
X146689477Y-116840523D02*
X147320000Y-116210000D01*
X81280000Y-96906000D02*
X81280000Y-97414000D01*
X81788000Y-99314000D02*
X81920000Y-99446000D01*
X133096000Y-120396000D02*
X134746520Y-118745480D01*
X81280000Y-97818663D02*
X81788000Y-98326663D01*
X94610000Y-130556000D02*
X94742000Y-130688000D01*
X82042000Y-96144000D02*
X81280000Y-96906000D01*
X122316000Y-125588000D02*
X124869500Y-125588000D01*
X81788000Y-98326663D02*
X81788000Y-99314000D01*
X83378000Y-96144000D02*
X82042000Y-96144000D01*
X94742000Y-130688000D02*
X100330000Y-130688000D01*
X119506520Y-128142520D02*
X119634000Y-128270000D01*
X119634000Y-128270000D02*
X121158000Y-128270000D01*
%TO.N,/STATES_A_Int*%
X112268000Y-125222000D02*
X117602000Y-125222000D01*
X92080500Y-108590000D02*
X92832000Y-108590000D01*
X143134000Y-122936000D02*
X141986000Y-122936000D01*
X123698000Y-127254000D02*
X123864000Y-127088000D01*
X92268000Y-105288000D02*
X92720000Y-105288000D01*
X94335864Y-128656000D02*
X100330000Y-128656000D01*
X117856000Y-129032000D02*
X123698000Y-129032000D01*
X117602000Y-128778000D02*
X117856000Y-129032000D01*
X93218000Y-107127960D02*
X92933020Y-106842980D01*
X92832000Y-108590000D02*
X93218000Y-108204000D01*
X92720000Y-105288000D02*
X92933020Y-105501020D01*
X103886000Y-125222000D02*
X112268000Y-125222000D01*
X125222000Y-138938000D02*
X124206000Y-137922000D01*
X123698000Y-129032000D02*
X123698000Y-127254000D01*
X135382000Y-133350000D02*
X141732000Y-133350000D01*
X94203864Y-128524000D02*
X94335864Y-128656000D01*
X92456000Y-128524000D02*
X94203864Y-128524000D01*
X92933020Y-105501020D02*
X92933020Y-106842980D01*
X134874000Y-138938000D02*
X125222000Y-138938000D01*
X93218000Y-108204000D02*
X93218000Y-107127960D01*
X147320000Y-118750000D02*
X143134000Y-122936000D01*
X141732000Y-133350000D02*
X141986000Y-133096000D01*
X124869500Y-127088000D02*
X123864000Y-127088000D01*
%TO.N,/SHUTDOWN_A*%
X128270000Y-107442000D02*
X126746000Y-107442000D01*
X128270000Y-107442000D02*
X131064000Y-107442000D01*
X126782000Y-117820000D02*
X126782000Y-118146000D01*
X126746000Y-117094000D02*
X126782000Y-117130000D01*
X133858000Y-111252000D02*
X134112000Y-111252000D01*
X134112000Y-111252000D02*
X135128000Y-112268000D01*
X126746000Y-107442000D02*
X125730000Y-107442000D01*
X126492000Y-116141000D02*
X126492000Y-117094000D01*
X136398000Y-112268000D02*
X141732000Y-112268000D01*
X133604000Y-111506000D02*
X133858000Y-111252000D01*
X126782000Y-117130000D02*
X126782000Y-117820000D01*
X126492000Y-117094000D02*
X126746000Y-117094000D01*
X126782000Y-118146000D02*
X126782000Y-120175500D01*
X145542000Y-119634000D02*
X141732000Y-119634000D01*
X135128000Y-112268000D02*
X136398000Y-112268000D01*
X132080000Y-111506000D02*
X133604000Y-111506000D01*
%TO.N,/GPIO_A*%
X143764000Y-127762000D02*
X136144000Y-127762000D01*
X136144000Y-127762000D02*
X135890000Y-128016000D01*
X126144000Y-122588000D02*
X124869500Y-122588000D01*
X144902000Y-123830000D02*
X144018000Y-124714000D01*
X131826000Y-122682000D02*
X126238000Y-122682000D01*
X147320000Y-123830000D02*
X144902000Y-123830000D01*
X126238000Y-122682000D02*
X126144000Y-122588000D01*
X144018000Y-124714000D02*
X144018000Y-124968000D01*
X132080000Y-122936000D02*
X131826000Y-122682000D01*
X135890000Y-128016000D02*
X133604000Y-128016000D01*
%TO.N,/Microcontroller/USB_D-*%
X69352000Y-95240000D02*
X69596000Y-94996000D01*
X133194500Y-123088000D02*
X136075756Y-123088000D01*
X66479400Y-95240000D02*
X69352000Y-95240000D01*
X136075756Y-123088000D02*
X136642232Y-123654476D01*
%TO.N,/Microcontroller/USB_D+*%
X133194500Y-122588000D02*
X136535756Y-122588000D01*
X69347000Y-95890000D02*
X69596000Y-96139000D01*
X136535756Y-122588000D02*
X136642232Y-122694476D01*
X66479400Y-95890000D02*
X69347000Y-95890000D01*
%TO.N,/Microcontroller/USB_HOST_EN*%
X83312000Y-126492000D02*
X100584000Y-126492000D01*
X116586000Y-123952000D02*
X118364000Y-122174000D01*
X68214000Y-96540000D02*
X68326000Y-96652000D01*
X127000000Y-122174000D02*
X129032000Y-122174000D01*
X125476000Y-120650000D02*
X127000000Y-122174000D01*
X100584000Y-124206000D02*
X100838000Y-123952000D01*
X129782000Y-120175500D02*
X129782000Y-121400000D01*
X66479400Y-96540000D02*
X68214000Y-96540000D01*
X121666000Y-120650000D02*
X125476000Y-120650000D01*
X100838000Y-123952000D02*
X116586000Y-123952000D01*
X100584000Y-126492000D02*
X100584000Y-124206000D01*
X129032000Y-122174000D02*
X129794000Y-121412000D01*
X118364000Y-122174000D02*
X121666000Y-122174000D01*
%TO.N,Net-(C10-Pad1)*%
X63779400Y-98790000D02*
X66079400Y-98790000D01*
X64179400Y-93390000D02*
X63779400Y-92990000D01*
X63779400Y-94890000D02*
X63779400Y-96890000D01*
X67392000Y-102685000D02*
X67564000Y-102857000D01*
X63779400Y-100424400D02*
X63779400Y-99390000D01*
X63779400Y-96890000D02*
X63779400Y-98790000D01*
X66040000Y-102685000D02*
X63779400Y-100424400D01*
X66040000Y-102685000D02*
X67392000Y-102685000D01*
X63779400Y-92990000D02*
X63779400Y-94890000D01*
X66479400Y-93390000D02*
X64179400Y-93390000D01*
X66079400Y-98790000D02*
X66479400Y-98390000D01*
X63779400Y-99390000D02*
X63779400Y-98790000D01*
X63779400Y-92390000D02*
X63779400Y-92990000D01*
%TO.N,/MISO*%
X140462000Y-137414000D02*
X142118000Y-139070000D01*
X134366000Y-136906000D02*
X134874000Y-137414000D01*
X129794000Y-136906000D02*
X134366000Y-136906000D01*
X134874000Y-137414000D02*
X140462000Y-137414000D01*
X130302000Y-130048000D02*
X130302000Y-128520500D01*
X130302000Y-128520500D02*
X130282000Y-128500500D01*
X142118000Y-139070000D02*
X144780000Y-139070000D01*
X81026000Y-143642000D02*
X82804000Y-143642000D01*
%TO.N,/SCK*%
X139446000Y-138176000D02*
X134874000Y-138176000D01*
X130556000Y-132842000D02*
X129782000Y-132068000D01*
X142108000Y-141610000D02*
X142108000Y-140838000D01*
X129782000Y-132068000D02*
X129782000Y-128500500D01*
X142108000Y-140838000D02*
X139446000Y-138176000D01*
X134366000Y-137668000D02*
X130556000Y-137668000D01*
X81026000Y-146944000D02*
X82804000Y-146944000D01*
X144780000Y-141610000D02*
X142108000Y-141610000D01*
X134874000Y-138176000D02*
X134366000Y-137668000D01*
%TO.N,/MOSI*%
X129286000Y-129794000D02*
X129282000Y-129790000D01*
X134366000Y-136144000D02*
X129032000Y-136144000D01*
X135128000Y-136906000D02*
X134366000Y-136144000D01*
X129286000Y-133350000D02*
X129286000Y-129794000D01*
X146050000Y-136906000D02*
X135128000Y-136906000D01*
X81026000Y-140340000D02*
X82804000Y-140340000D01*
X129282000Y-128500500D02*
X129282000Y-129790000D01*
%TO.N,/~{RESET}*%
X144780000Y-133985000D02*
X144785000Y-133990000D01*
X129540000Y-110124000D02*
X129540000Y-111252000D01*
X134112000Y-108204000D02*
X135890000Y-106426000D01*
X145034000Y-133990000D02*
X147320000Y-133990000D01*
X149098000Y-103886000D02*
X149098000Y-105410000D01*
X149098000Y-105410000D02*
X148336000Y-106172000D01*
X147320000Y-103510000D02*
X148722000Y-103510000D01*
X145034000Y-133990000D02*
X144780000Y-133985000D01*
X133843000Y-110124000D02*
X133858000Y-110109000D01*
X142748000Y-144150000D02*
X142626000Y-144150000D01*
X144780000Y-106934000D02*
X144780000Y-108204000D01*
X145542000Y-106172000D02*
X145288000Y-106426000D01*
X129540000Y-110124000D02*
X133843000Y-110124000D01*
X148336000Y-106172000D02*
X145542000Y-106172000D01*
X148722000Y-103510000D02*
X149098000Y-103886000D01*
X145288000Y-106426000D02*
X144780000Y-106934000D01*
X142626000Y-144150000D02*
X142494000Y-144018000D01*
X135890000Y-106426000D02*
X145288000Y-106426000D01*
X129540000Y-113284000D02*
X129540000Y-114491000D01*
X142748000Y-144150000D02*
X144780000Y-144150000D01*
%TO.N,/Microcontroller/RX_LED_SWDIO*%
X145288000Y-104902000D02*
X145542000Y-104648000D01*
X147320000Y-98430000D02*
X145918000Y-98430000D01*
X145542000Y-98806000D02*
X145918000Y-98430000D01*
X127282000Y-120175500D02*
X127282000Y-121384000D01*
X124460000Y-117348000D02*
X124460000Y-118364000D01*
X123952000Y-116840000D02*
X124460000Y-117348000D01*
X128778000Y-104902000D02*
X145288000Y-104902000D01*
X145542000Y-104648000D02*
X145542000Y-98806000D01*
X128016000Y-108966000D02*
X124460000Y-108966000D01*
X127282000Y-121384000D02*
X127254000Y-121412000D01*
%TO.N,/Microcontroller/SWCLK*%
X127782000Y-119146000D02*
X127508000Y-118872000D01*
X141732000Y-101854000D02*
X138875000Y-101854000D01*
X129540000Y-103886000D02*
X134112000Y-103886000D01*
X149098000Y-99568000D02*
X149098000Y-98044000D01*
X127782000Y-120175500D02*
X127782000Y-119146000D01*
X127508000Y-118872000D02*
X127508000Y-117602000D01*
X134112000Y-103886000D02*
X134366000Y-104140000D01*
X148966000Y-99700000D02*
X149098000Y-99568000D01*
X138875000Y-101854000D02*
X138684000Y-101663000D01*
X149098000Y-98044000D02*
X148590000Y-97536000D01*
X147320000Y-99700000D02*
X148966000Y-99700000D01*
X134366000Y-104140000D02*
X141478000Y-104140000D01*
X142240000Y-97536000D02*
X148590000Y-97536000D01*
%TO.N,/Watchdog Timer/~{RESET}*%
X134721000Y-110094000D02*
X135636000Y-111009000D01*
X133462000Y-108824000D02*
X135128000Y-110490000D01*
X129540000Y-108824000D02*
X133462000Y-108824000D01*
%TO.N,/eFuse/~SHUTDOWN*%
X94742000Y-87376000D02*
X94742000Y-87122000D01*
X95524000Y-88158000D02*
X94742000Y-87376000D01*
X94742000Y-87122000D02*
X94824520Y-87039480D01*
X94824520Y-87039480D02*
X94824520Y-83081520D01*
X95946000Y-88158000D02*
X95524000Y-88158000D01*
X94824520Y-83081520D02*
X94171000Y-82428000D01*
%TO.N,Net-(R14-Pad2)*%
X87122000Y-80396000D02*
X85034500Y-80396000D01*
X85034500Y-80396000D02*
X83698500Y-81732000D01*
X91186000Y-84460000D02*
X87122000Y-80396000D01*
X94171000Y-84460000D02*
X91186000Y-84460000D01*
%TO.N,Net-(R15-Pad2)*%
X92710000Y-81534000D02*
X93287000Y-81534000D01*
X93287000Y-81534000D02*
X94171000Y-80650000D01*
X92456000Y-88170000D02*
X94034000Y-88170000D01*
%TO.N,/Microcontroller/TXLED*%
X100584000Y-123190000D02*
X100838000Y-122936000D01*
X85344000Y-123952000D02*
X99822000Y-123952000D01*
X115316000Y-117094000D02*
X123190000Y-117094000D01*
X79888000Y-123952000D02*
X85344000Y-123952000D01*
X77470000Y-126370000D02*
X79888000Y-123952000D01*
X130782000Y-120175500D02*
X130782000Y-117884000D01*
X130782000Y-117884000D02*
X130810000Y-117856000D01*
X99822000Y-123952000D02*
X100584000Y-123190000D01*
X100838000Y-122936000D02*
X109474000Y-122936000D01*
X77470000Y-126370000D02*
X76200000Y-126370000D01*
%TO.N,Net-(U3-Pad1)*%
X128016000Y-142499000D02*
X126497000Y-142499000D01*
X126497000Y-142499000D02*
X126492000Y-142494000D01*
X127518000Y-157094000D02*
X127524320Y-155441970D01*
X126390000Y-141630000D02*
X126492000Y-141732000D01*
X126492000Y-142494000D02*
X126492000Y-141782000D01*
X123952000Y-141630000D02*
X126390000Y-141630000D01*
%TO.N,Net-(U3-Pad2)*%
X126497000Y-143769000D02*
X125481000Y-143769000D01*
X125476000Y-143764000D02*
X125110000Y-144130000D01*
X125481000Y-143769000D02*
X125476000Y-143764000D01*
X130058000Y-157094000D02*
X130058000Y-155712000D01*
X130058000Y-155712000D02*
X129794000Y-155448000D01*
X126497000Y-144267000D02*
X126492000Y-144272000D01*
X126492000Y-144780000D02*
X126492000Y-144272000D01*
X128016000Y-143769000D02*
X126497000Y-143769000D01*
X125110000Y-144130000D02*
X123952000Y-144130000D01*
X126497000Y-143769000D02*
X126497000Y-144267000D01*
%TO.N,Net-(U3-Pad3)*%
X128016000Y-145039000D02*
X130561000Y-145039000D01*
X130561000Y-145039000D02*
X131064000Y-145542000D01*
%TO.N,/SDA_CRIT*%
X134484000Y-124088000D02*
X134874000Y-123698000D01*
X132966000Y-146309000D02*
X134816000Y-146309000D01*
X134816000Y-146309000D02*
X135319000Y-146812000D01*
X132966000Y-147302000D02*
X132966000Y-146309000D01*
X133194500Y-124088000D02*
X134484000Y-124088000D01*
X135319000Y-146812000D02*
X136081000Y-146812000D01*
X135138000Y-149474000D02*
X132966000Y-147302000D01*
%TO.N,/SCL_CRIT*%
X132190000Y-123588000D02*
X131826000Y-123952000D01*
X131191000Y-144653000D02*
X131191000Y-143891000D01*
X134112000Y-145288000D02*
X136081000Y-145288000D01*
X133863000Y-145039000D02*
X134112000Y-145288000D01*
X131577000Y-145039000D02*
X131191000Y-144653000D01*
X132966000Y-145039000D02*
X133863000Y-145039000D01*
X133194500Y-123588000D02*
X132190000Y-123588000D01*
X132966000Y-145039000D02*
X131577000Y-145039000D01*
%TO.N,Net-(R12-Pad2)*%
X134371000Y-143769000D02*
X135060000Y-143769000D01*
X131572000Y-150876000D02*
X136398000Y-150876000D01*
X135060000Y-143769000D02*
X135065000Y-143764000D01*
X131572000Y-150876000D02*
X130048000Y-150876000D01*
X127762000Y-151892000D02*
X123952000Y-151892000D01*
X132966000Y-143769000D02*
X134371000Y-143769000D01*
X130058000Y-150866000D02*
X130048000Y-150876000D01*
X130058000Y-149474000D02*
X130058000Y-150866000D01*
X128778000Y-150876000D02*
X127762000Y-151892000D01*
X135128000Y-143764000D02*
X136081000Y-143764000D01*
X130048000Y-150876000D02*
X128778000Y-150876000D01*
X135065000Y-143764000D02*
X135128000Y-143764000D01*
D59*
%TO.N,/3V3_USB*%
X75946000Y-86106000D02*
X73050000Y-86106000D01*
X75027500Y-80869500D02*
X76200000Y-82042000D01*
X78740000Y-86106000D02*
X79350000Y-86106000D01*
X67818000Y-80869500D02*
X75027500Y-80869500D01*
X76200000Y-82042000D02*
X76200000Y-83566000D01*
X76200000Y-85852000D02*
X75946000Y-86106000D01*
X76200000Y-83566000D02*
X76200000Y-85852000D01*
X81224500Y-86106000D02*
X79350000Y-86106000D01*
X83698500Y-83632000D02*
X81224500Y-86106000D01*
X76200000Y-83566000D02*
X78740000Y-86106000D01*
D58*
%TO.N,/Microcontroller/X1*%
X122682000Y-111379000D02*
X122555000Y-111506000D01*
X123366000Y-121588000D02*
X123190000Y-121412000D01*
X122682000Y-109982000D02*
X122682000Y-111379000D01*
X124869500Y-121588000D02*
X123366000Y-121588000D01*
%TO.N,/Microcontroller/X2*%
X108966000Y-120904000D02*
X108204000Y-121666000D01*
X124869500Y-122088000D02*
X123022000Y-122088000D01*
X123022000Y-122088000D02*
X122936000Y-122174000D01*
X111506000Y-120396000D02*
X110998000Y-120904000D01*
X114300000Y-118872000D02*
X122428000Y-118872000D01*
X112776000Y-120396000D02*
X111506000Y-120396000D01*
X110998000Y-120904000D02*
X108966000Y-120904000D01*
X108204000Y-121666000D02*
X102616000Y-121666000D01*
X112776000Y-120396000D02*
X114300000Y-118872000D01*
%TO.N,/Microcontroller/AREF*%
X113792000Y-122682000D02*
X111760000Y-122682000D01*
X123952000Y-119634000D02*
X114808000Y-119634000D01*
X124869500Y-123088000D02*
X123292000Y-123088000D01*
X114300000Y-123190000D02*
X113792000Y-122682000D01*
%TO.N,/GPIO13*%
X127000000Y-135128000D02*
X126746000Y-134874000D01*
X132842000Y-135128000D02*
X127000000Y-135128000D01*
X81026000Y-156850000D02*
X82804000Y-156850000D01*
X124869500Y-124588000D02*
X123062000Y-124588000D01*
X126746000Y-134874000D02*
X123190000Y-134874000D01*
X123062000Y-124588000D02*
X122936000Y-124714000D01*
%TO.N,/GPIO12*%
X105243511Y-70016489D02*
X105410000Y-69850000D01*
X121666000Y-124968000D02*
X121666000Y-125285000D01*
X125864000Y-125088000D02*
X125984000Y-124968000D01*
X121666000Y-125285000D02*
X120459000Y-126492000D01*
X107950000Y-82550000D02*
X119634000Y-82550000D01*
X97623511Y-70016489D02*
X105243511Y-70016489D01*
X96520000Y-71120000D02*
X97623511Y-70016489D01*
X124869500Y-125088000D02*
X125864000Y-125088000D01*
%TO.N,/PLD_ON_B_Int*%
X117856000Y-127508000D02*
X116332000Y-125984000D01*
X94356000Y-129540000D02*
X94488000Y-129672000D01*
X90998000Y-98496000D02*
X92080500Y-98496000D01*
X124869500Y-126088000D02*
X122832000Y-126088000D01*
X90424000Y-96906000D02*
X90424000Y-97414000D01*
X122832000Y-126088000D02*
X121412000Y-127508000D01*
X121412000Y-127508000D02*
X117856000Y-127508000D01*
X92268000Y-96144000D02*
X91186000Y-96144000D01*
X90424000Y-97414000D02*
X90424000Y-97922000D01*
X91694000Y-129540000D02*
X94356000Y-129540000D01*
X94488000Y-129672000D02*
X100330000Y-129672000D01*
X90424000Y-97922000D02*
X90998000Y-98496000D01*
X91186000Y-96144000D02*
X90424000Y-96906000D01*
%TO.N,/PLD_ON_C_Int*%
X122936000Y-127145864D02*
X122936000Y-126746000D01*
X84074000Y-106558000D02*
X83893011Y-106738989D01*
X94488000Y-131704000D02*
X100330000Y-131704000D01*
X83952000Y-105288000D02*
X84074000Y-105410000D01*
X122936000Y-126746000D02*
X123094000Y-126588000D01*
X90424000Y-131572000D02*
X94356000Y-131572000D01*
X83893011Y-106738989D02*
X83893011Y-106937489D01*
X123094000Y-126588000D02*
X124869500Y-126588000D01*
X122174000Y-127907864D02*
X122936000Y-127145864D01*
X94356000Y-131572000D02*
X94488000Y-131704000D01*
X120650000Y-131318000D02*
X122174000Y-129794000D01*
X122174000Y-128270000D02*
X122174000Y-127907864D01*
X83893011Y-106937489D02*
X83190500Y-107640000D01*
X84074000Y-105410000D02*
X84074000Y-106558000D01*
X83378000Y-105288000D02*
X83952000Y-105288000D01*
X116586000Y-131318000D02*
X120650000Y-131318000D01*
%TO.N,/EN_PAYLOAD_SERIAL*%
X129540000Y-117348000D02*
X129667000Y-117221000D01*
X122306000Y-91064000D02*
X122682000Y-91440000D01*
X129540000Y-118618000D02*
X129540000Y-117348000D01*
X121223000Y-91064000D02*
X122306000Y-91064000D01*
X130302000Y-94488000D02*
X130048000Y-94234000D01*
X130048000Y-94234000D02*
X123698000Y-94234000D01*
X130782000Y-128500500D02*
X130782000Y-127282000D01*
%TO.N,/STATES_B_Int*%
X84328000Y-116271960D02*
X84043020Y-115986980D01*
X131282000Y-128500500D02*
X131282000Y-129758000D01*
X93980000Y-132720000D02*
X100330000Y-132720000D01*
X84043020Y-114841998D02*
X84043020Y-115986980D01*
X83688000Y-117734000D02*
X84328000Y-117094000D01*
X83190500Y-117734000D02*
X83688000Y-117734000D01*
X89408000Y-132588000D02*
X93848000Y-132588000D01*
X93848000Y-132588000D02*
X93980000Y-132720000D01*
X83633022Y-114432000D02*
X84043020Y-114841998D01*
X84328000Y-117094000D02*
X84328000Y-116271960D01*
X123190000Y-132080000D02*
X124968000Y-130302000D01*
X83378000Y-114432000D02*
X83633022Y-114432000D01*
X131282000Y-129758000D02*
X131318000Y-129794000D01*
X116586000Y-132080000D02*
X123190000Y-132080000D01*
%TO.N,/STATES_C_Int*%
X92456000Y-117734000D02*
X92080500Y-117734000D01*
X126746000Y-126492000D02*
X131064000Y-126492000D01*
X93472000Y-127254000D02*
X99944000Y-127254000D01*
X92933020Y-116047020D02*
X93218000Y-116332000D01*
X131826000Y-128456500D02*
X131782000Y-128500500D01*
X131064000Y-126492000D02*
X131826000Y-127254000D01*
X131826000Y-127254000D02*
X131826000Y-128456500D01*
X92720000Y-114432000D02*
X92933020Y-114645020D01*
X92933020Y-114645020D02*
X92933020Y-115732980D01*
X99944000Y-127254000D02*
X100838000Y-127254000D01*
X124968000Y-128270000D02*
X126746000Y-126492000D01*
X93218000Y-116332000D02*
X93218000Y-116972000D01*
X92268000Y-114432000D02*
X92720000Y-114432000D01*
X124460000Y-128270000D02*
X124968000Y-128270000D01*
X92933020Y-115732980D02*
X92933020Y-116047020D01*
X93218000Y-116972000D02*
X92456000Y-117734000D01*
%TO.N,/EN_RADIO_SERIAL*%
X131064000Y-102870000D02*
X130065520Y-101871520D01*
X130065520Y-101871520D02*
X123461520Y-101871520D01*
X121223000Y-101224000D02*
X121408860Y-101224000D01*
X133194500Y-126088000D02*
X135232000Y-126088000D01*
X135232000Y-126088000D02*
X135382000Y-126238000D01*
X135382000Y-102870000D02*
X131064000Y-102870000D01*
X121530860Y-101346000D02*
X122936000Y-101346000D01*
X121408860Y-101224000D02*
X121530860Y-101346000D01*
X123461520Y-101871520D02*
X122936000Y-101346000D01*
%TO.N,/EN_EXT_I2C*%
X136693000Y-126025000D02*
X138725000Y-126025000D01*
X133194500Y-125588000D02*
X136256000Y-125588000D01*
X139375000Y-124269500D02*
X139375000Y-122186000D01*
X139151000Y-125517000D02*
X138725000Y-125517000D01*
X136256000Y-125588000D02*
X136693000Y-126025000D01*
X138725000Y-126025000D02*
X138725000Y-125771000D01*
X138725000Y-125771000D02*
X138725000Y-125517000D01*
X139375000Y-122186000D02*
X139446000Y-122115000D01*
X139375000Y-125293000D02*
X139151000Y-125517000D01*
X139375000Y-124269500D02*
X139375000Y-125293000D01*
X138725000Y-129994500D02*
X138725000Y-128711600D01*
%TO.N,/TXD2*%
X136993779Y-125285448D02*
X136906000Y-125222000D01*
X133096000Y-131826000D02*
X137160000Y-131826000D01*
X131572000Y-131826000D02*
X131318000Y-132080000D01*
X133096000Y-131826000D02*
X131572000Y-131826000D01*
X136772000Y-125088000D02*
X136993779Y-125285448D01*
X136772000Y-125088000D02*
X133194500Y-125088000D01*
X81026000Y-150246000D02*
X82804000Y-150246000D01*
%TO.N,/RXD2*%
X133350000Y-132334000D02*
X132334000Y-132334000D01*
X136809617Y-124587481D02*
X137541481Y-124587481D01*
X137541481Y-124587481D02*
X137668000Y-124714000D01*
X133350000Y-132334000D02*
X137668000Y-132334000D01*
X136809617Y-124587481D02*
X133195019Y-124587481D01*
X81026000Y-153548000D02*
X82804000Y-153548000D01*
X132334000Y-132334000D02*
X132080000Y-132588000D01*
X133195019Y-124587481D02*
X133194500Y-124588000D01*
%TO.N,/SHUTDOWN_C*%
X134148681Y-117638681D02*
X134112000Y-117602000D01*
X134112000Y-118364000D02*
X134112000Y-117602000D01*
X131826000Y-112014000D02*
X132080000Y-112268000D01*
X132300500Y-120175500D02*
X134112000Y-118364000D01*
X134674226Y-117638681D02*
X134148681Y-117638681D01*
X131782000Y-120175500D02*
X132300500Y-120175500D01*
X132080000Y-112268000D02*
X133604000Y-112268000D01*
X134112000Y-117602000D02*
X134112000Y-116141000D01*
X100680202Y-93787663D02*
X100639096Y-93828769D01*
X133604000Y-112268000D02*
X133858000Y-112522000D01*
X117856000Y-112014000D02*
X131826000Y-112014000D01*
X113626091Y-93787663D02*
X100680202Y-93787663D01*
%TO.N,/WDTICK*%
X135636000Y-113284000D02*
X134474952Y-113284000D01*
X131282000Y-120175500D02*
X131282000Y-118908000D01*
X131318000Y-118872000D02*
X131282000Y-118908000D01*
X134474952Y-113284000D02*
X134452803Y-113306149D01*
X132334000Y-118872000D02*
X131318000Y-118872000D01*
%TO.N,Net-(C13-Pad1)*%
X132538000Y-116141000D02*
X132588000Y-116091000D01*
X131064000Y-116141000D02*
X132538000Y-116141000D01*
X131064000Y-117094000D02*
X130302000Y-117094000D01*
X131064000Y-116141000D02*
X129540000Y-116141000D01*
X131064000Y-116141000D02*
X131064000Y-117094000D01*
X130282000Y-117114000D02*
X130282000Y-120175500D01*
X130302000Y-117094000D02*
X130282000Y-117114000D01*
%TO.N,/SHUTDOWN_B*%
X126282000Y-118916000D02*
X126282000Y-120175500D01*
X124968000Y-117475000D02*
X124968000Y-118861500D01*
X124968000Y-116141000D02*
X124968000Y-117475000D01*
X126227500Y-118861500D02*
X126282000Y-118916000D01*
X125349000Y-117475000D02*
X124968000Y-117475000D01*
X124968000Y-118861500D02*
X126227500Y-118861500D01*
X125857000Y-117983000D02*
X125349000Y-117475000D01*
%TO.N,/STATES_B*%
X85359361Y-115163361D02*
X85278000Y-115082000D01*
X87310000Y-118684000D02*
X87376000Y-118618000D01*
X85465500Y-118684000D02*
X87310000Y-118684000D01*
X81026000Y-119380000D02*
X84769500Y-119380000D01*
X86176406Y-115163361D02*
X85359361Y-115163361D01*
X84769500Y-119380000D02*
X85465500Y-118684000D01*
%TO.N,/PAYLOAD_ON_A*%
X90170000Y-75184000D02*
X90170000Y-75438000D01*
X86106000Y-96774000D02*
X85298000Y-96774000D01*
X90170000Y-73152000D02*
X90170000Y-75184000D01*
X92543511Y-71794489D02*
X92456000Y-71882000D01*
X86868000Y-100330000D02*
X85531500Y-100330000D01*
X92543511Y-70006489D02*
X92543511Y-71794489D01*
X91791511Y-72546489D02*
X90775511Y-72546489D01*
X93980000Y-68570000D02*
X92543511Y-70006489D01*
X85531500Y-100330000D02*
X85465500Y-100396000D01*
X92456000Y-71882000D02*
X91791511Y-72546489D01*
X85298000Y-96774000D02*
X85278000Y-96794000D01*
X90775511Y-72546489D02*
X90170000Y-73152000D01*
%TO.N,/PAYLOAD_ON_C*%
X87376000Y-105918000D02*
X87376000Y-107629500D01*
X87376000Y-107629500D02*
X85465500Y-109540000D01*
X101600000Y-77978000D02*
X96012000Y-77978000D01*
X96012000Y-77978000D02*
X95758000Y-78232000D01*
X86106000Y-105918000D02*
X85298000Y-105918000D01*
X85298000Y-105918000D02*
X85278000Y-105938000D01*
X89662000Y-105918000D02*
X87376000Y-105918000D01*
%TO.N,/PAYLOAD_ON_B*%
X95250000Y-77216000D02*
X95250000Y-78740000D01*
X95250000Y-70829399D02*
X95250000Y-77216000D01*
X95504000Y-100330000D02*
X94421500Y-100330000D01*
X94421500Y-100330000D02*
X94355500Y-100396000D01*
X96520000Y-69559399D02*
X95250000Y-70829399D01*
X94996000Y-96774000D02*
X94188000Y-96774000D01*
X96520000Y-68570000D02*
X96520000Y-69559399D01*
X95250000Y-78740000D02*
X96774000Y-80264000D01*
X94188000Y-96774000D02*
X94168000Y-96794000D01*
%TO.N,/STATES_A*%
X81026000Y-110744000D02*
X93151500Y-110744000D01*
X95504000Y-109474000D02*
X94421500Y-109474000D01*
X94168000Y-105938000D02*
X94976000Y-105938000D01*
X94421500Y-109474000D02*
X94355500Y-109540000D01*
X93151500Y-110744000D02*
X94355500Y-109540000D01*
%TO.N,/STATES_C*%
X92456000Y-112268000D02*
X93472000Y-113284000D01*
X93746000Y-115082000D02*
X94168000Y-115082000D01*
X82042000Y-112268000D02*
X92456000Y-112268000D01*
X93472000Y-113284000D02*
X93472000Y-114808000D01*
X93472000Y-114808000D02*
X93746000Y-115082000D01*
X94421500Y-118618000D02*
X94355500Y-118684000D01*
X95504000Y-118618000D02*
X94421500Y-118618000D01*
X94976000Y-115082000D02*
X94996000Y-115062000D01*
X94168000Y-115082000D02*
X94976000Y-115082000D01*
%TO.N,Net-(C24-Pad1)*%
X132067000Y-89794000D02*
X132080000Y-89781000D01*
X129857000Y-89794000D02*
X132067000Y-89794000D01*
%TO.N,/PAYLOAD_RXD-*%
X112522000Y-86360000D02*
X111760000Y-87122000D01*
X129418000Y-91064000D02*
X129794000Y-91440000D01*
X116840000Y-86360000D02*
X112522000Y-86360000D01*
X122428000Y-87884000D02*
X118364000Y-87884000D01*
X126173000Y-91064000D02*
X129418000Y-91064000D01*
X126173000Y-91064000D02*
X125608000Y-91064000D01*
X102870000Y-86106000D02*
X102870000Y-81280000D01*
X131971000Y-91440000D02*
X132080000Y-91331000D01*
X118364000Y-87884000D02*
X116840000Y-86360000D01*
X103886000Y-87122000D02*
X102870000Y-86106000D01*
X111760000Y-87122000D02*
X103886000Y-87122000D01*
X125608000Y-91064000D02*
X122428000Y-87884000D01*
X129794000Y-91440000D02*
X131971000Y-91440000D01*
%TO.N,Net-(C25-Pad1)*%
X132067000Y-99954000D02*
X132080000Y-99941000D01*
X129857000Y-99954000D02*
X132067000Y-99954000D01*
%TO.N,/RADIO_RXD-*%
X126173000Y-101224000D02*
X131813000Y-101224000D01*
X105410000Y-100838000D02*
X119421374Y-100838000D01*
X119421374Y-100838000D02*
X119675374Y-100584000D01*
X131813000Y-101224000D02*
X132080000Y-101491000D01*
X123412000Y-100584000D02*
X124052000Y-101224000D01*
X124052000Y-101224000D02*
X126173000Y-101224000D01*
X82042000Y-89408000D02*
X82042000Y-92456000D01*
X82042000Y-92456000D02*
X97028000Y-92456000D01*
X97028000Y-92456000D02*
X105410000Y-100838000D01*
X119675374Y-100584000D02*
X123412000Y-100584000D01*
%TO.N,/PAYLOAD_RXD+*%
X121412000Y-85344000D02*
X108966000Y-85344000D01*
X107950000Y-86360000D02*
X104140000Y-86360000D01*
X121495521Y-85935521D02*
X121412000Y-85935521D01*
X121412000Y-85935521D02*
X121412000Y-85344000D01*
X125533000Y-89154000D02*
X124714000Y-89154000D01*
X124714000Y-89154000D02*
X121495521Y-85935521D01*
X126173000Y-89794000D02*
X128207000Y-89794000D01*
X126173000Y-89794000D02*
X125533000Y-89154000D01*
X103632000Y-85852000D02*
X103632000Y-82042000D01*
X104140000Y-86360000D02*
X103632000Y-85852000D01*
X108966000Y-85344000D02*
X107950000Y-86360000D01*
%TO.N,/PAYLOAD_TXD+*%
X114046000Y-88900000D02*
X105664000Y-88900000D01*
X105664000Y-88900000D02*
X104902000Y-88138000D01*
X125862000Y-93604000D02*
X122682000Y-90424000D01*
X122682000Y-90424000D02*
X119888000Y-90424000D01*
X102108000Y-85852000D02*
X102108000Y-85344000D01*
X119634000Y-90678000D02*
X118618000Y-90678000D01*
X119888000Y-90424000D02*
X119634000Y-90678000D01*
X115668520Y-90522520D02*
X114046000Y-88900000D01*
X101446520Y-90016520D02*
X101446520Y-86513480D01*
X118618000Y-90678000D02*
X118462520Y-90522520D01*
X101446520Y-86513480D02*
X102108000Y-85852000D01*
X103124000Y-90170000D02*
X101600000Y-90170000D01*
X101600000Y-90170000D02*
X101446520Y-90016520D01*
X126173000Y-93604000D02*
X125862000Y-93604000D01*
X118462520Y-90522520D02*
X115668520Y-90522520D01*
X102108000Y-85344000D02*
X102108000Y-83058000D01*
%TO.N,/PAYLOAD_TXD-*%
X112268000Y-87884000D02*
X105918000Y-87884000D01*
X105918000Y-87884000D02*
X105664000Y-87630000D01*
X84923511Y-74753511D02*
X86818511Y-74753511D01*
X122605520Y-89077520D02*
X119811520Y-89077520D01*
X83820000Y-73650000D02*
X84923511Y-74753511D01*
X119634000Y-88900000D02*
X118618000Y-88900000D01*
X87630000Y-75565000D02*
X87630000Y-76581000D01*
X118364000Y-89154000D02*
X118110000Y-89154000D01*
X119811520Y-89077520D02*
X119634000Y-88900000D01*
X116223040Y-87267040D02*
X112884960Y-87267040D01*
X86818511Y-74753511D02*
X87122000Y-75057000D01*
X125862000Y-92334000D02*
X122605520Y-89077520D01*
X87122000Y-75057000D02*
X87630000Y-75565000D01*
X112884960Y-87267040D02*
X112268000Y-87884000D01*
X118618000Y-88900000D02*
X118364000Y-89154000D01*
X126173000Y-92334000D02*
X125862000Y-92334000D01*
X118110000Y-89154000D02*
X116223040Y-87267040D01*
%TO.N,/RADIO_RXD+*%
X126173000Y-99954000D02*
X124592000Y-99954000D01*
X82550000Y-89662000D02*
X82804000Y-89408000D01*
X119634000Y-99060000D02*
X104648000Y-99060000D01*
X123952000Y-99314000D02*
X119888000Y-99314000D01*
X97536000Y-91948000D02*
X82550000Y-91948000D01*
X99060000Y-93472000D02*
X97536000Y-91948000D01*
X126173000Y-99954000D02*
X128207000Y-99954000D01*
X82550000Y-91948000D02*
X82550000Y-89662000D01*
X119888000Y-99314000D02*
X119634000Y-99060000D01*
X104648000Y-99060000D02*
X99060000Y-93472000D01*
X124592000Y-99954000D02*
X123952000Y-99314000D01*
%TO.N,/RADIO_TXD+*%
X126173000Y-103764000D02*
X123830000Y-103764000D01*
X121666000Y-96520000D02*
X117348000Y-96520000D01*
X98806000Y-91694000D02*
X117348000Y-91694000D01*
%TO.N,/EPS_RESET*%
X95250000Y-138684000D02*
X96520000Y-137414000D01*
X110490000Y-92710000D02*
X102616000Y-92710000D01*
X96520000Y-137414000D02*
X98806000Y-137414000D01*
X92324000Y-140340000D02*
X92456000Y-140208000D01*
X95250000Y-140208000D02*
X95250000Y-138684000D01*
X90932000Y-140340000D02*
X92324000Y-140340000D01*
X92456000Y-140208000D02*
X95250000Y-140208000D01*
X87884000Y-140340000D02*
X90932000Y-140340000D01*
%TO.N,/V_RTC*%
X103124000Y-103378000D02*
X101600000Y-103378000D01*
X111760000Y-73650000D02*
X112863511Y-74753511D01*
X112863511Y-76874489D02*
X111760000Y-77978000D01*
X111125000Y-102489000D02*
X111506000Y-102870000D01*
X104013000Y-102489000D02*
X103124000Y-103378000D01*
X87884000Y-143642000D02*
X91694000Y-143642000D01*
X111125000Y-102489000D02*
X104013000Y-102489000D01*
X111506000Y-102870000D02*
X111760000Y-102870000D01*
X112863511Y-74753511D02*
X112863511Y-76874489D01*
%TO.N,/EPS_5V_USB*%
X105918000Y-119888000D02*
X105980182Y-119950182D01*
X111189818Y-119950182D02*
X111252000Y-119888000D01*
X87884000Y-146944000D02*
X90932000Y-146944000D01*
X91186000Y-133477000D02*
X99822000Y-133477000D01*
X99822000Y-119888000D02*
X105918000Y-119888000D01*
X105980182Y-119950182D02*
X111189818Y-119950182D01*
%TO.N,/Radio_SDA*%
X119380000Y-80000000D02*
X119380000Y-78740000D01*
X119380000Y-78740000D02*
X121920000Y-76200000D01*
%TO.N,/Radio_SCLK*%
X124460000Y-77460000D02*
X124460000Y-76200000D01*
X121920000Y-80000000D02*
X124460000Y-77460000D01*
%TO.N,/Power_SDA*%
X127000000Y-76200000D02*
X127000000Y-80000000D01*
%TO.N,/Power_SCLK*%
X129540000Y-76200000D02*
X129540000Y-80000000D01*
%TO.N,/PLD_SDA*%
X132080000Y-76200000D02*
X132080000Y-80000000D01*
%TO.N,/PLD_SCLK*%
X134620000Y-76200000D02*
X134620000Y-80000000D01*
%TO.N,/SDA_EXT*%
X140025000Y-128849000D02*
X140350000Y-128524000D01*
X132080000Y-81300000D02*
X132060000Y-81300000D01*
X119400000Y-81300000D02*
X119380000Y-81300000D01*
X127000000Y-83312000D02*
X122428000Y-83312000D01*
X140970000Y-128524000D02*
X141478000Y-128524000D01*
X137922000Y-105410000D02*
X140970000Y-105410000D01*
X121412000Y-83312000D02*
X119400000Y-81300000D01*
X140350000Y-128524000D02*
X140970000Y-128524000D01*
X132060000Y-81300000D02*
X130048000Y-83312000D01*
X129032000Y-83312000D02*
X127000000Y-83312000D01*
X127000000Y-83312000D02*
X127000000Y-81300000D01*
X140025000Y-129994500D02*
X140025000Y-128849000D01*
%TO.N,/SCL_EXT*%
X140025000Y-122865000D02*
X140025000Y-124269500D01*
X129540000Y-84582000D02*
X134620000Y-84582000D01*
X139954000Y-84582000D02*
X134620000Y-84582000D01*
X122174000Y-84582000D02*
X121920000Y-84328000D01*
X129540000Y-84582000D02*
X122174000Y-84582000D01*
X140462000Y-122428000D02*
X140025000Y-122865000D01*
X129540000Y-84582000D02*
X129540000Y-81300000D01*
X134620000Y-84582000D02*
X134620000Y-81300000D01*
X121920000Y-81300000D02*
X121920000Y-84328000D01*
%TO.N,Net-(R5-Pad1)*%
X103314000Y-129291000D02*
X103187000Y-129164000D01*
X105112000Y-129291000D02*
X103314000Y-129291000D01*
%TO.N,Net-(R6-Pad1)*%
X103314000Y-130561000D02*
X103187000Y-130688000D01*
X105112000Y-130561000D02*
X103314000Y-130561000D01*
%TO.N,Net-(R7-Pad1)*%
X103754000Y-132212000D02*
X103187000Y-132212000D01*
X104135000Y-131831000D02*
X103754000Y-132212000D01*
X105112000Y-131831000D02*
X104135000Y-131831000D01*
%TO.N,Net-(R27-Pad1)*%
X121223000Y-89794000D02*
X119189000Y-89794000D01*
%TO.N,Net-(R28-Pad1)*%
X119189000Y-99954000D02*
X121223000Y-99954000D01*
%TO.N,/RADIO_TXD-*%
X118364000Y-95758000D02*
X122174000Y-95758000D01*
X118236520Y-91058520D02*
X118364000Y-91186000D01*
X118110000Y-91058520D02*
X118236520Y-91058520D01*
X126051000Y-102616000D02*
X124430636Y-102616000D01*
X113538000Y-90932000D02*
X113664520Y-91058520D01*
X113538000Y-90932000D02*
X112522000Y-90932000D01*
X112522000Y-90932000D02*
X98806000Y-90932000D01*
X113664520Y-91058520D02*
X114203616Y-91058520D01*
X114203616Y-91058520D02*
X118110000Y-91058520D01*
X126173000Y-102494000D02*
X126051000Y-102616000D01*
%TD*%
M02*
