%TF.GenerationSoftware,KiCad,Pcbnew,(6.0.4)*%
%TF.CreationDate,2022-07-08T23:35:13-04:00*%
%TF.ProjectId,Avionics_Board,4176696f-6e69-4637-935f-426f6172642e,rev?*%
%TF.SameCoordinates,Original*%
%TF.FileFunction,Profile,NP*%
%FSLAX46Y46*%
G04 Gerber Fmt 4.6, Leading zero omitted, Abs format (unit mm)*
G04 Created by KiCad (PCBNEW (6.0.4)) date 2022-07-08 23:35:13*
%MOMM*%
%LPD*%
G01*
G04 APERTURE LIST*
%TA.AperFunction,Profile*%
%ADD10C,0.200000*%
%TD*%
%TA.AperFunction,Profile*%
%ADD11C,0.100000*%
%TD*%
G04 APERTURE END LIST*
D10*
X62230000Y-158191200D02*
X62230000Y-122747018D01*
X117421200Y-66421000D02*
G75*
G03*
X118615000Y-65227200I0J1193800D01*
G01*
X63182500Y-121577859D02*
G75*
G03*
X64135000Y-120408700I-241300J1169159D01*
G01*
X151206200Y-159385000D02*
X119808800Y-159385000D01*
X147828000Y-85293200D02*
X147828000Y-64693800D01*
X117421200Y-66421000D02*
X99488800Y-66421000D01*
X64135000Y-102476300D02*
X64135000Y-120408700D01*
X119808800Y-63500000D02*
G75*
G03*
X118615000Y-64693800I0J-1193800D01*
G01*
X62230018Y-100137982D02*
G75*
G03*
X63182500Y-101307141I1193782J-18D01*
G01*
X98295000Y-65227200D02*
G75*
G03*
X99488800Y-66421000I1193800J0D01*
G01*
X62230000Y-100137982D02*
X62230000Y-64693800D01*
X152400000Y-87680800D02*
X152400000Y-158191200D01*
X63423800Y-63500000D02*
X97101200Y-63500000D01*
X64135000Y-102476300D02*
G75*
G03*
X63182500Y-101307141I-1193800J0D01*
G01*
X62230000Y-158191200D02*
G75*
G03*
X63423800Y-159385000I1193800J0D01*
G01*
X97101200Y-159385000D02*
X63423800Y-159385000D01*
X99488800Y-156464000D02*
G75*
G03*
X98295000Y-157657800I0J-1193800D01*
G01*
X118615000Y-158191200D02*
G75*
G03*
X119808800Y-159385000I1193800J0D01*
G01*
X98295000Y-64693800D02*
G75*
G03*
X97101200Y-63500000I-1193800J0D01*
G01*
X98295000Y-65227200D02*
X98295000Y-64693800D01*
D11*
X115321000Y-111430000D02*
G75*
G03*
X115321000Y-111430000I-8001000J0D01*
G01*
D10*
X151206200Y-86487000D02*
X149021800Y-86487000D01*
X119808800Y-63500000D02*
X146634200Y-63500000D01*
X151206200Y-159385000D02*
G75*
G03*
X152400000Y-158191200I0J1193800D01*
G01*
X118615000Y-64693800D02*
X118615000Y-65227200D01*
X63182496Y-121577842D02*
G75*
G03*
X62230000Y-122747018I241304J-1169158D01*
G01*
X147828000Y-64693800D02*
G75*
G03*
X146634200Y-63500000I-1193800J0D01*
G01*
X99488800Y-156464000D02*
X117421200Y-156464000D01*
X98295000Y-158191200D02*
X98295000Y-157657800D01*
X118615000Y-157657800D02*
X118615000Y-158191200D01*
X97101200Y-159385000D02*
G75*
G03*
X98295000Y-158191200I0J1193800D01*
G01*
X63423800Y-63500000D02*
G75*
G03*
X62230000Y-64693800I0J-1193800D01*
G01*
X118615000Y-157657800D02*
G75*
G03*
X117421200Y-156464000I-1193800J0D01*
G01*
X152400000Y-87680800D02*
G75*
G03*
X151206200Y-86487000I-1193800J0D01*
G01*
X147828000Y-85293200D02*
G75*
G03*
X149021800Y-86487000I1193800J0D01*
G01*
M02*
