M48
; DRILL file {KiCad (6.0.4)} date Fri Jul  8 23:36:04 2022
; FORMAT={-:-/ absolute / inch / decimal}
; #@! TF.CreationDate,2022-07-08T23:36:04-04:00
; #@! TF.GenerationSoftware,Kicad,Pcbnew,(6.0.4)
; #@! TF.FileFunction,MixedPlating,1,4
FMAT,2
INCH
; #@! TA.AperFunction,Plated,PTH,ViaDrill
T1C0.0100
; #@! TA.AperFunction,Plated,PTH,ComponentDrill
T2C0.0236
; #@! TA.AperFunction,Plated,PTH,ComponentDrill
T3C0.0315
; #@! TA.AperFunction,Plated,PTH,ComponentDrill
T4C0.0335
; #@! TA.AperFunction,Plated,PTH,ComponentDrill
T5C0.0354
; #@! TA.AperFunction,Plated,PTH,ComponentDrill
T6C0.0394
; #@! TA.AperFunction,Plated,PTH,ComponentDrill
T7C0.0980
; #@! TA.AperFunction,Plated,PTH,ComponentDrill
T8C0.1260
%
G90
G05
T1
X2.5338Y-3.2862
X2.67Y-2.91
X2.67Y-3.8252
X2.69Y-3.8052
X2.71Y-4.2152
X2.74Y-3.74
X2.74Y-3.785
X2.88Y-3.23
X3.004Y-3.566
X3.11Y-5.16
X3.11Y-5.37
X3.11Y-5.56
X3.11Y-5.68
X3.19Y-4.36
X3.19Y-4.7
X3.2Y-3.8352
X3.22Y-3.9552
X3.22Y-4.3152
X3.22Y-4.6752
X3.23Y-3.52
X3.23Y-4.42
X3.24Y-3.2552
X3.24Y-3.8152
X3.24Y-4.1752
X3.24Y-4.5352
X3.26Y-3.52
X3.26Y-5.5252
X3.26Y-5.6552
X3.26Y-5.7852
X3.26Y-5.9152
X3.26Y-6.0452
X3.26Y-6.1752
X3.28Y-4.98
X3.3029Y-4.2023
X3.3088Y-4.5664
X3.335Y-4.025
X3.385Y-4.44
X3.39Y-3.52
X3.39Y-3.81
X3.39Y-4.17
X3.3928Y-4.534
X3.4Y-5.37
X3.42Y-3.71
X3.42Y-3.95
X3.4247Y-3.4147
X3.44Y-4.04
X3.44Y-4.17
X3.44Y-4.67
X3.45Y-3.015
X3.45Y-3.55
X3.465Y-3.265
X3.475Y-3.845
X3.51Y-3.36
X3.52Y-3.7552
X3.52Y-4.1152
X3.52Y-4.4752
X3.52Y-5.22
X3.53Y-3.52
X3.53Y-4.17
X3.53Y-6.0452
X3.55Y-2.97
X3.56Y-3.8352
X3.56Y-5.18
X3.57Y-3.9552
X3.57Y-4.3152
X3.57Y-4.6752
X3.58Y-5.14
X3.58Y-5.7852
X3.59Y-3.8152
X3.59Y-4.1752
X3.59Y-4.5352
X3.59Y-5.255
X3.6Y-3.52
X3.61Y-5.1
X3.61Y-5.6552
X3.64Y-3.4713
X3.64Y-5.06
X3.65Y-3.21
X3.6588Y-4.2064
X3.6588Y-4.5564
X3.66Y-3.4452
X3.68Y-4.84
X3.68Y-5.01
X3.7392Y-4.1708
X3.74Y-3.81
X3.74Y-4.53
X3.76Y-3.95
X3.76Y-4.31
X3.76Y-4.67
X3.7695Y-4.0695
X3.77Y-3.08
X3.77Y-3.71
X3.77Y-4.435
X3.81Y-3.16
X3.87Y-3.7552
X3.87Y-4.1152
X3.87Y-4.4752
X3.89Y-3.4752
X3.89Y-3.58
X3.89Y-3.61
X3.89Y-5.41
X3.93Y-4.72
X3.93Y-5.255
X3.95Y-5.0652
X3.95Y-5.1052
X3.95Y-5.1452
X3.95Y-5.1852
X3.95Y-5.2252
X3.9622Y-3.694
X3.97Y-4.04
X3.97Y-5.01
X3.9975Y-5.2475
X4.0Y-3.07
X4.0Y-4.07
X4.01Y-3.11
X4.02Y-3.27
X4.03Y-5.3252
X4.04Y-3.65
X4.05Y-3.2
X4.06Y-3.55
X4.07Y-5.25
X4.08Y-3.23
X4.08Y-4.0
X4.09Y-3.55
X4.09Y-4.93
X4.09Y-5.3252
X4.13Y-3.47
X4.1484Y-3.0434
X4.15Y-2.75
X4.15Y-5.3252
X4.16Y-3.45
X4.19Y-3.81
X4.21Y-5.3252
X4.25Y-3.25
X4.31Y-4.84
X4.32Y-5.02
X4.35Y-3.65
X4.38Y-4.72
X4.4Y-3.07
X4.4Y-4.05
X4.425Y-3.12
X4.47Y-3.92
X4.47Y-5.02
X4.4735Y-3.6924
X4.48Y-5.2452
X4.49Y-5.14
X4.5Y-4.85
X4.5Y-5.1952
X4.5048Y-3.1752
X4.52Y-4.71
X4.54Y-4.61
X4.58Y-4.0
X4.58Y-4.43
X4.58Y-4.76
X4.58Y-4.96
X4.5852Y-3.9352
X4.59Y-3.53
X4.59Y-5.01
X4.59Y-5.17
X4.59Y-5.2
X4.62Y-3.61
X4.62Y-3.8
X4.63Y-4.93
X4.63Y-5.07
X4.64Y-4.41
X4.64Y-4.88
X4.65Y-4.53
X4.66Y-3.59
X4.66Y-3.77
X4.6775Y-4.9425
X4.68Y-3.48
X4.7Y-3.6813
X4.7Y-4.0913
X4.7061Y-4.1352
X4.71Y-3.25
X4.71Y-3.7313
X4.76Y-5.59
X4.77Y-5.05
X4.78Y-3.28
X4.785Y-4.975
X4.79Y-3.8
X4.79Y-4.75
X4.79Y-4.81
X4.79Y-4.92
X4.81Y-3.77
X4.81Y-5.05
X4.81Y-5.11
X4.82Y-3.28
X4.82Y-4.46
X4.82Y-4.68
X4.825Y-4.39
X4.83Y-3.6
X4.84Y-4.81
X4.84Y-4.91
X4.85Y-4.61
X4.85Y-4.78
X4.85Y-5.31
X4.854Y-4.846
X4.87Y-3.71
X4.87Y-5.08
X4.8752Y-4.0852
X4.8775Y-3.6575
X4.88Y-4.6
X4.88Y-4.71
X4.89Y-5.43
X4.8988Y-4.04
X4.9Y-4.29
X4.9Y-4.66
X4.9Y-5.05
X4.91Y-5.19
X4.92Y-3.86
X4.92Y-5.13
X4.93Y-4.73
X4.95Y-4.23
X4.95Y-5.26
X4.955Y-4.645
X4.96Y-4.92
X4.9643Y-4.8657
X4.97Y-5.28
X4.9717Y-5.1183
X4.98Y-5.61
X4.98Y-5.7
X4.99Y-4.456
X4.99Y-5.01
X4.9914Y-4.6386
X5.0Y-5.13
X5.01Y-4.78
X5.02Y-4.63
X5.02Y-5.0
X5.02Y-5.26
X5.0206Y-6.1198
X5.03Y-5.12
X5.04Y-4.29
X5.04Y-4.46
X5.05Y-3.48
X5.05Y-3.88
X5.05Y-5.26
X5.07Y-4.13
X5.07Y-4.46
X5.07Y-5.01
X5.08Y-3.28
X5.08Y-4.61
X5.08Y-4.78
X5.08Y-5.36
X5.09Y-5.25
X5.1Y-4.09
X5.1Y-4.38
X5.1Y-4.46
X5.1Y-4.67
X5.1002Y-5.7602
X5.105Y-4.615
X5.11Y-5.39
X5.11Y-6.12
X5.12Y-3.28
X5.13Y-3.72
X5.13Y-5.12
X5.14Y-5.23
X5.14Y-5.42
X5.1489Y-5.0111
X5.15Y-4.64
X5.155Y-3.435
X5.16Y-3.825
X5.16Y-4.23
X5.16Y-4.46
X5.16Y-4.91
X5.16Y-5.73
X5.165Y-5.665
X5.17Y-4.95
X5.17Y-5.11
X5.17Y-5.2
X5.19Y-4.88
X5.1966Y-4.8066
X5.2Y-4.39
X5.2Y-4.84
X5.2Y-5.22
X5.21Y-4.68
X5.22Y-4.46
X5.23Y-4.74
X5.23Y-5.32
X5.25Y-3.79
X5.26Y-5.04
X5.27Y-4.335
X5.27Y-4.43
X5.28Y-4.26
X5.28Y-4.73
X5.28Y-5.8013
X5.2934Y-4.4609
X5.3021Y-4.6314
X5.31Y-4.87
X5.31Y-5.47
X5.31Y-5.56
X5.32Y-5.66
X5.32Y-6.13
X5.33Y-4.05
X5.33Y-4.97
X5.33Y-5.25
X5.35Y-5.01
X5.35Y-5.14
X5.35Y-5.34
X5.36Y-4.56
X5.37Y-4.23
X5.37Y-5.94
X5.3774Y-4.5074
X5.3796Y-4.8305
X5.3796Y-4.8683
X5.38Y-4.29
X5.38Y-4.72
X5.38Y-4.99
X5.39Y-4.16
X5.3935Y-4.9325
X5.4Y-5.19
X5.42Y-4.91
X5.42Y-5.21
X5.42Y-5.3
X5.43Y-4.15
X5.43Y-4.51
X5.4616Y-4.9616
X5.4616Y-5.0674
X5.48Y-5.58
X5.49Y-3.89
X5.49Y-4.7
X5.51Y-3.33
X5.53Y-4.82
X5.54Y-4.85
X5.55Y-4.15
X5.57Y-3.93
X5.57Y-3.98
X5.57Y-4.1
X5.57Y-5.06
X5.5752Y-3.8752
X5.58Y-4.01
X5.58Y-4.42
X5.58Y-4.71
X5.59Y-4.84
X5.59Y-5.24
X5.6Y-3.84
X5.61Y-5.67
X5.63Y-5.21
X5.66Y-4.39
X5.66Y-4.89
X5.66Y-5.03
X5.6629Y-5.1179
X5.67Y-4.92
X5.68Y-4.58
X5.7Y-4.26
X5.7Y-5.275
X5.73Y-4.71
X5.75Y-5.39
X5.8848Y-5.6752
T3
X5.0204Y-5.8848
X5.0204Y-6.1848
X5.1204Y-5.8848
X5.1204Y-6.1848
X5.2204Y-5.8848
X5.2204Y-6.1848
X5.3204Y-5.8848
X5.3204Y-6.1848
T4
X2.6173Y-3.6768
X2.6173Y-3.8736
T5
X2.8Y-4.8752
X2.8Y-4.9752
X2.8Y-5.0752
X2.8Y-5.1752
X2.8Y-5.2752
X2.8Y-5.3752
X2.8Y-5.4752
X2.8Y-5.5752
X2.8Y-5.6752
X2.8Y-5.7752
T6
X3.0Y-2.7
X3.0Y-2.8
X3.0Y-2.9
X3.0Y-3.0
X3.1Y-2.6996
X3.1Y-2.8
X3.1Y-2.8996
X3.1Y-3.0
X3.2Y-2.6996
X3.2Y-2.8
X3.2Y-2.8996
X3.2Y-3.0
X3.3Y-2.6996
X3.3Y-2.8
X3.3Y-2.8996
X3.3Y-3.0
X3.4Y-2.6996
X3.4Y-2.8
X3.4Y-2.8996
X3.4Y-3.0
X3.5Y-2.6996
X3.5Y-2.8
X3.5Y-2.8996
X3.5Y-3.0
X3.6Y-2.6996
X3.6Y-2.8
X3.6Y-2.8996
X3.6Y-3.0
X3.7Y-2.6996
X3.7Y-2.8
X3.7Y-2.8996
X3.7Y-3.0
X3.8Y-2.6996
X3.8Y-2.8
X3.8Y-2.8996
X3.8Y-3.0
X3.9Y-2.6996
X3.9Y-2.8
X3.9Y-2.8996
X3.9Y-3.0
X3.9937Y-5.4989
X3.9937Y-5.9989
X4.0Y-2.6996
X4.0Y-2.8
X4.0Y-2.8996
X4.0Y-3.0
X4.0937Y-5.4989
X4.0937Y-5.9989
X4.1Y-2.6996
X4.1Y-2.8
X4.1Y-2.8996
X4.1Y-3.0
X4.1937Y-5.4989
X4.1937Y-5.9989
X4.2Y-2.6996
X4.2Y-2.8
X4.2Y-2.8996
X4.2Y-3.0
X4.2937Y-5.4989
X4.2937Y-5.9989
X4.3Y-2.6996
X4.3Y-2.8
X4.3Y-2.8996
X4.3Y-3.0
X4.3937Y-5.4989
X4.3937Y-5.9989
X4.4Y-2.6996
X4.4Y-2.8
X4.4Y-2.8996
X4.4Y-3.0
X4.4937Y-5.4989
X4.4937Y-5.9989
X4.5Y-2.6996
X4.5Y-2.8
X4.5Y-2.8996
X4.5Y-3.0
X4.6Y-2.6996
X4.6Y-2.8
X4.6Y-2.8996
X4.6Y-3.0
X4.7Y-2.6996
X4.7Y-2.8
X4.7Y-2.8996
X4.7Y-3.0
X4.8Y-2.6996
X4.8Y-2.8
X4.8Y-2.8996
X4.8Y-3.0
X4.9Y-2.6996
X4.9Y-2.8
X4.9Y-2.8996
X4.9Y-3.0
X5.0Y-2.6996
X5.0Y-2.8
X5.0Y-2.8996
X5.0Y-3.0
X5.1Y-2.6996
X5.1Y-2.8
X5.1Y-2.8996
X5.1Y-3.0
X5.2Y-2.6996
X5.2Y-2.8
X5.2Y-2.8996
X5.2Y-3.0
X5.3Y-2.6996
X5.3Y-2.8
X5.3Y-2.8996
X5.3Y-3.0
X5.4Y-2.6996
X5.4Y-2.8
X5.4Y-2.8996
X5.4Y-3.0
X5.5Y-2.6996
X5.5Y-2.8
X5.5Y-2.8996
X5.5Y-3.0
X5.7Y-5.4752
X5.7Y-5.5752
X5.7Y-5.6752
X5.8Y-4.2752
X5.8Y-4.3752
X5.8Y-4.4752
X5.8Y-4.5752
X5.8Y-4.6752
X5.8Y-4.7752
X5.8Y-4.8752
X5.8Y-4.9752
X5.8Y-5.1752
X5.8Y-5.2752
X5.8Y-5.4752
X5.8Y-5.5752
X5.8Y-5.6752
T7
X3.8437Y-5.4989
X3.8437Y-5.9989
X4.6437Y-5.4989
X4.6437Y-5.9989
T8
X2.65Y-6.075
X2.8Y-2.7
X5.7Y-2.7
X5.8Y-6.0752
T2
G00X2.4972Y-3.6374
M15
G01X2.5248Y-3.6374
M16
G05
G00X2.5248Y-3.913
M15
G01X2.4972Y-3.913
M16
G05
T0
M30
