999
DXF file: avionics_board_layout_04182022.dxf
999
Pro/ENGINEER 2021063 by Parametric Technology Corporation
  0
SECTION
  2
HEADER
  9
$ACADVER
  1
AC1032
  9
$DWGCODEPAGE
  3
ANSI_1252
  9
$EXTMAX
 10
11.0
 20
8.5
 30
0.0
  9
$EXTMIN
 10
0.0
 20
0.0
 30
0.0
  9
$LIMMIN
 10
0.0
 20
0.0
  9
$LIMMAX
 10
11.0
 20
8.5
  9
$VIEWCTR
 10
5.5
 20
4.25
  9
$VIEWSIZE
 40
8.5
  9
$CLAYER
  8
0
  9
$LTSCALE
 40
0.605
  9
$CELTYPE
  6
BYLAYER
  9
$DIMSCALE
 40
1.0
  9
$DIMASZ
 40
0.1875
  9
$DIMEXO
 40
0.0625
  9
$DIMDLI
 40
0.418
  9
$DIMEXE
 40
0.125
  9
$DIMCEN
 40
0.099
  9
$DIMLFAC
 40
1.0
  9
$DIMBLK
  1
_FILLED
  9
$DIMALT
 70
0
  9
$DIMALTF
 40
25.4
  9
$DIMTXT
 40
0.15625
  9
$DIMTOL
 70
0
  9
$DIMLIM
 70
0
  9
$DIMTFAC
 40
1.0
  9
$DIMGAP
 40
0.09
  9
$DIMDSEP
 70
46
  9
$AUNITS
 70
0
  9
$PDMODE
 70
3
  9
$PDSIZE
 40
0.3125
  9
$HANDSEED
  5
30F
  9
$TILEMODE
 70
1
  9
$MEASUREMENT
 70
0
  9
$INSUNITS
 70
1
  0
ENDSEC
  0
SECTION
  2
CLASSES
  0
CLASS
  1
ACDBDICTIONARYWDFLT
  2
AcDbDictionaryWithDefault
  3
AutoCAD 2000
 90
0
 91
1
280
0
281
0
  0
CLASS
  1
ACDBPLACEHOLDER
  2
AcDbPlaceHolder
  3
AutoCAD 2000
 90
0
 91
1
280
0
281
0
  0
CLASS
  1
LAYOUT
  2
AcDbLayout
  3
AutoCAD 2000
 90
0
 91
0
280
0
281
0
  0
ENDSEC
  0
SECTION
  2
TABLES
  0
TABLE
  2
VPORT
  5
8
100
AcDbSymbolTable
 70
2
  0
VPORT
  5
1F4
100
AcDbSymbolTableRecord
100
AcDbViewportTableRecord
  2
*ACTIVE
 70
0
 10
0.0
 20
0.0
 11
1.0
 21
1.0
 12
5.5
 22
4.25
 13
0.0
 23
0.0
 14
1.0
 24
1.0
 15
0.0
 25
0.0
 16
0.0
 26
0.0
 36
1.0
 17
0.0
 27
0.0
 37
0.0
 40
8.5
 41
1.2941176471
 42
50.0
 43
0.0
 44
0.0
 50
0.0
 51
0.0
 71
0
 72
100
 73
1
 74
1
 75
0
 76
0
 77
0
 78
0
  0
ENDTAB
  0
TABLE
  2
LTYPE
  5
5
100
AcDbSymbolTable
 70
6
  0
LTYPE
  5
14
100
AcDbSymbolTableRecord
100
AcDbLinetypeTableRecord
  2
BYBLOCK
 70
0
  3

 72
65
 73
0
 40
0.0
  0
LTYPE
  5
15
100
AcDbSymbolTableRecord
100
AcDbLinetypeTableRecord
  2
BYLAYER
 70
0
  3

 72
65
 73
0
 40
0.0
  0
LTYPE
  5
16
100
AcDbSymbolTableRecord
100
AcDbLinetypeTableRecord
  2
CONTINUOUS
 70
64
  3
Solid line
 72
65
 73
0
 40
0.0
  0
LTYPE
  5
1F5
100
AcDbSymbolTableRecord
100
AcDbLinetypeTableRecord
  2
CENTER
 70
64
  3
____ _ ____ _ ____ _ ____ _ ____ _ ____ _ ____
 72
65
 73
4
 40
0.6
 49
0.375
 74
0
 49
-0.075
 74
0
 49
0.075
 74
0
 49
-0.075
 74
0
  0
LTYPE
  5
1F6
100
AcDbSymbolTableRecord
100
AcDbLinetypeTableRecord
  2
HIDDEN
 70
64
  3
- - - - - - - - - - - - - - - - - - - -
 72
65
 73
2
 40
0.2
 49
0.1
 74
0
 49
-0.1
 74
0
  0
LTYPE
  5
1F7
100
AcDbSymbolTableRecord
100
AcDbLinetypeTableRecord
  2
PHANTOM
 70
64
  3
_____ _ _ _____ _ _ _____ _ _ _____
 72
65
 73
6
 40
0.8
 49
0.45
 74
0
 49
-0.05
 74
0
 49
0.1
 74
0
 49
-0.05
 74
0
 49
0.1
 74
0
 49
-0.05
 74
0
  0
LTYPE
  5
1F8
100
AcDbSymbolTableRecord
100
AcDbLinetypeTableRecord
  2
DOT
 70
64
  3
. . . . . . . . . . . . . . . . . . . .
 72
65
 73
2
 40
0.2
 49
0.1
 74
0
 49
-0.1
 74
0
  0
LTYPE
  5
1F9
100
AcDbSymbolTableRecord
100
AcDbLinetypeTableRecord
  2
DASHED
 70
64
  3
- - - - - - - - - - - - - - - - - - - -
 72
65
 73
2
 40
0.2
 49
0.1
 74
0
 49
-0.1
 74
0
  0
ENDTAB
  0
TABLE
  2
LAYER
  5
2
100
AcDbSymbolTable
 70
36
  0
LAYER
  5
10
100
AcDbSymbolTableRecord
100
AcDbLayerTableRecord
  2
0
 70
0
 62
7
  6
CONTINUOUS
370
-3
390
F
  0
LAYER
  5
1FA
100
AcDbSymbolTableRecord
100
AcDbLayerTableRecord
  2
DEFAULT_1
 70
0
 62
7
  6
CENTER
370
-3
390
F
  0
LAYER
  5
1FB
100
AcDbSymbolTableRecord
100
AcDbLayerTableRecord
  2
DEFAULT_2
 70
0
 62
8
  6
HIDDEN
370
-3
390
F
  0
LAYER
  5
1FC
100
AcDbSymbolTableRecord
100
AcDbLayerTableRecord
  2
DEFAULT_3
 70
0
 62
7
  6
PHANTOM
370
-3
390
F
  0
LAYER
  5
1FD
100
AcDbSymbolTableRecord
100
AcDbLayerTableRecord
  2
01___PRT_ALL_DTM_PLN
 70
0
 62
7
  6
CONTINUOUS
370
-3
390
F
  0
LAYER
  5
1FE
100
AcDbSymbolTableRecord
100
AcDbLayerTableRecord
  2
01___PRT_DEF_DTM_PLN
 70
0
 62
7
  6
CONTINUOUS
370
-3
390
F
  0
LAYER
  5
1FF
100
AcDbSymbolTableRecord
100
AcDbLayerTableRecord
  2
02___PRT_ALL_AXES
 70
0
 62
7
  6
CONTINUOUS
370
-3
390
F
  0
LAYER
  5
200
100
AcDbSymbolTableRecord
100
AcDbLayerTableRecord
  2
03___PRT_ALL_CURVES
 70
0
 62
7
  6
CONTINUOUS
370
-3
390
F
  0
LAYER
  5
201
100
AcDbSymbolTableRecord
100
AcDbLayerTableRecord
  2
04___PRT_ALL_DTM_PNT
 70
0
 62
7
  6
CONTINUOUS
370
-3
390
F
  0
LAYER
  5
202
100
AcDbSymbolTableRecord
100
AcDbLayerTableRecord
  2
05___PRT_ALL_DTM_CSYS
 70
0
 62
7
  6
CONTINUOUS
370
-3
390
F
  0
LAYER
  5
203
100
AcDbSymbolTableRecord
100
AcDbLayerTableRecord
  2
05___PRT_DEF_DTM_CSYS
 70
0
 62
7
  6
CONTINUOUS
370
-3
390
F
  0
LAYER
  5
204
100
AcDbSymbolTableRecord
100
AcDbLayerTableRecord
  2
06___PRT_ALL_SURFS
 70
0
 62
7
  6
CONTINUOUS
370
-3
390
F
  0
ENDTAB
  0
TABLE
  2
STYLE
  5
3
100
AcDbSymbolTable
 70
1
  0
STYLE
  5
11
100
AcDbSymbolTableRecord
100
AcDbTextStyleTableRecord
  2
STANDARD
 70
0
 40
0.0
 41
0.8
 50
0.0
 71
0
 42
0.2
  3
txt
  4

  0
STYLE
  5
205
100
AcDbSymbolTableRecord
100
AcDbTextStyleTableRecord
  2
TEXTSTYLE_1
 70
0
 40
0.0
 41
0.8
 50
0.0
 71
0
 42
0.2
  3
gdt
  4

  0
ENDTAB
  0
TABLE
  2
VIEW
  5
6
100
AcDbSymbolTable
 70
0
  0
ENDTAB
  0
TABLE
  2
UCS
  5
7
100
AcDbSymbolTable
 70
0
  0
ENDTAB
  0
TABLE
  2
APPID
  5
9
100
AcDbSymbolTable
 70
1
  0
APPID
  5
206
100
AcDbSymbolTableRecord
100
AcDbRegAppTableRecord
  2
ACAD
 70
0
  0
ENDTAB
  0
TABLE
  2
BLOCK_RECORD
  5
1
100
AcDbSymbolTable
 70
0
  0
BLOCK_RECORD
  5
207
100
AcDbSymbolTableRecord
100
AcDbBlockTableRecord
  2
*Model_Space
  0
BLOCK_RECORD
  5
208
100
AcDbSymbolTableRecord
100
AcDbBlockTableRecord
  2
*Paper_Space
  0
BLOCK_RECORD
  5
209
100
AcDbSymbolTableRecord
100
AcDbBlockTableRecord
  2
_FILLED
  0
ENDTAB
  0
TABLE
  2
DIMSTYLE
  5
A
100
AcDbSymbolTable
 70
1
100
AcDbDimStyleTable
 71
0
  0
DIMSTYLE
105
20A
100
AcDbSymbolTableRecord
100
AcDbDimStyleTableRecord
  2
STANDARD
 70
0
  3

  4

 40
1.0
 41
0.1875
 42
0.0625
 43
0.38
 44
0.125
 45
0.0
 46
0.0
 47
0.01
 48
0.01
140
0.15625
141
0.09
142
0.0
143
25.4
144
1.0
145
0.0
146
1.0
147
0.09
 71
0
 72
0
 73
1
 74
1
 75
0
 76
0
 77
0
 78
4
 79
1
170
0
171
1
172
0
173
0
174
0
175
0
176
0
177
0
178
0
270
2
179
2
271
2
272
2
273
2
274
2
275
0
280
0
281
0
282
0
283
1
284
4
285
0
286
0
287
3
288
0
340
11
278
46
341
209
342
209
343
209
344
209
  0
ENDTAB
  0
ENDSEC
  0
SECTION
  2
BLOCKS
  0
BLOCK
  5
20
100
AcDbEntity
  8
0
100
AcDbBlockBegin
  2
*Model_Space
 70
0
 10
0.0
 20
0.0
 30
0.0
  3
*Model_Space
  1

  0
ENDBLK
  5
21
100
AcDbEntity
  8
0
100
AcDbBlockEnd
  0
BLOCK
  5
1C
100
AcDbEntity
  8
0
100
AcDbBlockBegin
  2
*Paper_Space
 70
0
 10
0.0
 20
0.0
 30
0.0
  3
*Paper_Space
  1

  0
ENDBLK
  5
1D
100
AcDbEntity
  8
0
100
AcDbBlockEnd
  0
BLOCK
  5
20B
100
AcDbEntity
  8
0
100
AcDbBlockBegin
  2
_FILLED
 70
64
 10
0.0
 20
0.0
  3
_FILLED
  1

  0
SOLID
  5
20C
100
AcDbEntity
  8
0
  6
BYBLOCK
 62
0
100
AcDbTrace
 10
0.0
 20
0.0
 11
-1.0
 21
0.1666666667
 12
-1.0
 22
-0.1666666667
 13
-1.0
 23
-0.1666666667
  0
ENDBLK
  5
20D
100
AcDbEntity
  8
0
  6
BYBLOCK
 62
0
100
AcDbBlockEnd
  0
ENDSEC
  0
SECTION
  2
ENTITIES
  0
LINE
  5
20E
100
AcDbEntity
  8
0
100
AcDbLine
 62
7
  6
CONTINUOUS
 10
0.0
 20
0.0
 11
0.0
 21
8.5
  0
LINE
  5
20F
100
AcDbEntity
  8
0
100
AcDbLine
 62
7
  6
CONTINUOUS
 10
0.0
 20
0.0
 11
11.0
 21
0.0
  0
LINE
  5
210
100
AcDbEntity
  8
0
100
AcDbLine
 62
7
  6
CONTINUOUS
 10
0.0
 20
8.5
 11
11.0
 21
8.5
  0
LINE
  5
211
100
AcDbEntity
  8
0
100
AcDbLine
 62
7
  6
CONTINUOUS
 10
11.0
 20
0.0
 11
11.0
 21
8.5
  0
LINE
  5
212
100
AcDbEntity
  8
0
100
AcDbLine
 62
7
  6
CONTINUOUS
 10
3.3191028243
 20
1.9279894277
 11
4.6131973125
 21
1.9279894277
  0
LINE
  5
213
100
AcDbEntity
  8
0
100
AcDbLine
 62
7
  6
CONTINUOUS
 10
5.5391815645
 20
1.9279894277
 11
6.7431185724
 21
1.9279894277
  0
LINE
  5
214
100
AcDbEntity
  8
0
100
AcDbLine
 62
7
  6
CONTINUOUS
 10
3.2561106984
 20
5.6401941521
 11
3.2561106984
 21
4.2598574097
  0
LINE
  5
215
100
AcDbEntity
  8
0
100
AcDbLine
 62
7
  6
CONTINUOUS
 10
3.2561106984
 20
3.3713182961
 11
3.2561106984
 21
1.9909815537
  0
LINE
  5
216
100
AcDbEntity
  8
0
100
AcDbLine
 62
7
  6
CONTINUOUS
 10
5.428945344
 20
2.0429500576
 11
4.723433533
 21
2.0429500576
  0
LINE
  5
217
100
AcDbEntity
  8
0
100
AcDbLine
 62
7
  6
CONTINUOUS
 10
3.3313075488
 20
3.4638161994
 11
3.3313075488
 21
4.1673595064
  0
LINE
  5
218
100
AcDbEntity
  8
0
100
AcDbLine
 62
7
  6
CONTINUOUS
 10
4.6761894385
 20
5.6401941521
 11
4.6761894385
 21
5.6350760419
  0
LINE
  5
219
100
AcDbEntity
  8
0
100
AcDbLine
 62
7
  6
CONTINUOUS
 10
4.6761894385
 20
1.9909815537
 11
4.6761894385
 21
1.9957059631
  0
LINE
  5
21A
100
AcDbEntity
  8
0
100
AcDbLine
 62
7
  6
CONTINUOUS
 10
5.4761894385
 20
5.6401941521
 11
5.4761894385
 21
5.6350760419
  0
LINE
  5
21B
100
AcDbEntity
  8
0
100
AcDbLine
 62
7
  6
CONTINUOUS
 10
5.4761894385
 20
1.9909815537
 11
5.4761894385
 21
1.9957059631
  0
LINE
  5
21C
100
AcDbEntity
  8
0
100
AcDbLine
 62
7
  6
CONTINUOUS
 10
6.7431185724
 20
4.7980681679
 11
6.673433533
 21
4.7980681679
  0
LINE
  5
21D
100
AcDbEntity
  8
0
100
AcDbLine
 62
7
  6
CONTINUOUS
 10
6.6261894385
 20
4.8453122623
 11
6.6261894385
 21
5.6401941521
  0
LINE
  5
21E
100
AcDbEntity
  8
0
100
AcDbLine
 62
7
  6
CONTINUOUS
 10
6.8061106984
 20
1.9909815537
 11
6.8061106984
 21
4.7350760419
  0
LINE
  5
21F
100
AcDbEntity
  8
0
100
AcDbLine
 62
7
  6
CONTINUOUS
 10
4.723433533
 20
5.5878319474
 11
5.428945344
 21
5.5878319474
  0
LINE
  5
220
100
AcDbEntity
  8
0
100
AcDbLine
 62
7
  6
CONTINUOUS
 10
6.5631973125
 20
5.7031862781
 11
5.5391815645
 21
5.7031862781
  0
LINE
  5
221
100
AcDbEntity
  8
0
100
AcDbLine
 62
7
  6
CONTINUOUS
 10
4.6131973125
 20
5.7031862781
 11
3.3191028243
 21
5.7031862781
  0
CIRCLE
  5
222
100
AcDbEntity
  8
0
100
AcDbCircle
 62
7
  6
CONTINUOUS
 10
3.4561106984
 20
2.1279894277
 40
0.125
  0
ARC
  5
223
100
AcDbEntity
  8
0
100
AcDbCircle
 62
7
  6
CONTINUOUS
 10
4.6131973125
 20
1.9909815537
 40
0.062992126
100
AcDbArc
 50
270.0
 51
360.0
  0
ARC
  5
224
100
AcDbEntity
  8
0
100
AcDbCircle
 62
7
  6
CONTINUOUS
 10
3.3191028243
 20
1.9909815537
 40
0.062992126
100
AcDbArc
 50
180.0
 51
270.0
  0
CIRCLE
  5
225
100
AcDbEntity
  8
0
100
AcDbCircle
 62
7
  6
CONTINUOUS
 10
3.4561106984
 20
2.1279894277
 40
0.0625984252
  0
ARC
  5
226
100
AcDbEntity
  8
0
100
AcDbCircle
 62
7
  6
CONTINUOUS
 10
3.3033547929
 20
3.3713182961
 40
0.0472440945
100
AcDbArc
 50
101.7807208641
 51
180.0
  0
ARC
  5
227
100
AcDbEntity
  8
0
100
AcDbCircle
 62
7
  6
CONTINUOUS
 10
3.2840634543
 20
3.4638161994
 40
0.0472440945
100
AcDbArc
 50
281.7807208641
 51
360.0
  0
ARC
  5
228
100
AcDbEntity
  8
0
100
AcDbCircle
 62
7
  6
CONTINUOUS
 10
4.723433533
 20
1.9957059631
 40
0.0472440945
100
AcDbArc
 50
90.0
 51
180.0
  0
ARC
  5
229
100
AcDbEntity
  8
0
100
AcDbCircle
 62
7
  6
CONTINUOUS
 10
3.3033547929
 20
4.2598574097
 40
0.0472440945
100
AcDbArc
 50
180.0
 51
258.2192791359
  0
ARC
  5
22A
100
AcDbEntity
  8
0
100
AcDbCircle
 62
7
  6
CONTINUOUS
 10
3.2840634543
 20
4.1673595064
 40
0.0472440945
100
AcDbArc
 50
0.0
 51
78.2192791359
  0
CIRCLE
  5
22B
100
AcDbEntity
  8
0
100
AcDbCircle
 62
7
  6
CONTINUOUS
 10
3.6061106984
 20
5.5031862781
 40
0.125
  0
ARC
  5
22C
100
AcDbEntity
  8
0
100
AcDbCircle
 62
7
  6
CONTINUOUS
 10
3.3191028243
 20
5.6401941521
 40
0.062992126
100
AcDbArc
 50
90.0
 51
180.0
  0
CIRCLE
  5
22D
100
AcDbEntity
  8
0
100
AcDbCircle
 62
7
  6
CONTINUOUS
 10
3.6061106984
 20
5.5031862781
 40
0.0625984252
  0
CIRCLE
  5
22E
100
AcDbEntity
  8
0
100
AcDbCircle
 62
7
  6
CONTINUOUS
 10
3.9061106984
 20
5.2031862781
 40
0.0295275591
  0
CIRCLE
  5
22F
100
AcDbEntity
  8
0
100
AcDbCircle
 62
7
  6
CONTINUOUS
 10
3.8061106984
 20
5.2031862781
 40
0.0295275591
  0
CIRCLE
  5
230
100
AcDbEntity
  8
0
100
AcDbCircle
 62
7
  6
CONTINUOUS
 10
3.9061106984
 20
5.2031862781
 40
0.0177165354
  0
CIRCLE
  5
231
100
AcDbEntity
  8
0
100
AcDbCircle
 62
7
  6
CONTINUOUS
 10
3.8061106984
 20
5.2031862781
 40
0.0177165354
  0
CIRCLE
  5
232
100
AcDbEntity
  8
0
100
AcDbCircle
 62
7
  6
CONTINUOUS
 10
3.9061106984
 20
5.4031862781
 40
0.0295275591
  0
CIRCLE
  5
233
100
AcDbEntity
  8
0
100
AcDbCircle
 62
7
  6
CONTINUOUS
 10
3.8061106984
 20
5.4031862781
 40
0.0295275591
  0
CIRCLE
  5
234
100
AcDbEntity
  8
0
100
AcDbCircle
 62
7
  6
CONTINUOUS
 10
3.9061106984
 20
5.3031862781
 40
0.0295275591
  0
CIRCLE
  5
235
100
AcDbEntity
  8
0
100
AcDbCircle
 62
7
  6
CONTINUOUS
 10
3.8061106984
 20
5.3031862781
 40
0.0295275591
  0
CIRCLE
  5
236
100
AcDbEntity
  8
0
100
AcDbCircle
 62
7
  6
CONTINUOUS
 10
3.9061106984
 20
5.4031862781
 40
0.0177165354
  0
CIRCLE
  5
237
100
AcDbEntity
  8
0
100
AcDbCircle
 62
7
  6
CONTINUOUS
 10
3.8061106984
 20
5.4031862781
 40
0.0177165354
  0
CIRCLE
  5
238
100
AcDbEntity
  8
0
100
AcDbCircle
 62
7
  6
CONTINUOUS
 10
3.9061106984
 20
5.3031862781
 40
0.0177165354
  0
CIRCLE
  5
239
100
AcDbEntity
  8
0
100
AcDbCircle
 62
7
  6
CONTINUOUS
 10
3.8061106984
 20
5.3031862781
 40
0.0177165354
  0
CIRCLE
  5
23A
100
AcDbEntity
  8
0
100
AcDbCircle
 62
7
  6
CONTINUOUS
 10
4.1061106984
 20
5.2031862781
 40
0.0295275591
  0
CIRCLE
  5
23B
100
AcDbEntity
  8
0
100
AcDbCircle
 62
7
  6
CONTINUOUS
 10
4.0061106984
 20
5.2031862781
 40
0.0295275591
  0
CIRCLE
  5
23C
100
AcDbEntity
  8
0
100
AcDbCircle
 62
7
  6
CONTINUOUS
 10
4.1061106984
 20
5.2031862781
 40
0.0177165354
  0
CIRCLE
  5
23D
100
AcDbEntity
  8
0
100
AcDbCircle
 62
7
  6
CONTINUOUS
 10
4.0061106984
 20
5.2031862781
 40
0.0177165354
  0
CIRCLE
  5
23E
100
AcDbEntity
  8
0
100
AcDbCircle
 62
7
  6
CONTINUOUS
 10
4.1061106984
 20
5.4031862781
 40
0.0295275591
  0
CIRCLE
  5
23F
100
AcDbEntity
  8
0
100
AcDbCircle
 62
7
  6
CONTINUOUS
 10
4.0061106984
 20
5.4031862781
 40
0.0295275591
  0
CIRCLE
  5
240
100
AcDbEntity
  8
0
100
AcDbCircle
 62
7
  6
CONTINUOUS
 10
4.1061106984
 20
5.3031862781
 40
0.0295275591
  0
CIRCLE
  5
241
100
AcDbEntity
  8
0
100
AcDbCircle
 62
7
  6
CONTINUOUS
 10
4.0061106984
 20
5.3031862781
 40
0.0295275591
  0
CIRCLE
  5
242
100
AcDbEntity
  8
0
100
AcDbCircle
 62
7
  6
CONTINUOUS
 10
4.1061106984
 20
5.4031862781
 40
0.0177165354
  0
CIRCLE
  5
243
100
AcDbEntity
  8
0
100
AcDbCircle
 62
7
  6
CONTINUOUS
 10
4.0061106984
 20
5.4031862781
 40
0.0177165354
  0
CIRCLE
  5
244
100
AcDbEntity
  8
0
100
AcDbCircle
 62
7
  6
CONTINUOUS
 10
4.1061106984
 20
5.3031862781
 40
0.0177165354
  0
CIRCLE
  5
245
100
AcDbEntity
  8
0
100
AcDbCircle
 62
7
  6
CONTINUOUS
 10
4.0061106984
 20
5.3031862781
 40
0.0177165354
  0
CIRCLE
  5
246
100
AcDbEntity
  8
0
100
AcDbCircle
 62
7
  6
CONTINUOUS
 10
4.1061106984
 20
5.5031862781
 40
0.0295275591
  0
CIRCLE
  5
247
100
AcDbEntity
  8
0
100
AcDbCircle
 62
7
  6
CONTINUOUS
 10
4.0061106984
 20
5.5031862781
 40
0.0295275591
  0
CIRCLE
  5
248
100
AcDbEntity
  8
0
100
AcDbCircle
 62
7
  6
CONTINUOUS
 10
3.9061106984
 20
5.5031862781
 40
0.0295275591
  0
CIRCLE
  5
249
100
AcDbEntity
  8
0
100
AcDbCircle
 62
7
  6
CONTINUOUS
 10
3.8061106984
 20
5.5031862781
 40
0.0295275591
  0
CIRCLE
  5
24A
100
AcDbEntity
  8
0
100
AcDbCircle
 62
7
  6
CONTINUOUS
 10
4.1061106984
 20
5.5031862781
 40
0.0177165354
  0
CIRCLE
  5
24B
100
AcDbEntity
  8
0
100
AcDbCircle
 62
7
  6
CONTINUOUS
 10
4.0061106984
 20
5.5031862781
 40
0.0177165354
  0
CIRCLE
  5
24C
100
AcDbEntity
  8
0
100
AcDbCircle
 62
7
  6
CONTINUOUS
 10
3.9061106984
 20
5.5031862781
 40
0.0177165354
  0
CIRCLE
  5
24D
100
AcDbEntity
  8
0
100
AcDbCircle
 62
7
  6
CONTINUOUS
 10
3.8061106984
 20
5.5031862781
 40
0.0177165354
  0
CIRCLE
  5
24E
100
AcDbEntity
  8
0
100
AcDbCircle
 62
7
  6
CONTINUOUS
 10
4.3061106984
 20
5.2031862781
 40
0.0295275591
  0
CIRCLE
  5
24F
100
AcDbEntity
  8
0
100
AcDbCircle
 62
7
  6
CONTINUOUS
 10
4.2061106984
 20
5.2031862781
 40
0.0295275591
  0
CIRCLE
  5
250
100
AcDbEntity
  8
0
100
AcDbCircle
 62
7
  6
CONTINUOUS
 10
4.3061106984
 20
5.2031862781
 40
0.0177165354
  0
CIRCLE
  5
251
100
AcDbEntity
  8
0
100
AcDbCircle
 62
7
  6
CONTINUOUS
 10
4.2061106984
 20
5.2031862781
 40
0.0177165354
  0
CIRCLE
  5
252
100
AcDbEntity
  8
0
100
AcDbCircle
 62
7
  6
CONTINUOUS
 10
4.3061106984
 20
5.4031862781
 40
0.0295275591
  0
CIRCLE
  5
253
100
AcDbEntity
  8
0
100
AcDbCircle
 62
7
  6
CONTINUOUS
 10
4.2061106984
 20
5.4031862781
 40
0.0295275591
  0
CIRCLE
  5
254
100
AcDbEntity
  8
0
100
AcDbCircle
 62
7
  6
CONTINUOUS
 10
4.3061106984
 20
5.3031862781
 40
0.0295275591
  0
CIRCLE
  5
255
100
AcDbEntity
  8
0
100
AcDbCircle
 62
7
  6
CONTINUOUS
 10
4.2061106984
 20
5.3031862781
 40
0.0295275591
  0
CIRCLE
  5
256
100
AcDbEntity
  8
0
100
AcDbCircle
 62
7
  6
CONTINUOUS
 10
4.3061106984
 20
5.4031862781
 40
0.0177165354
  0
CIRCLE
  5
257
100
AcDbEntity
  8
0
100
AcDbCircle
 62
7
  6
CONTINUOUS
 10
4.2061106984
 20
5.4031862781
 40
0.0177165354
  0
CIRCLE
  5
258
100
AcDbEntity
  8
0
100
AcDbCircle
 62
7
  6
CONTINUOUS
 10
4.3061106984
 20
5.3031862781
 40
0.0177165354
  0
CIRCLE
  5
259
100
AcDbEntity
  8
0
100
AcDbCircle
 62
7
  6
CONTINUOUS
 10
4.2061106984
 20
5.3031862781
 40
0.0177165354
  0
CIRCLE
  5
25A
100
AcDbEntity
  8
0
100
AcDbCircle
 62
7
  6
CONTINUOUS
 10
4.5061106984
 20
5.2031862781
 40
0.0295275591
  0
CIRCLE
  5
25B
100
AcDbEntity
  8
0
100
AcDbCircle
 62
7
  6
CONTINUOUS
 10
4.4061106984
 20
5.2031862781
 40
0.0295275591
  0
CIRCLE
  5
25C
100
AcDbEntity
  8
0
100
AcDbCircle
 62
7
  6
CONTINUOUS
 10
4.5061106984
 20
5.2031862781
 40
0.0177165354
  0
CIRCLE
  5
25D
100
AcDbEntity
  8
0
100
AcDbCircle
 62
7
  6
CONTINUOUS
 10
4.4061106984
 20
5.2031862781
 40
0.0177165354
  0
CIRCLE
  5
25E
100
AcDbEntity
  8
0
100
AcDbCircle
 62
7
  6
CONTINUOUS
 10
4.5061106984
 20
5.4031862781
 40
0.0295275591
  0
CIRCLE
  5
25F
100
AcDbEntity
  8
0
100
AcDbCircle
 62
7
  6
CONTINUOUS
 10
4.4061106984
 20
5.4031862781
 40
0.0295275591
  0
CIRCLE
  5
260
100
AcDbEntity
  8
0
100
AcDbCircle
 62
7
  6
CONTINUOUS
 10
4.5061106984
 20
5.3031862781
 40
0.0295275591
  0
CIRCLE
  5
261
100
AcDbEntity
  8
0
100
AcDbCircle
 62
7
  6
CONTINUOUS
 10
4.4061106984
 20
5.3031862781
 40
0.0295275591
  0
CIRCLE
  5
262
100
AcDbEntity
  8
0
100
AcDbCircle
 62
7
  6
CONTINUOUS
 10
4.5061106984
 20
5.4031862781
 40
0.0177165354
  0
CIRCLE
  5
263
100
AcDbEntity
  8
0
100
AcDbCircle
 62
7
  6
CONTINUOUS
 10
4.4061106984
 20
5.4031862781
 40
0.0177165354
  0
CIRCLE
  5
264
100
AcDbEntity
  8
0
100
AcDbCircle
 62
7
  6
CONTINUOUS
 10
4.5061106984
 20
5.3031862781
 40
0.0177165354
  0
CIRCLE
  5
265
100
AcDbEntity
  8
0
100
AcDbCircle
 62
7
  6
CONTINUOUS
 10
4.4061106984
 20
5.3031862781
 40
0.0177165354
  0
CIRCLE
  5
266
100
AcDbEntity
  8
0
100
AcDbCircle
 62
7
  6
CONTINUOUS
 10
4.5061106984
 20
5.5031862781
 40
0.0295275591
  0
CIRCLE
  5
267
100
AcDbEntity
  8
0
100
AcDbCircle
 62
7
  6
CONTINUOUS
 10
4.4061106984
 20
5.5031862781
 40
0.0295275591
  0
CIRCLE
  5
268
100
AcDbEntity
  8
0
100
AcDbCircle
 62
7
  6
CONTINUOUS
 10
4.3061106984
 20
5.5031862781
 40
0.0295275591
  0
CIRCLE
  5
269
100
AcDbEntity
  8
0
100
AcDbCircle
 62
7
  6
CONTINUOUS
 10
4.2061106984
 20
5.5031862781
 40
0.0295275591
  0
CIRCLE
  5
26A
100
AcDbEntity
  8
0
100
AcDbCircle
 62
7
  6
CONTINUOUS
 10
4.5061106984
 20
5.5031862781
 40
0.0177165354
  0
CIRCLE
  5
26B
100
AcDbEntity
  8
0
100
AcDbCircle
 62
7
  6
CONTINUOUS
 10
4.4061106984
 20
5.5031862781
 40
0.0177165354
  0
CIRCLE
  5
26C
100
AcDbEntity
  8
0
100
AcDbCircle
 62
7
  6
CONTINUOUS
 10
4.3061106984
 20
5.5031862781
 40
0.0177165354
  0
CIRCLE
  5
26D
100
AcDbEntity
  8
0
100
AcDbCircle
 62
7
  6
CONTINUOUS
 10
4.2061106984
 20
5.5031862781
 40
0.0177165354
  0
CIRCLE
  5
26E
100
AcDbEntity
  8
0
100
AcDbCircle
 62
7
  6
CONTINUOUS
 10
4.7061106984
 20
5.2031862781
 40
0.0295275591
  0
CIRCLE
  5
26F
100
AcDbEntity
  8
0
100
AcDbCircle
 62
7
  6
CONTINUOUS
 10
4.6061106984
 20
5.2031862781
 40
0.0295275591
  0
CIRCLE
  5
270
100
AcDbEntity
  8
0
100
AcDbCircle
 62
7
  6
CONTINUOUS
 10
4.7061106984
 20
5.2031862781
 40
0.0177165354
  0
CIRCLE
  5
271
100
AcDbEntity
  8
0
100
AcDbCircle
 62
7
  6
CONTINUOUS
 10
4.6061106984
 20
5.2031862781
 40
0.0177165354
  0
CIRCLE
  5
272
100
AcDbEntity
  8
0
100
AcDbCircle
 62
7
  6
CONTINUOUS
 10
4.7061106984
 20
5.4031862781
 40
0.0295275591
  0
CIRCLE
  5
273
100
AcDbEntity
  8
0
100
AcDbCircle
 62
7
  6
CONTINUOUS
 10
4.6061106984
 20
5.4031862781
 40
0.0295275591
  0
CIRCLE
  5
274
100
AcDbEntity
  8
0
100
AcDbCircle
 62
7
  6
CONTINUOUS
 10
4.7061106984
 20
5.3031862781
 40
0.0295275591
  0
CIRCLE
  5
275
100
AcDbEntity
  8
0
100
AcDbCircle
 62
7
  6
CONTINUOUS
 10
4.6061106984
 20
5.3031862781
 40
0.0295275591
  0
CIRCLE
  5
276
100
AcDbEntity
  8
0
100
AcDbCircle
 62
7
  6
CONTINUOUS
 10
4.7061106984
 20
5.4031862781
 40
0.0177165354
  0
CIRCLE
  5
277
100
AcDbEntity
  8
0
100
AcDbCircle
 62
7
  6
CONTINUOUS
 10
4.6061106984
 20
5.4031862781
 40
0.0177165354
  0
CIRCLE
  5
278
100
AcDbEntity
  8
0
100
AcDbCircle
 62
7
  6
CONTINUOUS
 10
4.7061106984
 20
5.3031862781
 40
0.0177165354
  0
CIRCLE
  5
279
100
AcDbEntity
  8
0
100
AcDbCircle
 62
7
  6
CONTINUOUS
 10
4.6061106984
 20
5.3031862781
 40
0.0177165354
  0
CIRCLE
  5
27A
100
AcDbEntity
  8
0
100
AcDbCircle
 62
7
  6
CONTINUOUS
 10
5.0061106984
 20
5.2031862781
 40
0.0295275591
  0
CIRCLE
  5
27B
100
AcDbEntity
  8
0
100
AcDbCircle
 62
7
  6
CONTINUOUS
 10
4.9061106984
 20
5.2031862781
 40
0.0295275591
  0
CIRCLE
  5
27C
100
AcDbEntity
  8
0
100
AcDbCircle
 62
7
  6
CONTINUOUS
 10
4.8061106984
 20
5.2031862781
 40
0.0295275591
  0
CIRCLE
  5
27D
100
AcDbEntity
  8
0
100
AcDbCircle
 62
7
  6
CONTINUOUS
 10
5.0061106984
 20
5.2031862781
 40
0.0177165354
  0
CIRCLE
  5
27E
100
AcDbEntity
  8
0
100
AcDbCircle
 62
7
  6
CONTINUOUS
 10
4.9061106984
 20
5.2031862781
 40
0.0177165354
  0
CIRCLE
  5
27F
100
AcDbEntity
  8
0
100
AcDbCircle
 62
7
  6
CONTINUOUS
 10
4.8061106984
 20
5.2031862781
 40
0.0177165354
  0
CIRCLE
  5
280
100
AcDbEntity
  8
0
100
AcDbCircle
 62
7
  6
CONTINUOUS
 10
5.0061106984
 20
5.4031862781
 40
0.0295275591
  0
CIRCLE
  5
281
100
AcDbEntity
  8
0
100
AcDbCircle
 62
7
  6
CONTINUOUS
 10
4.9061106984
 20
5.4031862781
 40
0.0295275591
  0
CIRCLE
  5
282
100
AcDbEntity
  8
0
100
AcDbCircle
 62
7
  6
CONTINUOUS
 10
4.8061106984
 20
5.4031862781
 40
0.0295275591
  0
CIRCLE
  5
283
100
AcDbEntity
  8
0
100
AcDbCircle
 62
7
  6
CONTINUOUS
 10
5.0061106984
 20
5.3031862781
 40
0.0295275591
  0
CIRCLE
  5
284
100
AcDbEntity
  8
0
100
AcDbCircle
 62
7
  6
CONTINUOUS
 10
4.9061106984
 20
5.3031862781
 40
0.0295275591
  0
CIRCLE
  5
285
100
AcDbEntity
  8
0
100
AcDbCircle
 62
7
  6
CONTINUOUS
 10
4.8061106984
 20
5.3031862781
 40
0.0295275591
  0
CIRCLE
  5
286
100
AcDbEntity
  8
0
100
AcDbCircle
 62
7
  6
CONTINUOUS
 10
5.0061106984
 20
5.4031862781
 40
0.0177165354
  0
CIRCLE
  5
287
100
AcDbEntity
  8
0
100
AcDbCircle
 62
7
  6
CONTINUOUS
 10
4.9061106984
 20
5.4031862781
 40
0.0177165354
  0
CIRCLE
  5
288
100
AcDbEntity
  8
0
100
AcDbCircle
 62
7
  6
CONTINUOUS
 10
4.8061106984
 20
5.4031862781
 40
0.0177165354
  0
CIRCLE
  5
289
100
AcDbEntity
  8
0
100
AcDbCircle
 62
7
  6
CONTINUOUS
 10
5.0061106984
 20
5.3031862781
 40
0.0177165354
  0
CIRCLE
  5
28A
100
AcDbEntity
  8
0
100
AcDbCircle
 62
7
  6
CONTINUOUS
 10
4.9061106984
 20
5.3031862781
 40
0.0177165354
  0
CIRCLE
  5
28B
100
AcDbEntity
  8
0
100
AcDbCircle
 62
7
  6
CONTINUOUS
 10
4.8061106984
 20
5.3031862781
 40
0.0177165354
  0
ARC
  5
28C
100
AcDbEntity
  8
0
100
AcDbCircle
 62
7
  6
CONTINUOUS
 10
4.6131973125
 20
5.6401941521
 40
0.062992126
100
AcDbArc
 50
0.0
 51
90.0
  0
ARC
  5
28D
100
AcDbEntity
  8
0
100
AcDbCircle
 62
7
  6
CONTINUOUS
 10
4.723433533
 20
5.6350760419
 40
0.0472440945
100
AcDbArc
 50
180.0
 51
270.0
  0
CIRCLE
  5
28E
100
AcDbEntity
  8
0
100
AcDbCircle
 62
7
  6
CONTINUOUS
 10
5.0061106984
 20
5.5031862781
 40
0.0295275591
  0
CIRCLE
  5
28F
100
AcDbEntity
  8
0
100
AcDbCircle
 62
7
  6
CONTINUOUS
 10
4.9061106984
 20
5.5031862781
 40
0.0295275591
  0
CIRCLE
  5
290
100
AcDbEntity
  8
0
100
AcDbCircle
 62
7
  6
CONTINUOUS
 10
4.8061106984
 20
5.5031862781
 40
0.0295275591
  0
CIRCLE
  5
291
100
AcDbEntity
  8
0
100
AcDbCircle
 62
7
  6
CONTINUOUS
 10
4.7061106984
 20
5.5031862781
 40
0.0295275591
  0
CIRCLE
  5
292
100
AcDbEntity
  8
0
100
AcDbCircle
 62
7
  6
CONTINUOUS
 10
4.6061106984
 20
5.5031862781
 40
0.0295275591
  0
CIRCLE
  5
293
100
AcDbEntity
  8
0
100
AcDbCircle
 62
7
  6
CONTINUOUS
 10
5.0061106984
 20
5.5031862781
 40
0.0177165354
  0
CIRCLE
  5
294
100
AcDbEntity
  8
0
100
AcDbCircle
 62
7
  6
CONTINUOUS
 10
4.9061106984
 20
5.5031862781
 40
0.0177165354
  0
CIRCLE
  5
295
100
AcDbEntity
  8
0
100
AcDbCircle
 62
7
  6
CONTINUOUS
 10
4.8061106984
 20
5.5031862781
 40
0.0177165354
  0
CIRCLE
  5
296
100
AcDbEntity
  8
0
100
AcDbCircle
 62
7
  6
CONTINUOUS
 10
4.7061106984
 20
5.5031862781
 40
0.0177165354
  0
CIRCLE
  5
297
100
AcDbEntity
  8
0
100
AcDbCircle
 62
7
  6
CONTINUOUS
 10
4.6061106984
 20
5.5031862781
 40
0.0177165354
  0
CIRCLE
  5
298
100
AcDbEntity
  8
0
100
AcDbCircle
 62
7
  6
CONTINUOUS
 10
6.6061106984
 20
2.1279894277
 40
0.125
  0
ARC
  5
299
100
AcDbEntity
  8
0
100
AcDbCircle
 62
7
  6
CONTINUOUS
 10
6.7431185724
 20
1.9909815537
 40
0.062992126
100
AcDbArc
 50
270.0
 51
360.0
  0
ARC
  5
29A
100
AcDbEntity
  8
0
100
AcDbCircle
 62
7
  6
CONTINUOUS
 10
5.5391815645
 20
1.9909815537
 40
0.062992126
100
AcDbArc
 50
180.0
 51
270.0
  0
CIRCLE
  5
29B
100
AcDbEntity
  8
0
100
AcDbCircle
 62
7
  6
CONTINUOUS
 10
6.6061106984
 20
2.1279894277
 40
0.0625984252
  0
ARC
  5
29C
100
AcDbEntity
  8
0
100
AcDbCircle
 62
7
  6
CONTINUOUS
 10
5.428945344
 20
1.9957059631
 40
0.0472440945
100
AcDbArc
 50
0.0
 51
90.0
  0
CIRCLE
  5
29D
100
AcDbEntity
  8
02___PRT_ALL_AXES
100
AcDbCircle
 62
7
  6
CONTINUOUS
 10
5.0313075488
 20
3.8161784041
 40
0.3149606299
  0
CIRCLE
  5
29E
100
AcDbEntity
  8
0
100
AcDbCircle
 62
7
  6
CONTINUOUS
 10
5.2061106984
 20
5.2031862781
 40
0.0295275591
  0
CIRCLE
  5
29F
100
AcDbEntity
  8
0
100
AcDbCircle
 62
7
  6
CONTINUOUS
 10
5.1061106984
 20
5.2031862781
 40
0.0295275591
  0
CIRCLE
  5
2A0
100
AcDbEntity
  8
0
100
AcDbCircle
 62
7
  6
CONTINUOUS
 10
5.2061106984
 20
5.2031862781
 40
0.0177165354
  0
CIRCLE
  5
2A1
100
AcDbEntity
  8
0
100
AcDbCircle
 62
7
  6
CONTINUOUS
 10
5.1061106984
 20
5.2031862781
 40
0.0177165354
  0
CIRCLE
  5
2A2
100
AcDbEntity
  8
0
100
AcDbCircle
 62
7
  6
CONTINUOUS
 10
5.2061106984
 20
5.4031862781
 40
0.0295275591
  0
CIRCLE
  5
2A3
100
AcDbEntity
  8
0
100
AcDbCircle
 62
7
  6
CONTINUOUS
 10
5.1061106984
 20
5.4031862781
 40
0.0295275591
  0
CIRCLE
  5
2A4
100
AcDbEntity
  8
0
100
AcDbCircle
 62
7
  6
CONTINUOUS
 10
5.2061106984
 20
5.3031862781
 40
0.0295275591
  0
CIRCLE
  5
2A5
100
AcDbEntity
  8
0
100
AcDbCircle
 62
7
  6
CONTINUOUS
 10
5.1061106984
 20
5.3031862781
 40
0.0295275591
  0
CIRCLE
  5
2A6
100
AcDbEntity
  8
0
100
AcDbCircle
 62
7
  6
CONTINUOUS
 10
5.2061106984
 20
5.4031862781
 40
0.0177165354
  0
CIRCLE
  5
2A7
100
AcDbEntity
  8
0
100
AcDbCircle
 62
7
  6
CONTINUOUS
 10
5.1061106984
 20
5.4031862781
 40
0.0177165354
  0
CIRCLE
  5
2A8
100
AcDbEntity
  8
0
100
AcDbCircle
 62
7
  6
CONTINUOUS
 10
5.2061106984
 20
5.3031862781
 40
0.0177165354
  0
CIRCLE
  5
2A9
100
AcDbEntity
  8
0
100
AcDbCircle
 62
7
  6
CONTINUOUS
 10
5.1061106984
 20
5.3031862781
 40
0.0177165354
  0
CIRCLE
  5
2AA
100
AcDbEntity
  8
0
100
AcDbCircle
 62
7
  6
CONTINUOUS
 10
5.4061106984
 20
5.2031862781
 40
0.0295275591
  0
CIRCLE
  5
2AB
100
AcDbEntity
  8
0
100
AcDbCircle
 62
7
  6
CONTINUOUS
 10
5.3061106984
 20
5.2031862781
 40
0.0295275591
  0
CIRCLE
  5
2AC
100
AcDbEntity
  8
0
100
AcDbCircle
 62
7
  6
CONTINUOUS
 10
5.4061106984
 20
5.2031862781
 40
0.0177165354
  0
CIRCLE
  5
2AD
100
AcDbEntity
  8
0
100
AcDbCircle
 62
7
  6
CONTINUOUS
 10
5.3061106984
 20
5.2031862781
 40
0.0177165354
  0
CIRCLE
  5
2AE
100
AcDbEntity
  8
0
100
AcDbCircle
 62
7
  6
CONTINUOUS
 10
5.4061106984
 20
5.4031862781
 40
0.0295275591
  0
CIRCLE
  5
2AF
100
AcDbEntity
  8
0
100
AcDbCircle
 62
7
  6
CONTINUOUS
 10
5.3061106984
 20
5.4031862781
 40
0.0295275591
  0
CIRCLE
  5
2B0
100
AcDbEntity
  8
0
100
AcDbCircle
 62
7
  6
CONTINUOUS
 10
5.4061106984
 20
5.3031862781
 40
0.0295275591
  0
CIRCLE
  5
2B1
100
AcDbEntity
  8
0
100
AcDbCircle
 62
7
  6
CONTINUOUS
 10
5.3061106984
 20
5.3031862781
 40
0.0295275591
  0
CIRCLE
  5
2B2
100
AcDbEntity
  8
0
100
AcDbCircle
 62
7
  6
CONTINUOUS
 10
5.4061106984
 20
5.4031862781
 40
0.0177165354
  0
CIRCLE
  5
2B3
100
AcDbEntity
  8
0
100
AcDbCircle
 62
7
  6
CONTINUOUS
 10
5.3061106984
 20
5.4031862781
 40
0.0177165354
  0
CIRCLE
  5
2B4
100
AcDbEntity
  8
0
100
AcDbCircle
 62
7
  6
CONTINUOUS
 10
5.4061106984
 20
5.3031862781
 40
0.0177165354
  0
CIRCLE
  5
2B5
100
AcDbEntity
  8
0
100
AcDbCircle
 62
7
  6
CONTINUOUS
 10
5.3061106984
 20
5.3031862781
 40
0.0177165354
  0
ARC
  5
2B6
100
AcDbEntity
  8
0
100
AcDbCircle
 62
7
  6
CONTINUOUS
 10
5.428945344
 20
5.6350760419
 40
0.0472440945
100
AcDbArc
 50
270.0
 51
360.0
  0
CIRCLE
  5
2B7
100
AcDbEntity
  8
0
100
AcDbCircle
 62
7
  6
CONTINUOUS
 10
5.4061106984
 20
5.5031862781
 40
0.0295275591
  0
CIRCLE
  5
2B8
100
AcDbEntity
  8
0
100
AcDbCircle
 62
7
  6
CONTINUOUS
 10
5.3061106984
 20
5.5031862781
 40
0.0295275591
  0
CIRCLE
  5
2B9
100
AcDbEntity
  8
0
100
AcDbCircle
 62
7
  6
CONTINUOUS
 10
5.2061106984
 20
5.5031862781
 40
0.0295275591
  0
CIRCLE
  5
2BA
100
AcDbEntity
  8
0
100
AcDbCircle
 62
7
  6
CONTINUOUS
 10
5.1061106984
 20
5.5031862781
 40
0.0295275591
  0
CIRCLE
  5
2BB
100
AcDbEntity
  8
0
100
AcDbCircle
 62
7
  6
CONTINUOUS
 10
5.4061106984
 20
5.5031862781
 40
0.0177165354
  0
CIRCLE
  5
2BC
100
AcDbEntity
  8
0
100
AcDbCircle
 62
7
  6
CONTINUOUS
 10
5.3061106984
 20
5.5031862781
 40
0.0177165354
  0
CIRCLE
  5
2BD
100
AcDbEntity
  8
0
100
AcDbCircle
 62
7
  6
CONTINUOUS
 10
5.2061106984
 20
5.5031862781
 40
0.0177165354
  0
CIRCLE
  5
2BE
100
AcDbEntity
  8
0
100
AcDbCircle
 62
7
  6
CONTINUOUS
 10
5.1061106984
 20
5.5031862781
 40
0.0177165354
  0
CIRCLE
  5
2BF
100
AcDbEntity
  8
0
100
AcDbCircle
 62
7
  6
CONTINUOUS
 10
5.6061106984
 20
5.2031862781
 40
0.0295275591
  0
CIRCLE
  5
2C0
100
AcDbEntity
  8
0
100
AcDbCircle
 62
7
  6
CONTINUOUS
 10
5.5061106984
 20
5.2031862781
 40
0.0295275591
  0
CIRCLE
  5
2C1
100
AcDbEntity
  8
0
100
AcDbCircle
 62
7
  6
CONTINUOUS
 10
5.6061106984
 20
5.2031862781
 40
0.0177165354
  0
CIRCLE
  5
2C2
100
AcDbEntity
  8
0
100
AcDbCircle
 62
7
  6
CONTINUOUS
 10
5.5061106984
 20
5.2031862781
 40
0.0177165354
  0
CIRCLE
  5
2C3
100
AcDbEntity
  8
0
100
AcDbCircle
 62
7
  6
CONTINUOUS
 10
5.6061106984
 20
5.4031862781
 40
0.0295275591
  0
CIRCLE
  5
2C4
100
AcDbEntity
  8
0
100
AcDbCircle
 62
7
  6
CONTINUOUS
 10
5.5061106984
 20
5.4031862781
 40
0.0295275591
  0
CIRCLE
  5
2C5
100
AcDbEntity
  8
0
100
AcDbCircle
 62
7
  6
CONTINUOUS
 10
5.6061106984
 20
5.3031862781
 40
0.0295275591
  0
CIRCLE
  5
2C6
100
AcDbEntity
  8
0
100
AcDbCircle
 62
7
  6
CONTINUOUS
 10
5.5061106984
 20
5.3031862781
 40
0.0295275591
  0
CIRCLE
  5
2C7
100
AcDbEntity
  8
0
100
AcDbCircle
 62
7
  6
CONTINUOUS
 10
5.6061106984
 20
5.4031862781
 40
0.0177165354
  0
CIRCLE
  5
2C8
100
AcDbEntity
  8
0
100
AcDbCircle
 62
7
  6
CONTINUOUS
 10
5.5061106984
 20
5.4031862781
 40
0.0177165354
  0
CIRCLE
  5
2C9
100
AcDbEntity
  8
0
100
AcDbCircle
 62
7
  6
CONTINUOUS
 10
5.6061106984
 20
5.3031862781
 40
0.0177165354
  0
CIRCLE
  5
2CA
100
AcDbEntity
  8
0
100
AcDbCircle
 62
7
  6
CONTINUOUS
 10
5.5061106984
 20
5.3031862781
 40
0.0177165354
  0
CIRCLE
  5
2CB
100
AcDbEntity
  8
0
100
AcDbCircle
 62
7
  6
CONTINUOUS
 10
5.8061106984
 20
5.2031862781
 40
0.0295275591
  0
CIRCLE
  5
2CC
100
AcDbEntity
  8
0
100
AcDbCircle
 62
7
  6
CONTINUOUS
 10
5.7061106984
 20
5.2031862781
 40
0.0295275591
  0
CIRCLE
  5
2CD
100
AcDbEntity
  8
0
100
AcDbCircle
 62
7
  6
CONTINUOUS
 10
5.8061106984
 20
5.2031862781
 40
0.0177165354
  0
CIRCLE
  5
2CE
100
AcDbEntity
  8
0
100
AcDbCircle
 62
7
  6
CONTINUOUS
 10
5.7061106984
 20
5.2031862781
 40
0.0177165354
  0
CIRCLE
  5
2CF
100
AcDbEntity
  8
0
100
AcDbCircle
 62
7
  6
CONTINUOUS
 10
5.8061106984
 20
5.4031862781
 40
0.0295275591
  0
CIRCLE
  5
2D0
100
AcDbEntity
  8
0
100
AcDbCircle
 62
7
  6
CONTINUOUS
 10
5.7061106984
 20
5.4031862781
 40
0.0295275591
  0
CIRCLE
  5
2D1
100
AcDbEntity
  8
0
100
AcDbCircle
 62
7
  6
CONTINUOUS
 10
5.8061106984
 20
5.3031862781
 40
0.0295275591
  0
CIRCLE
  5
2D2
100
AcDbEntity
  8
0
100
AcDbCircle
 62
7
  6
CONTINUOUS
 10
5.7061106984
 20
5.3031862781
 40
0.0295275591
  0
CIRCLE
  5
2D3
100
AcDbEntity
  8
0
100
AcDbCircle
 62
7
  6
CONTINUOUS
 10
5.8061106984
 20
5.4031862781
 40
0.0177165354
  0
CIRCLE
  5
2D4
100
AcDbEntity
  8
0
100
AcDbCircle
 62
7
  6
CONTINUOUS
 10
5.7061106984
 20
5.4031862781
 40
0.0177165354
  0
CIRCLE
  5
2D5
100
AcDbEntity
  8
0
100
AcDbCircle
 62
7
  6
CONTINUOUS
 10
5.8061106984
 20
5.3031862781
 40
0.0177165354
  0
CIRCLE
  5
2D6
100
AcDbEntity
  8
0
100
AcDbCircle
 62
7
  6
CONTINUOUS
 10
5.7061106984
 20
5.3031862781
 40
0.0177165354
  0
ARC
  5
2D7
100
AcDbEntity
  8
0
100
AcDbCircle
 62
7
  6
CONTINUOUS
 10
5.5391815645
 20
5.6401941521
 40
0.062992126
100
AcDbArc
 50
90.0
 51
180.0
  0
CIRCLE
  5
2D8
100
AcDbEntity
  8
0
100
AcDbCircle
 62
7
  6
CONTINUOUS
 10
5.8061106984
 20
5.5031862781
 40
0.0295275591
  0
CIRCLE
  5
2D9
100
AcDbEntity
  8
0
100
AcDbCircle
 62
7
  6
CONTINUOUS
 10
5.7061106984
 20
5.5031862781
 40
0.0295275591
  0
CIRCLE
  5
2DA
100
AcDbEntity
  8
0
100
AcDbCircle
 62
7
  6
CONTINUOUS
 10
5.6061106984
 20
5.5031862781
 40
0.0295275591
  0
CIRCLE
  5
2DB
100
AcDbEntity
  8
0
100
AcDbCircle
 62
7
  6
CONTINUOUS
 10
5.5061106984
 20
5.5031862781
 40
0.0295275591
  0
CIRCLE
  5
2DC
100
AcDbEntity
  8
0
100
AcDbCircle
 62
7
  6
CONTINUOUS
 10
5.8061106984
 20
5.5031862781
 40
0.0177165354
  0
CIRCLE
  5
2DD
100
AcDbEntity
  8
0
100
AcDbCircle
 62
7
  6
CONTINUOUS
 10
5.7061106984
 20
5.5031862781
 40
0.0177165354
  0
CIRCLE
  5
2DE
100
AcDbEntity
  8
0
100
AcDbCircle
 62
7
  6
CONTINUOUS
 10
5.6061106984
 20
5.5031862781
 40
0.0177165354
  0
CIRCLE
  5
2DF
100
AcDbEntity
  8
0
100
AcDbCircle
 62
7
  6
CONTINUOUS
 10
5.5061106984
 20
5.5031862781
 40
0.0177165354
  0
CIRCLE
  5
2E0
100
AcDbEntity
  8
0
100
AcDbCircle
 62
7
  6
CONTINUOUS
 10
6.0061106984
 20
5.3031862781
 40
0.0295275591
  0
CIRCLE
  5
2E1
100
AcDbEntity
  8
0
100
AcDbCircle
 62
7
  6
CONTINUOUS
 10
5.9061106984
 20
5.3031862781
 40
0.0295275591
  0
CIRCLE
  5
2E2
100
AcDbEntity
  8
0
100
AcDbCircle
 62
7
  6
CONTINUOUS
 10
6.0061106984
 20
5.2031862781
 40
0.0295275591
  0
CIRCLE
  5
2E3
100
AcDbEntity
  8
0
100
AcDbCircle
 62
7
  6
CONTINUOUS
 10
5.9061106984
 20
5.2031862781
 40
0.0295275591
  0
CIRCLE
  5
2E4
100
AcDbEntity
  8
0
100
AcDbCircle
 62
7
  6
CONTINUOUS
 10
6.0061106984
 20
5.3031862781
 40
0.0177165354
  0
CIRCLE
  5
2E5
100
AcDbEntity
  8
0
100
AcDbCircle
 62
7
  6
CONTINUOUS
 10
5.9061106984
 20
5.3031862781
 40
0.0177165354
  0
CIRCLE
  5
2E6
100
AcDbEntity
  8
0
100
AcDbCircle
 62
7
  6
CONTINUOUS
 10
6.0061106984
 20
5.2031862781
 40
0.0177165354
  0
CIRCLE
  5
2E7
100
AcDbEntity
  8
0
100
AcDbCircle
 62
7
  6
CONTINUOUS
 10
5.9061106984
 20
5.2031862781
 40
0.0177165354
  0
CIRCLE
  5
2E8
100
AcDbEntity
  8
0
100
AcDbCircle
 62
7
  6
CONTINUOUS
 10
6.0061106984
 20
5.5031862781
 40
0.0295275591
  0
CIRCLE
  5
2E9
100
AcDbEntity
  8
0
100
AcDbCircle
 62
7
  6
CONTINUOUS
 10
5.9061106984
 20
5.5031862781
 40
0.0295275591
  0
CIRCLE
  5
2EA
100
AcDbEntity
  8
0
100
AcDbCircle
 62
7
  6
CONTINUOUS
 10
6.0061106984
 20
5.4031862781
 40
0.0295275591
  0
CIRCLE
  5
2EB
100
AcDbEntity
  8
0
100
AcDbCircle
 62
7
  6
CONTINUOUS
 10
5.9061106984
 20
5.4031862781
 40
0.0295275591
  0
CIRCLE
  5
2EC
100
AcDbEntity
  8
0
100
AcDbCircle
 62
7
  6
CONTINUOUS
 10
6.0061106984
 20
5.5031862781
 40
0.0177165354
  0
CIRCLE
  5
2ED
100
AcDbEntity
  8
0
100
AcDbCircle
 62
7
  6
CONTINUOUS
 10
5.9061106984
 20
5.5031862781
 40
0.0177165354
  0
CIRCLE
  5
2EE
100
AcDbEntity
  8
0
100
AcDbCircle
 62
7
  6
CONTINUOUS
 10
6.0061106984
 20
5.4031862781
 40
0.0177165354
  0
CIRCLE
  5
2EF
100
AcDbEntity
  8
0
100
AcDbCircle
 62
7
  6
CONTINUOUS
 10
5.9061106984
 20
5.4031862781
 40
0.0177165354
  0
CIRCLE
  5
2F0
100
AcDbEntity
  8
0
100
AcDbCircle
 62
7
  6
CONTINUOUS
 10
6.3061106984
 20
5.3031862781
 40
0.0295275591
  0
CIRCLE
  5
2F1
100
AcDbEntity
  8
0
100
AcDbCircle
 62
7
  6
CONTINUOUS
 10
6.2061106984
 20
5.3031862781
 40
0.0295275591
  0
CIRCLE
  5
2F2
100
AcDbEntity
  8
0
100
AcDbCircle
 62
7
  6
CONTINUOUS
 10
6.1061106984
 20
5.3031862781
 40
0.0295275591
  0
CIRCLE
  5
2F3
100
AcDbEntity
  8
0
100
AcDbCircle
 62
7
  6
CONTINUOUS
 10
6.3061106984
 20
5.2031862781
 40
0.0295275591
  0
CIRCLE
  5
2F4
100
AcDbEntity
  8
0
100
AcDbCircle
 62
7
  6
CONTINUOUS
 10
6.2061106984
 20
5.2031862781
 40
0.0295275591
  0
CIRCLE
  5
2F5
100
AcDbEntity
  8
0
100
AcDbCircle
 62
7
  6
CONTINUOUS
 10
6.1061106984
 20
5.2031862781
 40
0.0295275591
  0
CIRCLE
  5
2F6
100
AcDbEntity
  8
0
100
AcDbCircle
 62
7
  6
CONTINUOUS
 10
6.3061106984
 20
5.3031862781
 40
0.0177165354
  0
CIRCLE
  5
2F7
100
AcDbEntity
  8
0
100
AcDbCircle
 62
7
  6
CONTINUOUS
 10
6.2061106984
 20
5.3031862781
 40
0.0177165354
  0
CIRCLE
  5
2F8
100
AcDbEntity
  8
0
100
AcDbCircle
 62
7
  6
CONTINUOUS
 10
6.1061106984
 20
5.3031862781
 40
0.0177165354
  0
CIRCLE
  5
2F9
100
AcDbEntity
  8
0
100
AcDbCircle
 62
7
  6
CONTINUOUS
 10
6.3061106984
 20
5.2031862781
 40
0.0177165354
  0
CIRCLE
  5
2FA
100
AcDbEntity
  8
0
100
AcDbCircle
 62
7
  6
CONTINUOUS
 10
6.2061106984
 20
5.2031862781
 40
0.0177165354
  0
CIRCLE
  5
2FB
100
AcDbEntity
  8
0
100
AcDbCircle
 62
7
  6
CONTINUOUS
 10
6.1061106984
 20
5.2031862781
 40
0.0177165354
  0
CIRCLE
  5
2FC
100
AcDbEntity
  8
0
100
AcDbCircle
 62
7
  6
CONTINUOUS
 10
6.3061106984
 20
5.5031862781
 40
0.0295275591
  0
CIRCLE
  5
2FD
100
AcDbEntity
  8
0
100
AcDbCircle
 62
7
  6
CONTINUOUS
 10
6.2061106984
 20
5.5031862781
 40
0.0295275591
  0
CIRCLE
  5
2FE
100
AcDbEntity
  8
0
100
AcDbCircle
 62
7
  6
CONTINUOUS
 10
6.1061106984
 20
5.5031862781
 40
0.0295275591
  0
CIRCLE
  5
2FF
100
AcDbEntity
  8
0
100
AcDbCircle
 62
7
  6
CONTINUOUS
 10
6.3061106984
 20
5.4031862781
 40
0.0295275591
  0
CIRCLE
  5
300
100
AcDbEntity
  8
0
100
AcDbCircle
 62
7
  6
CONTINUOUS
 10
6.2061106984
 20
5.4031862781
 40
0.0295275591
  0
CIRCLE
  5
301
100
AcDbEntity
  8
0
100
AcDbCircle
 62
7
  6
CONTINUOUS
 10
6.1061106984
 20
5.4031862781
 40
0.0295275591
  0
CIRCLE
  5
302
100
AcDbEntity
  8
0
100
AcDbCircle
 62
7
  6
CONTINUOUS
 10
6.3061106984
 20
5.5031862781
 40
0.0177165354
  0
CIRCLE
  5
303
100
AcDbEntity
  8
0
100
AcDbCircle
 62
7
  6
CONTINUOUS
 10
6.2061106984
 20
5.5031862781
 40
0.0177165354
  0
CIRCLE
  5
304
100
AcDbEntity
  8
0
100
AcDbCircle
 62
7
  6
CONTINUOUS
 10
6.1061106984
 20
5.5031862781
 40
0.0177165354
  0
CIRCLE
  5
305
100
AcDbEntity
  8
0
100
AcDbCircle
 62
7
  6
CONTINUOUS
 10
6.3061106984
 20
5.4031862781
 40
0.0177165354
  0
CIRCLE
  5
306
100
AcDbEntity
  8
0
100
AcDbCircle
 62
7
  6
CONTINUOUS
 10
6.2061106984
 20
5.4031862781
 40
0.0177165354
  0
CIRCLE
  5
307
100
AcDbEntity
  8
0
100
AcDbCircle
 62
7
  6
CONTINUOUS
 10
6.1061106984
 20
5.4031862781
 40
0.0177165354
  0
ARC
  5
308
100
AcDbEntity
  8
0
100
AcDbCircle
 62
7
  6
CONTINUOUS
 10
6.7431185724
 20
4.7350760419
 40
0.062992126
100
AcDbArc
 50
0.0
 51
90.0
  0
ARC
  5
309
100
AcDbEntity
  8
0
100
AcDbCircle
 62
7
  6
CONTINUOUS
 10
6.673433533
 20
4.8453122623
 40
0.0472440945
100
AcDbArc
 50
180.0
 51
270.0
  0
ARC
  5
30A
100
AcDbEntity
  8
0
100
AcDbCircle
 62
7
  6
CONTINUOUS
 10
6.5061106984
 20
5.5031862781
 40
0.125
100
AcDbArc
 50
16.1308042131
 51
343.8691957869
  0
ARC
  5
30B
100
AcDbEntity
  8
0
100
AcDbCircle
 62
7
  6
CONTINUOUS
 10
6.5631973125
 20
5.6401941521
 40
0.062992126
100
AcDbArc
 50
0.0
 51
90.0
  0
CIRCLE
  5
30C
100
AcDbEntity
  8
0
100
AcDbCircle
 62
7
  6
CONTINUOUS
 10
6.5061106984
 20
5.5031862781
 40
0.0625984252
  0
ENDSEC
  0
SECTION
  2
OBJECTS
  0
DICTIONARY
  5
C
100
AcDbDictionary
280
0
281
1
  3
ACAD_GROUP
350
D
  3
ACAD_MLINESTYLE
350
17
  3
ACAD_LAYOUT
350
1A
  3
ACAD_PLOTSETTINGS
350
19
  3
ACAD_PLOTSTYLENAME
350
E
  0
DICTIONARY
  5
D
102
{ACAD_REACTORS
330
C
102
}
100
AcDbDictionary
280
0
281
1
  0
ACDBDICTIONARYWDFLT
  5
E
102
{ACAD_REACTORS
330
C
102
}
100
AcDbDictionary
281
1
  3
Normal
350
F
100
AcDbDictionaryWithDefault
340
F
  0
DICTIONARY
  5
17
102
{ACAD_REACTORS
330
C
102
}
100
AcDbDictionary
280
0
281
1
  3
Standard
350
18
  0
DICTIONARY
  5
19
102
{ACAD_REACTORS
330
C
102
}
100
AcDbDictionary
281
1
  0
DICTIONARY
  5
1A
102
{ACAD_REACTORS
330
C
102
}
100
AcDbDictionary
281
1
  3
Model
350
30D
  3
Layout1
350
30E
  0
ACDBPLACEHOLDER
  5
F
102
{ACAD_REACTORS
330
E
102
}
  0
MLINESTYLE
  5
18
102
{ACAD_REACTORS
330
17
102
}
100
AcDbMlineStyle
  2
STANDARD
 70
0
  3

 62
256
 51
90.0
 52
90.0
 71
2
 49
0.5
 62
256
  6
BYLAYER
 49
-0.5
 62
256
  6
BYLAYER
  0
LAYOUT
  5
30D
102
{ACAD_REACTORS
330
1A
102
}
100
AcDbPlotSettings
  1

  2
none_device
  4
ANSI_A_(11.00_x_8.50_Inches)
  6

 40
0.0
 41
0.0
 42
0.0
 43
0.0
 44
279.4
 45
215.9
 46
0.0
 47
0.0
 48
0.0
 49
0.0
140
0.0
141
0.0
142
1.0
143
1.0
 70
1024
 72
0
 73
0
 74
0
  7

 75
0
147
1.0
148
0.0
149
0.0
100
AcDbLayout
  1
Model
 70
0
 71
0
 10
0.0
 20
0.0
 11
11.0
 21
8.5
 12
0.0
 22
0.0
 32
0.0
 14
0.0
 24
0.0
 34
0.0
 15
0.0
 25
0.0
 35
0.0
146
0.0
 13
0.0
 23
0.0
 33
0.0
 16
1.0
 26
0.0
 36
0.0
 17
0.0
 27
1.0
 37
0.0
 76
0
330
207
345
0
346
0
  0
LAYOUT
  5
30E
102
{ACAD_REACTORS
330
1A
102
}
100
AcDbPlotSettings
  1

  2
none_device
  4
ANSI_A_(11.00_x_8.50_Inches)
  6

 40
0.0
 41
0.0
 42
0.0
 43
0.0
 44
279.4
 45
215.9
 46
0.0
 47
0.0
 48
0.0
 49
0.0
140
0.0
141
0.0
142
1.0
143
1.0
 70
0
 72
0
 73
0
 74
0
  7

 75
0
147
1.0
148
0.0
149
0.0
100
AcDbLayout
  1
Layout1
 70
0
 71
1
 10
0.0
 20
0.0
 11
11.0
 21
8.5
 12
0.0
 22
0.0
 32
0.0
 14
0.0
 24
0.0
 34
0.0
 15
0.0
 25
0.0
 35
0.0
146
0.0
 13
0.0
 23
0.0
 33
0.0
 16
1.0
 26
0.0
 36
0.0
 17
0.0
 27
1.0
 37
0.0
 76
0
330
208
345
0
346
0
  0
ENDSEC
  0
EOF
